<svg width="87" height="92" viewBox="0 0 87 92" fill="none" xmlns="http://www.w3.org/2000/svg">
<path d="M43.4084 0C20.368 0 1.303 18.9081 0.00473761 43.0463C-0.0430099 43.9342 0.271889 44.8008 0.87093 45.4299L43.6184 90.3219C44.1788 90.9105 44.9375 91.2383 45.7257 91.2383C45.7817 91.2383 45.8382 91.2367 45.8942 91.2334C68.8795 89.8697 86.8844 69.8492 86.8844 45.6542C86.8841 20.4804 67.3808 0 43.4084 0ZM47.3752 25.8748L50.5916 29.2531C50.8075 29.4795 50.8271 29.8294 50.6112 30.0561L36.8037 44.5562C36.5884 44.7826 36.2351 44.7826 36.0192 44.5562L32.8032 41.178C32.5873 40.9515 32.5873 40.5808 32.8029 40.354L46.6104 25.8539C46.826 25.6275 47.1596 25.6481 47.3752 25.8748ZM25.39 20.2521L27.4493 18.0898C32.8234 12.4462 37.3734 14.9594 40.0997 17.8222C42.1394 19.9643 43.2766 21.8179 43.865 22.8891C44.0616 23.2596 44.1202 23.4037 43.865 23.6716L41.3942 26.2665C41.1587 26.5138 40.9823 26.4932 40.8057 26.3077C40.7861 26.2871 40.7661 26.2665 40.7468 26.2462C40.0599 25.4014 38.5894 23.6098 37.1385 22.0858C35.2752 20.1289 33.8627 19.8405 31.49 22.3328L29.411 24.5158C26.7826 27.2759 27.5278 28.8414 28.2929 29.6441C28.6655 30.0358 29.0578 30.4063 29.431 30.7154L33.4514 26.4932C33.6673 26.2668 34.0007 26.2459 34.2165 26.4729L37.3149 29.7271C37.5305 29.9535 37.5305 30.3243 37.3149 30.5507L30.7444 37.451C30.4503 37.7597 30.2544 37.7601 29.8815 37.4922C28.5284 36.5654 26.7829 35.2263 24.8806 33.2285C22.5266 30.7568 20.0748 25.834 25.39 20.2521ZM10.3835 46.7168C26.9545 49.1188 40.1071 62.9311 42.394 80.3358L10.3835 46.7168ZM43.1184 51.1877C42.9031 51.4142 42.5501 51.4142 42.3342 51.1877L39.1375 47.8304C38.9219 47.6043 38.9219 47.2335 39.1372 47.0065L49.1006 36.5435C52.8858 32.5681 56.0043 34.5658 58.515 37.2025C60.4173 39.2005 61.4962 40.6219 62.143 41.5073C62.3591 41.816 62.3788 42.0839 62.1433 42.3315L59.7506 44.8441C59.5347 45.0708 59.182 45.0711 58.9661 44.8444L55.0043 40.684C54.2983 39.9421 53.8472 39.9215 53.0818 40.7248L51.6699 42.2077L56.4947 47.2743C56.7103 47.501 56.7106 47.8718 56.495 48.0989L54.1809 50.5291C53.965 50.7555 53.612 50.7552 53.3958 50.5288L48.5713 45.4619L43.1184 51.1877ZM71.9291 57.7164C71.7133 57.9428 71.3606 57.9019 71.145 57.6755L68.2224 54.6063L57.2979 66.0789C57.0826 66.3057 56.7293 66.305 56.5134 66.0786L53.3167 62.7216C53.1008 62.4948 53.1008 62.1244 53.3164 61.8973L64.2409 50.425L61.2598 47.2943C61.0442 47.0679 61.0243 46.718 61.2402 46.4913L63.7506 43.8552C63.9662 43.6285 64.2998 43.6488 64.5154 43.8755L74.4003 54.2564C74.6156 54.4828 74.6549 54.8533 74.4393 55.0803L71.9291 57.7164Z" fill="#A190F8"/>
<rect width="72.374" height="30" transform="matrix(0.702826 0.711362 -0.711365 0.702823 33.3311 3.92969)" fill="#A190F8"/>
<path d="M27.4349 18.9284L26.0799 20.3112L24.1943 18.4635L22.3466 20.3491L20.9638 18.9941L22.8116 17.1085L20.9374 15.2719L22.2924 13.8892L24.1666 15.7257L26.0031 13.8515L27.3859 15.2065L25.5493 17.0807L27.4349 18.9284ZM32.0999 22.962C32.877 23.7235 33.2854 24.5793 33.3252 25.5293C33.3725 26.4716 33.0378 27.3085 32.3211 28.0399C31.5969 28.7789 30.7595 29.1381 29.8089 29.1176C28.8658 29.0895 28.0057 28.6946 27.2286 27.9332L24.1659 24.932L32.0048 16.9325L37.033 21.8598L35.5548 23.3683L32.1036 19.9863L30.6142 21.5062L32.0999 22.962ZM28.6732 26.459C28.9855 26.7651 29.3304 26.9313 29.7078 26.9576C30.0927 26.9763 30.4419 26.8257 30.7555 26.5057C31.069 26.1858 31.2088 25.8374 31.1748 25.4606C31.1408 25.0838 30.9676 24.7423 30.6553 24.4362L29.1696 22.9804L27.1875 25.0032L28.6732 26.459ZM38.545 36.9838C36.9536 36.9924 35.5788 36.4294 34.4208 35.2946C33.2628 34.1598 32.6719 32.7968 32.6482 31.2055C32.6396 29.614 33.2065 28.2355 34.3487 27.0698C35.4909 25.9042 36.854 25.3133 38.4378 25.2973C40.0367 25.2811 41.4152 25.8403 42.5732 26.9751C43.7312 28.1099 44.3184 29.4767 44.3346 31.0756C44.3583 32.6669 43.799 34.0454 42.6567 35.2111C41.5145 36.3767 40.1439 36.9676 38.545 36.9838ZM34.8094 31.2175C34.8268 32.1904 35.2012 33.0351 35.9326 33.7518C36.664 34.4685 37.5162 34.8257 38.4892 34.8234C39.4696 34.8134 40.3331 34.4275 41.0797 33.6657C41.8263 32.9038 42.1946 32.0327 42.1846 31.0522C42.1747 30.0717 41.804 29.2231 41.0726 28.5064C40.3413 27.7897 39.4853 27.4364 38.5049 27.4463C37.5244 27.4563 36.6609 27.8422 35.9143 28.604C35.1677 29.3659 34.7994 30.237 34.8094 31.2175ZM52.2329 36.7544L53.7985 38.2886L45.9596 46.2881L44.394 44.7539L47.6415 41.4398L44.6703 38.5283L41.4228 41.8423L39.8457 40.297L47.6846 32.2975L49.2616 33.8428L46.1485 37.0198L49.1197 39.9314L52.2329 36.7544ZM59.7072 44.0786L61.2842 45.624L53.2068 49.0662C51.0438 49.9933 49.272 49.6983 47.8914 48.1811L49.336 46.7069C49.7253 47.163 50.1241 47.4419 50.5325 47.5433C50.9559 47.6446 51.4269 47.6059 51.9456 47.4272L54.8046 39.2745L56.3816 40.8199L54.3451 46.3958L59.7072 44.0786ZM57.4777 57.8885C56.2739 56.7089 55.6717 55.3347 55.6708 53.7658C55.67 52.1969 56.2444 50.8258 57.3941 49.6525C58.5513 48.4716 59.9105 47.8695 61.4716 47.8461C63.0402 47.8151 64.4264 48.3894 65.6301 49.569C66.3539 50.2782 66.8525 51.1029 67.126 52.043C67.4147 52.9829 67.4467 53.9103 67.2221 54.8253L65.0895 54.2812C65.2423 53.729 65.2329 53.1747 65.0614 52.6183C64.8972 52.0543 64.5866 51.5483 64.1295 51.1003C63.3524 50.3388 62.485 49.9667 61.5272 49.984C60.5771 50.0087 59.7212 50.4096 58.9598 51.1867C58.2057 51.9562 57.826 52.8161 57.8205 53.7666C57.8227 54.7245 58.2124 55.5842 58.9894 56.3457C59.4466 56.7936 59.955 57.0977 60.5148 57.258C61.0897 57.4181 61.6441 57.4163 62.178 57.2525L62.7652 59.3736C61.855 59.6167 60.9271 59.611 59.9817 59.3566C59.0437 59.0945 58.2091 58.6052 57.4777 57.8885ZM62.043 62.0485L69.8819 54.049L71.4589 55.5944L68.8833 58.2228L70.2889 59.6002C71.0584 60.3542 71.4522 61.2478 71.4702 62.281C71.4882 63.3142 71.1277 64.2079 70.3886 64.9622C69.6495 65.7164 68.7633 66.095 67.7299 66.0979C66.6966 66.1009 65.7952 65.7253 65.0257 64.9713L62.043 62.0485ZM68.4883 68.3644L76.3272 60.3649L77.8928 61.8991L70.0539 69.8986L68.4883 68.3644ZM65.0646 62.1197L66.4703 63.4971C66.8055 63.8256 67.1956 63.9838 67.6405 63.9718C68.0854 63.9597 68.4795 63.7784 68.8229 63.428C69.1664 63.0775 69.3396 62.6798 69.3426 62.2347C69.3456 61.7897 69.1796 61.4029 68.8443 61.0744L67.4387 59.697L65.0646 62.1197Z" fill="black"/>
</svg>
