<svg width="113" height="65" viewBox="0 0 113 65" fill="none" xmlns="http://www.w3.org/2000/svg">
<path d="M11.3874 14.5673C11.0416 14.5673 10.739 14.4809 10.4364 14.2648C9.91766 13.8757 9.65831 13.1841 9.87444 12.5357L10.6525 10.0286C10.7822 9.59629 10.6525 9.07757 10.2635 8.81822L8.14538 7.17561C7.62666 6.74334 7.41052 6.05172 7.62666 5.44655C7.84279 4.79815 8.44796 4.36588 9.09636 4.36588H11.7332C12.2087 4.36588 12.6409 4.0633 12.7706 3.5878L13.6351 1.03744C13.8513 0.432266 14.4565 0 15.1049 0C15.7965 0 16.3584 0.432265 16.5746 1.08066L17.4391 3.63103C17.612 4.0633 18.001 4.36588 18.4765 4.40911H21.1133C21.7617 4.40911 22.3669 4.84137 22.583 5.48977C22.7992 6.13817 22.583 6.82979 22.0643 7.21883L19.9462 8.86144C19.6004 9.16403 19.4275 9.63952 19.5572 10.0718L20.3353 12.5357C20.5514 13.1841 20.292 13.8757 19.7733 14.2648C19.2546 14.6538 18.5197 14.6538 17.9578 14.308L15.7533 12.7951C15.3642 12.5357 14.8887 12.5357 14.4997 12.7951L12.2951 14.308C11.9925 14.4809 11.69 14.5673 11.3874 14.5673ZM13.0732 7.26206C13.5487 7.95368 13.8513 8.81822 13.8513 9.63952C14.6726 9.38016 15.5371 9.38016 16.3584 9.63952C16.3584 8.77499 16.661 7.95368 17.1365 7.26206C16.3152 7.0027 15.6236 6.48398 15.1049 5.79236C14.5861 6.48398 13.8945 7.0027 13.0732 7.26206Z" fill="white"/>
<path d="M28.6348 35.5318C27.7702 35.5318 27.0786 34.8402 27.0786 33.9757V22.3477C27.0786 22.0019 26.776 21.6993 26.4302 21.6993H22.9721C21.6321 21.6993 20.3785 20.9212 19.8166 19.7109C19.6437 19.3219 19.2546 19.1057 18.8656 19.1057H11.5171C11.0848 19.1057 10.739 19.3651 10.5661 19.7109C10.0041 20.9212 8.79379 21.6993 7.41054 21.6993H3.82274C3.47692 21.6993 3.17434 22.0019 3.17434 22.3477V33.9324C3.17434 34.797 2.48271 35.4886 1.61818 35.4886C0.75365 35.4886 0.0187988 34.797 0.0187988 33.9324V22.3477C0.0187988 20.2728 1.70464 18.587 3.82274 18.587H7.45377C7.58345 18.587 7.6699 18.5438 7.71313 18.4141C8.40475 16.9012 9.87445 15.9502 11.5171 15.9502H18.8656C20.5082 15.9502 22.0211 16.9012 22.6695 18.4141C22.7127 18.5006 22.8424 18.587 22.9289 18.587H26.387C28.4619 18.587 30.1909 20.2728 30.1909 22.3909V33.9757C30.1909 34.797 29.4993 35.5318 28.6348 35.5318Z" fill="white"/>
<path d="M15.1046 34.4954C11.4304 34.4954 8.44775 31.5128 8.44775 27.8385C8.44775 24.2075 11.4304 21.1816 15.1046 21.1816C18.7789 21.1816 21.7615 24.1643 21.7615 27.8385C21.7615 31.5128 18.7789 34.4954 15.1046 34.4954ZM15.1046 24.3372C13.1595 24.3372 11.6033 25.8933 11.6033 27.8385C11.6033 29.7837 13.1595 31.3399 15.1046 31.3399C17.0498 31.3399 18.606 29.7837 18.606 27.8385C18.606 25.9366 17.0498 24.3372 15.1046 24.3372Z" fill="white"/>
<path d="M5.7247 29.4375H1.57496C0.710424 29.4375 0.0187988 28.7459 0.0187988 27.8814C0.0187988 27.0168 0.710424 26.3252 1.57496 26.3252H5.68148C6.54601 26.3252 7.23763 27.0168 7.23763 27.8814C7.28086 28.7459 6.58924 29.4375 5.7247 29.4375Z" fill="white"/>
<path d="M15.1046 41.108C10.4794 41.108 5.85416 40.7622 1.31537 40.0274C0.450836 39.8977 -0.111109 39.0764 0.0185701 38.2119C0.14825 37.3473 0.969554 36.7854 1.83409 36.9151C10.5226 38.2983 19.6867 38.2983 28.3752 36.9151C29.2397 36.7854 30.0178 37.3473 30.1907 38.2119C30.3204 39.0764 29.7584 39.8545 28.8939 40.0274C24.3983 40.7622 19.7299 41.108 15.1046 41.108Z" fill="white"/>
<path d="M15.1046 47.6344C10.4794 47.6344 5.85416 47.2886 1.31537 46.5537C0.450836 46.424 -0.111109 45.6027 0.0185701 44.7382C0.14825 43.8737 0.969554 43.3117 1.83409 43.4414C10.5226 44.8247 19.6867 44.8247 28.3752 43.4414C29.2397 43.3117 30.0178 43.8737 30.1907 44.7382C30.3204 45.6027 29.7584 46.3808 28.8939 46.5537C24.3983 47.2886 19.7299 47.6344 15.1046 47.6344Z" fill="white"/>
<path d="M15.1046 52.9518C10.4794 52.9518 5.85416 52.606 1.31537 51.8711C0.450836 51.7414 -0.111109 50.9201 0.0185701 50.0556C0.14825 49.1911 0.969554 48.6291 1.83409 48.7588C10.5226 50.1421 19.6867 50.1421 28.3752 48.7588C29.2397 48.6291 30.0178 49.1911 30.1907 50.0556C30.3204 50.9201 29.7584 51.6982 28.8939 51.8711C24.3983 52.606 19.7299 52.9518 15.1046 52.9518Z" fill="white"/>
<path d="M15.1046 57.3619C10.4794 57.3619 5.85416 57.0161 1.31537 56.2813C0.450836 56.1516 -0.111109 55.3303 0.0185701 54.4658C0.14825 53.6012 0.969554 53.0393 1.83409 53.169C10.5226 54.5522 19.6867 54.5522 28.3752 53.169C29.2397 53.0393 30.0178 53.6012 30.1907 54.4658C30.3204 55.3303 29.7584 56.1084 28.8939 56.2813C24.3983 57.0161 19.7299 57.3619 15.1046 57.3619Z" fill="white"/>
<path d="M15.1046 57.3619C10.4794 57.3619 5.85416 57.0161 1.31537 56.2813C0.450836 56.1516 -0.111109 55.3303 0.0185701 54.4658C0.14825 53.6012 0.969554 53.0393 1.83409 53.169C10.5226 54.5522 19.6867 54.5522 28.3752 53.169C29.2397 53.0393 30.0178 53.6012 30.1907 54.4658C30.3204 55.3303 29.7584 56.1084 28.8939 56.2813C24.3983 57.0161 19.7299 57.3619 15.1046 57.3619Z" fill="white"/>
<path d="M15.1046 61.5973C10.4794 61.5973 5.85416 61.2515 1.31537 60.5166C0.450836 60.3869 -0.111109 59.5656 0.0185701 58.7011C0.14825 57.8366 0.969554 57.2746 1.83409 57.4043C10.5226 58.7876 19.6867 58.7876 28.3752 57.4043C29.2397 57.2746 30.0178 57.8366 30.1907 58.7011C30.3204 59.5656 29.7584 60.3437 28.8939 60.5166C24.3983 61.2515 19.7299 61.5973 15.1046 61.5973Z" fill="white"/>
<path d="M37.4098 38.8174V37.0451L38.9659 36.4399V26.7571L37.4098 26.1087V24.3797L42.1647 24.25H47.9571V28.1836H46.0119L45.5364 26.7571H42.1647V30.3449H46.4441V32.636H42.1647V36.4399L44.0667 37.0451V38.8174H37.4098Z" fill="white"/>
<path d="M49.1676 33.3271C49.1676 31.4683 49.6863 30.0418 50.6805 29.0044C51.6747 27.967 53.058 27.4482 54.7438 27.4482C56.3864 27.4482 57.6832 27.9237 58.591 28.9179C59.4988 29.8689 59.931 31.2522 59.931 33.0245C59.931 34.8832 59.4123 36.3529 58.4613 37.3903C57.4671 38.471 56.1271 38.9897 54.4412 38.9897C50.9399 39.033 49.1676 37.131 49.1676 33.3271ZM52.3664 33.2406C52.3664 34.3645 52.5393 35.1858 52.8851 35.7477C53.2309 36.2665 53.7928 36.5258 54.5277 36.5258C55.3058 36.5258 55.8245 36.2665 56.2135 35.7477C56.5593 35.229 56.7323 34.3645 56.7323 33.1541C56.7323 32.0735 56.5593 31.2954 56.2135 30.7335C55.8677 30.2147 55.349 29.9554 54.6142 29.9554C53.8361 29.9554 53.2741 30.2147 52.8851 30.6902C52.5825 31.209 52.3664 32.0303 52.3664 33.2406Z" fill="white"/>
<path d="M61.0114 30.2584V28.27L62.9133 28.0106V25.1576L66.0256 24.5957V28.0106H68.9218V30.2584H66.0256V34.8836C66.0256 35.5752 66.1121 36.0507 66.2418 36.3533C66.4147 36.6559 66.674 36.7856 67.1063 36.7856C67.3656 36.7856 67.625 36.7424 67.9708 36.6127C68.3166 36.483 68.576 36.3966 68.7489 36.3101L69.4837 37.823C68.3599 38.6443 67.1495 39.0334 65.9824 39.0334C65.4205 39.0334 64.9017 38.9469 64.5127 38.7308C64.1237 38.5579 63.7778 38.2553 63.5617 37.9095C63.3456 37.5204 63.1727 37.1314 63.0862 36.6559C62.9998 36.1804 62.9565 35.6617 62.9565 35.0133V30.2584H61.0114Z" fill="white"/>
<path d="M70.3915 33.3271C70.3915 31.4683 70.9102 30.0418 71.9044 29.0044C72.8986 27.967 74.2819 27.4482 75.9677 27.4482C77.6103 27.4482 78.9071 27.9237 79.8149 28.9179C80.7226 29.8689 81.1549 31.2522 81.1549 33.0245C81.1549 34.8832 80.6362 36.3529 79.6852 37.3903C78.691 38.471 77.351 38.9897 75.6651 38.9897C72.1638 39.033 70.3915 37.131 70.3915 33.3271ZM73.5902 33.2406C73.5902 34.3645 73.7631 35.1858 74.109 35.7477C74.4548 36.2665 75.0167 36.5258 75.7516 36.5258C76.5297 36.5258 77.0484 36.2665 77.4374 35.7477C77.7832 35.229 77.9561 34.3645 77.9561 33.1541C77.9561 32.0735 77.7832 31.2954 77.4374 30.7335C77.0916 30.2147 76.5729 29.9554 75.838 29.9554C75.0599 29.9554 74.498 30.2147 74.109 30.6902C73.8064 31.209 73.5902 32.0303 73.5902 33.2406Z" fill="white"/>
<path d="M82.0197 24.6388V22.9961L86.6881 22.8232V28.5724C87.6391 27.8375 88.6333 27.4917 89.6275 27.4917C91.0108 27.4917 92.0482 27.9672 92.7831 28.9182C93.5179 29.8692 93.8637 31.2092 93.8637 32.9815C93.8637 34.9267 93.345 36.4396 92.3508 37.5203C91.3566 38.6009 89.8437 39.1197 87.8985 39.1197C87.2068 39.1197 86.5152 39.0764 85.8236 38.99C85.0887 38.9035 84.57 38.8603 84.181 38.7738L83.619 38.6442V25.0278L82.0197 24.6388ZM86.6449 36.4396C86.9475 36.5693 87.4662 36.6125 88.1578 36.6125C89.8004 36.6125 90.6217 35.4454 90.6217 33.1544C90.6217 32.0737 90.4488 31.2956 90.1462 30.7769C89.8437 30.2582 89.3249 29.9556 88.5901 29.9556C88.201 29.9556 87.8552 30.0421 87.5527 30.1718C87.2068 30.3447 86.9907 30.4743 86.861 30.6472L86.6449 30.8634V36.4396Z" fill="white"/>
<path d="M95.3766 38.8177V37.1751L97.0192 36.6564V29.9562L95.3766 29.4375V27.7949L100.132 27.7085V36.6996L101.558 37.2183V38.8609H95.3766V38.8177ZM96.9327 24.2503C96.9327 23.6884 97.0624 23.2561 97.365 22.9103C97.6676 22.5645 98.0134 22.3916 98.4457 22.3916C99.6128 22.3916 100.175 22.9968 100.175 24.2503C100.175 24.8123 100.002 25.2878 99.656 25.6336C99.3102 25.9794 98.9212 26.1523 98.4457 26.1523C97.9702 26.1523 97.5811 25.9794 97.3218 25.6768C97.0624 25.331 96.9327 24.8555 96.9327 24.2503Z" fill="white"/>
<path d="M103.028 38.8165V36.9145L108.258 29.9551H105.449L105.146 31.468H103.244V27.6641H111.933V29.6093L106.789 36.5687H109.815L110.16 34.7964H112.019V38.8165H103.028Z" fill="white"/>
<path d="M37.4098 59.2646V57.4923L38.9659 56.8872V47.1612L37.4098 46.556V44.7837L42.1647 44.6973H47.9571V48.6309H46.0119L45.5364 47.1612H42.1647V50.7922H46.4441V53.04H42.1647V56.8872L44.0667 57.4923V59.2646H37.4098Z" fill="white"/>
<path d="M49.297 56.2363C49.297 55.0259 49.7293 54.1614 50.5938 53.5995C51.4583 53.0375 52.7119 52.7782 54.3545 52.7782H55.8242V51.6543C55.8242 50.6601 55.3055 50.1413 54.2248 50.1413C53.9222 50.1413 53.6197 50.1846 53.3171 50.2278C53.0145 50.271 52.7983 50.3142 52.6254 50.4007L52.4093 50.4871L52.1067 51.7839H50.1615L50.0318 48.7149C50.2048 48.6716 50.4641 48.5852 50.8099 48.4987C51.1125 48.4123 51.6745 48.2826 52.4958 48.1097C53.3171 47.9368 54.0087 47.8936 54.6139 47.8936C56.17 47.8936 57.2939 48.1961 57.9423 48.8445C58.5907 49.4497 58.9365 50.5304 58.9365 52.0433V57.1873L60.4927 57.5763V59.0892L56.3429 59.2189L55.9539 57.9653C55.9107 58.0086 55.8674 58.0518 55.781 58.1383C55.6945 58.2247 55.5216 58.3112 55.3055 58.4841C55.0461 58.657 54.83 58.7867 54.5706 58.9163C54.3113 59.046 54.0087 59.1757 53.6629 59.2621C53.3171 59.3486 52.9713 59.435 52.6254 59.435C51.588 59.435 50.7667 59.1757 50.2048 58.6137C49.5996 58.0518 49.297 57.2737 49.297 56.2363ZM52.3661 55.8905C52.3661 56.3227 52.4525 56.6253 52.6687 56.8415C52.8848 57.0576 53.1874 57.1873 53.5764 57.1873C53.7926 57.1873 54.0087 57.144 54.2248 57.0576C54.441 56.9711 54.6571 56.8847 54.83 56.755C55.0029 56.6253 55.1758 56.4956 55.3055 56.4092C55.4352 56.2795 55.5648 56.1931 55.6513 56.0634L55.781 55.9337V54.464H54.6139C53.8358 54.464 53.2306 54.5937 52.8848 54.8098C52.539 55.0259 52.3661 55.3718 52.3661 55.8905Z" fill="white"/>
<path d="M61.5734 59.2636V57.621L63.1728 57.1023V50.4021L61.6166 49.8834V48.2408L65.9392 48.1544L66.0689 49.6241C66.1122 49.5808 66.1986 49.5376 66.2851 49.4511C66.3715 49.3647 66.5444 49.235 66.847 49.0621C67.1064 48.8892 67.4089 48.7163 67.6683 48.5434C67.9277 48.4137 68.2735 48.284 68.6625 48.1544C69.0516 48.0247 69.3974 47.9814 69.7432 47.9814C71.1264 47.9814 72.0774 48.5866 72.5961 49.7537C72.7258 49.6241 72.8987 49.4944 73.0716 49.3215C73.2878 49.1486 73.5471 48.9757 73.8929 48.7595C74.2387 48.5434 74.6278 48.3705 75.06 48.1976C75.4923 48.0679 75.9246 47.9814 76.3568 47.9814C77.4375 47.9814 78.2156 48.284 78.7343 48.9324C79.253 49.5808 79.5124 50.4886 79.5124 51.6557V57.1455L80.8956 57.6642V59.3068H75.3194V57.6642L76.4001 57.1455V52.2177C76.4001 51.6557 76.3136 51.2234 76.0975 50.9209C75.9246 50.6615 75.622 50.4886 75.1897 50.4886C74.9304 50.4886 74.671 50.5318 74.4549 50.6183C74.1955 50.7047 73.9794 50.7912 73.8065 50.8776C73.6336 50.9641 73.4607 51.0938 73.331 51.1802C73.2013 51.2667 73.0716 51.3531 73.0284 51.4396L72.9419 51.5693V57.1023L74.0226 57.621V59.2636H68.7922V57.621L69.8729 57.1023V52.1744C69.8729 51.5692 69.7864 51.1802 69.6135 50.8776C69.4406 50.6183 69.138 50.4886 68.7057 50.4886C68.4464 50.4886 68.187 50.5318 67.9709 50.6183C67.7115 50.7047 67.4954 50.7912 67.3225 50.8776C67.1496 50.9641 66.9767 51.0938 66.847 51.1802C66.7173 51.2667 66.5876 51.3531 66.5444 51.4396L66.4147 51.5693V57.1023L67.4954 57.621V59.2636H61.5734Z" fill="white"/>
<path d="M82.106 59.264V57.6214L83.7486 57.1026V50.4025L82.106 49.8838V48.2412L86.8609 48.1548V57.1459L88.2874 57.6646V59.3072H82.106V59.264ZM83.6621 44.6966C83.6621 44.1347 83.7918 43.7024 84.0944 43.3566C84.397 43.0108 84.7428 42.8379 85.175 42.8379C86.3422 42.8379 86.9041 43.4431 86.9041 44.6966C86.9041 45.2586 86.7312 45.7341 86.3854 46.0799C86.0396 46.4257 85.6505 46.5986 85.175 46.5986C84.6996 46.5986 84.3105 46.4257 84.0512 46.1231C83.7918 45.7773 83.6621 45.3018 83.6621 44.6966Z" fill="white"/>
<path d="M89.2817 59.2626V57.5768L90.9676 57.1013V45.4734L89.2817 45.0411V43.3985L94.0799 43.2256V57.1013L95.9386 57.5768V59.2626H89.2817Z" fill="white"/>
<path d="M96.1545 49.8404V48.1978L101.688 48.1113V49.8836L100.521 50.0997L102.379 55.8489L104.152 50.1862L102.941 49.9268V48.2842L108.518 48.1978V49.9701L107.221 50.2294L104.195 58.7018C104.022 59.1341 103.892 59.5231 103.763 59.8689C103.633 60.2148 103.46 60.6038 103.244 60.9928C103.028 61.3819 102.812 61.7709 102.639 62.0735C102.423 62.3761 102.163 62.6787 101.904 62.9812C101.601 63.2838 101.299 63.5432 100.996 63.7161C100.694 63.889 100.304 64.0619 99.9153 64.1916C99.5262 64.3213 99.0939 64.3645 98.6185 64.3645C98.4023 64.3645 98.143 64.3645 97.7971 64.3213C97.4513 64.278 97.192 64.278 96.9326 64.2348L96.5868 64.1916L96.8894 61.9006H98.2294C98.532 61.9006 98.8346 61.8141 99.1372 61.6845C99.3965 61.5548 99.6559 61.3819 99.8288 61.2522C100.002 61.0793 100.175 60.8631 100.348 60.6038C100.521 60.3444 100.65 60.1283 100.737 59.9554C100.823 59.8257 100.91 59.6096 100.996 59.3502L97.3217 50.3591L96.1545 49.8404Z" fill="white"/>
</svg>
