<svg width="156" height="156" viewBox="0 0 156 156" fill="none" xmlns="http://www.w3.org/2000/svg">
<circle cx="78" cy="78" r="78" fill="#FFE785"/>
<g clip-path="url(#clip0)">
<path d="M85.761 19.216L78.3073 18.9855L78.2304 20.676L85.2999 20.9065L85.2231 23.2118L78.1536 22.9813L78.0768 26.1318L75.1568 26.0549L75.541 16.5265L85.9146 16.8339L85.761 19.216Z" fill="#1C1C1C"/>
<path d="M90.5255 27.6685C89.4497 27.3611 88.6813 27.1306 88.2202 26.9C87.7592 26.6695 87.375 26.3621 87.1444 26.0548C86.8371 25.6706 86.6834 25.2864 86.6834 24.8253C86.6065 24.3642 86.6834 23.7495 86.9139 23.0579L87.6055 20.5221C87.836 19.7537 88.0665 19.139 88.3739 18.7548C88.6813 18.3706 88.9886 18.0632 89.4497 17.9095C89.8339 17.7558 90.2949 17.679 90.8328 17.7558C91.3707 17.8327 92.1392 17.9864 93.215 18.2169L96.5192 19.139C97.5949 19.4464 98.3634 19.6769 98.8244 19.9074C99.2855 20.1379 99.6697 20.4453 99.9002 20.7527C100.208 21.1369 100.284 21.5211 100.361 21.9821C100.361 22.4432 100.284 23.0579 100.131 23.7495L99.4392 26.2853C99.2086 26.9769 98.9781 27.5148 98.7476 27.9758C98.4402 28.36 98.1328 28.6674 97.7486 28.8211C97.3644 28.9748 96.9034 29.0516 96.3655 28.9748C95.8276 28.8979 95.0592 28.7442 93.9834 28.5137L90.5255 27.6685ZM91.9086 25.5937L93.676 26.0548C94.6749 26.3621 95.3665 26.3621 95.7507 26.2085C96.1349 26.0548 96.4423 25.6706 96.596 24.979L96.9802 23.6727C97.1339 22.9811 97.1339 22.52 96.9034 22.1358C96.6728 21.8285 96.0581 21.5211 95.0592 21.2137L93.2918 20.7527C92.2928 20.4453 91.6013 20.4453 91.2171 20.599C90.756 20.8295 90.4486 21.2137 90.2949 21.9053L89.9107 23.2116C89.7571 23.9032 89.7571 24.3642 90.0644 24.6716C90.3718 24.979 90.9097 25.3632 91.9086 25.5937Z" fill="#1C1C1C"/>
<path d="M104.895 33.3551L102.359 31.9719L105.817 25.6709L102.359 23.7498L103.512 21.6751L113.04 26.9004L111.888 28.9751L108.43 27.054L104.895 33.3551Z" fill="#1C1C1C"/>
<path d="M112.349 38.8107C111.504 38.0423 110.966 37.5044 110.658 37.0434C110.351 36.5823 110.12 36.1981 110.044 35.8139C109.967 35.3528 109.967 34.8918 110.197 34.5076C110.428 34.1234 110.735 33.5855 111.196 33.0476L112.964 31.1265C113.501 30.5118 113.962 30.1276 114.424 29.897C114.885 29.6665 115.269 29.5897 115.73 29.5897C116.114 29.5897 116.575 29.8202 117.036 30.0507C117.497 30.3581 118.112 30.8192 118.957 31.5876L121.493 33.8928C122.261 34.5844 122.876 35.1992 123.184 35.6602C123.491 36.1213 123.721 36.5055 123.798 36.8897C123.875 37.3507 123.798 37.7349 123.645 38.196C123.491 38.657 123.107 39.1181 122.646 39.656L120.878 41.577C120.417 42.1149 119.956 42.4992 119.495 42.7297C119.034 42.9602 118.65 43.037 118.189 43.037C117.805 43.037 117.344 42.8834 116.882 42.576C116.421 42.2686 115.807 41.8076 114.961 41.0392L112.349 38.8107ZM114.5 37.5813L115.884 38.8107C116.652 39.5023 117.267 39.8865 117.651 39.8865C118.035 39.8865 118.496 39.656 118.957 39.1949L119.879 38.196C120.34 37.6581 120.571 37.197 120.494 36.8128C120.417 36.4286 120.033 35.8139 119.265 35.1223L117.881 33.8928C117.113 33.2013 116.498 32.817 116.114 32.817C115.73 32.817 115.269 33.0476 114.731 33.5855L113.809 34.5844C113.348 35.1223 113.194 35.5834 113.271 35.9676C113.348 36.3518 113.809 36.8897 114.5 37.5813Z" fill="#1C1C1C"/>
<path d="M124.105 52.6422L119.187 45.1117L127.102 39.8864L131.789 47.0328C132.404 47.9549 132.634 48.7233 132.558 49.4149C132.481 50.1064 132.097 50.6443 131.328 51.1822C130.867 51.4896 130.483 51.5664 130.099 51.5664C129.714 51.5664 129.33 51.4128 128.869 51.1054C129.1 51.6433 129.177 52.1812 129.023 52.5654C128.869 53.0264 128.485 53.4107 127.947 53.7949C127.179 54.2559 126.487 54.4096 125.949 54.2559C125.258 54.1022 124.643 53.5643 124.105 52.6422ZM125.488 50.8749C125.642 51.1054 125.796 51.1822 126.026 51.2591C126.257 51.2591 126.41 51.2591 126.718 51.1054C126.948 50.9517 127.025 50.798 127.102 50.5675C127.179 50.337 127.102 50.1833 126.948 49.9528L124.028 45.4959L122.568 46.418L125.488 50.8749ZM128.408 48.6464C128.562 48.877 128.716 48.9538 128.869 49.0307C129.023 49.0307 129.253 49.0307 129.484 48.877C129.714 48.7233 129.791 48.5696 129.868 48.4159C129.945 48.1854 129.868 48.0317 129.791 47.878L127.025 43.6517L125.719 44.497L128.408 48.6464Z" fill="#1C1C1C"/>
<path d="M127.256 59.3274L126.103 56.638L134.786 52.8727L135.939 55.5622L127.256 59.3274Z" fill="#1C1C1C"/>
<path d="M130.714 71.1612L127.947 60.4033L130.176 59.7886L136.554 65.1675L134.94 58.8664L137.168 58.3286L139.858 68.7791L137.63 69.317L131.252 64.0149L132.942 70.7001L130.714 71.1612Z" fill="#1C1C1C"/>
<path d="M137.553 89.1422L138.091 81.6885L136.4 81.5348L135.862 88.5274L133.557 88.3737L134.095 81.3811L130.945 81.1506L131.175 78.2306L140.627 78.9222L139.858 89.2958L137.553 89.1422Z" fill="#1C1C1C"/>
<path d="M129.792 90.9096L130.714 87.9128L138.244 95.6738L137.169 99.2086L126.564 101.283L127.487 98.2096L129.254 97.8254L130.944 92.2928L129.792 90.9096ZM132.865 93.9833L131.79 97.4412L135.555 96.6728L132.865 93.9833Z" fill="#1C1C1C"/>
<path d="M124.874 104.05L126.411 101.667L134.325 106.893L131.943 110.427L125.104 109.966L128.178 116.114L125.873 119.648L117.958 114.423L119.495 112.118L125.104 115.883L121.646 108.891L122.722 107.277L130.483 107.738L124.874 104.05Z" fill="#1C1C1C"/>
<path d="M114.424 117.42L116.498 115.346L123.184 122.108L121.109 124.182L114.424 117.42Z" fill="#1C1C1C"/>
<path d="M112.118 122.338L107.046 126.103L105.663 124.259L113.04 118.727L118.726 126.334L116.421 128.101L112.118 122.338Z" fill="#1C1C1C"/>
<path d="M100.515 126.795L103.127 125.488L104.664 128.562L112.041 131.636L108.89 133.25L104.434 131.252L103.204 136.093L100.13 137.63L102.128 129.868L100.515 126.795Z" fill="#1C1C1C"/>
<path d="M73.0819 139.013L80.5356 138.859V137.169L73.4661 137.246V134.94L80.5356 134.864L80.4587 131.636L83.3787 131.559L83.5324 141.088L73.1587 141.241L73.0819 139.013Z" fill="#1C1C1C"/>
<path d="M67.9334 130.637C69.0092 130.868 69.7776 131.098 70.2387 131.329C70.6997 131.559 71.084 131.79 71.3145 132.097C71.6219 132.481 71.7755 132.865 71.8524 133.327C71.9292 133.788 71.8524 134.402 71.6987 135.094L71.084 137.63C70.9303 138.398 70.6997 139.013 70.3924 139.397C70.085 139.781 69.7776 140.089 69.3934 140.319C69.0092 140.473 68.5482 140.55 68.0103 140.55C67.4724 140.55 66.704 140.396 65.6282 140.165L62.324 139.397C61.2482 139.167 60.4797 138.936 60.0187 138.705C59.5576 138.475 59.1734 138.244 58.8661 137.937C58.5587 137.63 58.405 137.169 58.3282 136.708C58.2513 136.247 58.3282 135.632 58.4818 134.94L59.0966 132.328C59.2503 131.636 59.4808 131.021 59.7113 130.637C59.9418 130.253 60.3261 129.945 60.7103 129.715C61.0945 129.561 61.5555 129.484 62.0934 129.484C62.6313 129.484 63.3997 129.638 64.4755 129.869L67.9334 130.637ZM66.6271 132.789L64.8597 132.404C63.8608 132.174 63.1692 132.174 62.785 132.328C62.4008 132.481 62.0934 132.942 61.9397 133.634L61.6324 134.94C61.4787 135.632 61.5555 136.093 61.7861 136.477C62.0166 136.784 62.7082 137.092 63.7071 137.322L65.5513 137.707C66.5503 137.937 67.2418 137.937 67.6261 137.783C68.0103 137.63 68.2408 137.169 68.4713 136.477L68.7787 135.171C68.9324 134.479 68.8555 134.018 68.625 133.711C68.2408 133.327 67.6261 133.019 66.6271 132.789Z" fill="#1C1C1C"/>
<path d="M53.3339 125.565L55.9465 126.872L52.7192 133.25L56.2539 135.017L55.1781 137.092L45.496 132.251L46.5718 130.176L50.1065 131.943L53.3339 125.565Z" fill="#1C1C1C"/>
<path d="M45.6496 120.417C46.4948 121.109 47.1096 121.723 47.4169 122.108C47.7243 122.492 47.9548 122.953 48.0317 123.337C48.1085 123.798 48.1085 124.259 47.9548 124.643C47.8012 125.104 47.4938 125.565 47.0327 126.103L45.3422 128.101C44.8043 128.716 44.3433 129.177 43.9591 129.408C43.5748 129.638 43.1138 129.792 42.6527 129.715C42.2685 129.715 41.8075 129.561 41.3464 129.254C40.8854 128.946 40.1938 128.485 39.4254 127.794L36.8127 125.565C35.9675 124.874 35.4296 124.336 35.0454 123.875C34.6612 123.414 34.5075 123.03 34.4306 122.645C34.3538 122.184 34.3538 121.8 34.5075 121.339C34.6612 120.878 34.9685 120.34 35.4296 119.802L37.1201 117.804C37.5812 117.266 38.0422 116.805 38.4264 116.575C38.8106 116.344 39.2717 116.191 39.7327 116.268C40.1169 116.268 40.578 116.421 41.0391 116.652C41.5001 116.882 42.1917 117.42 42.9601 118.112L45.6496 120.417ZM43.498 121.723L42.1148 120.571C41.3464 119.879 40.7317 119.572 40.2706 119.572C39.8864 119.572 39.4254 119.802 38.9643 120.34L38.1191 121.339C37.658 121.877 37.5043 122.338 37.5812 122.722C37.658 123.106 38.1191 123.644 38.8875 124.336L40.3475 125.565C41.1159 126.257 41.7306 126.564 42.1917 126.564C42.5759 126.564 43.0369 126.334 43.498 125.719L44.3433 124.72C44.8043 124.182 44.958 123.721 44.8812 123.337C44.7275 122.953 44.3433 122.415 43.498 121.723Z" fill="#1C1C1C"/>
<path d="M33.3551 107.047L38.5804 114.347L30.8194 119.879L25.8246 112.887C25.2099 112.041 24.9025 111.273 24.9794 110.581C25.0562 109.89 25.4404 109.275 26.132 108.814C26.5162 108.507 26.9772 108.353 27.3615 108.353C27.7457 108.353 28.2067 108.507 28.5909 108.737C28.3604 108.199 28.2836 107.738 28.3604 107.277C28.5141 106.816 28.8215 106.432 29.4362 106.048C30.2046 105.51 30.8194 105.356 31.4341 105.51C32.1257 105.663 32.7404 106.201 33.3551 107.047ZM29.2825 111.273C29.1288 111.042 28.9751 110.966 28.8215 110.966C28.6678 110.966 28.4373 110.966 28.2067 111.119C28.053 111.273 27.8994 111.427 27.8994 111.58C27.8994 111.811 27.8994 111.964 28.053 112.118L31.0499 116.268L32.3562 115.346L29.2825 111.273ZM32.0488 108.891C31.8951 108.66 31.7415 108.583 31.5109 108.507C31.2804 108.507 31.1267 108.583 30.8962 108.737C30.6657 108.891 30.5888 109.044 30.512 109.275C30.4351 109.506 30.512 109.659 30.6657 109.89L33.7394 114.27L35.1225 113.271L32.0488 108.891Z" fill="#1C1C1C"/>
<path d="M29.974 100.515L31.2035 103.127L22.674 107.277L21.4446 104.664L29.974 100.515Z" fill="#1C1C1C"/>
<path d="M25.978 88.7581L29.2053 99.4392L26.9769 100.131L20.3685 95.0592L22.2127 101.283L19.9843 101.975L16.9106 91.6781L19.139 90.9865L25.7474 96.0581L23.7495 89.4497L25.978 88.7581Z" fill="#1C1C1C"/>
<path d="M18.4474 71.0843L18.1401 78.538L19.8306 78.6149L20.0611 71.5454L22.3664 71.6222L22.1359 78.6917L25.2864 78.8454L25.2095 81.7654L15.758 81.3812L16.1422 71.0075L18.4474 71.0843Z" fill="#1C1C1C"/>
<path d="M26.2083 69.0095L25.3631 72.0832L17.5252 64.6295L18.4473 61.0948L28.8978 58.6358L28.0525 61.7095L26.2852 62.1706L24.8252 67.7801L26.2083 69.0095ZM22.981 66.0895L23.9031 62.5548L20.2146 63.4769L22.981 66.0895Z" fill="#1C1C1C"/>
<path d="M30.5118 55.7161L29.0518 58.0982L20.9065 53.2572L23.1349 49.5688L29.9739 49.7225L26.6697 43.7288L28.8981 40.1172L37.0434 45.0351L35.5834 47.4172L29.8202 43.8825L33.5855 50.7214L32.5865 52.3351L24.7486 52.1814L30.5118 55.7161Z" fill="#1C1C1C"/>
<path d="M40.4246 42.038L38.4267 44.1895L31.434 37.7348L33.4319 35.5832L40.4246 42.038Z" fill="#1C1C1C"/>
<path d="M42.499 36.8895L47.4169 32.8937L48.8769 34.6611L41.7306 40.5011L35.7369 33.2011L37.9653 31.3569L42.499 36.8895Z" fill="#1C1C1C"/>
<path d="M53.9485 32.0486L51.4127 33.4318L49.799 30.4349L42.2685 27.6686L45.419 25.9781L49.9527 27.7455L50.9516 22.8276L53.9485 21.137L52.258 28.9749L53.9485 32.0486Z" fill="#1C1C1C"/>
<circle cx="65" cy="21" r="2" fill="#1C1C1C"/>
<circle cx="92" cy="134" r="2" fill="#1C1C1C"/>
</g>
<defs>
<clipPath id="clip0">
<rect width="124.945" height="124.792" fill="white" transform="translate(15.7578 16.5264)"/>
</clipPath>
</defs>
</svg>
