<svg width="45" height="45" viewBox="0 0 45 45" fill="none" xmlns="http://www.w3.org/2000/svg">
<path d="M44.6153 21.498L31.116 6.49886C30.828 6.18087 30.4261 6.00089 30.0001 6.00089H21.0006C20.4096 6.00089 19.8726 6.34887 19.6296 6.88884C19.3897 7.43181 19.4886 8.06477 19.8846 8.50275L32.4809 22.5L19.8846 36.4942C19.4886 36.9352 19.3867 37.5682 19.6296 38.1081C19.8726 38.6511 20.4096 38.9991 21.0006 38.9991H30.0001C30.4261 38.9991 30.828 38.8161 31.116 38.5041L44.6153 23.5049C45.1283 22.935 45.1283 22.065 44.6153 21.498Z" fill="#2B2A2A"/>
<path d="M25.1163 21.498L11.6171 6.49886C11.3291 6.18087 10.9271 6.00089 10.5011 6.00089H1.50161C0.910638 6.00089 0.373667 6.34887 0.13068 6.88884C-0.109307 7.43181 -0.0103126 8.06477 0.385666 8.50275L12.982 22.5L0.385666 36.4942C-0.0103126 36.9352 -0.112307 37.5682 0.13068 38.1081C0.373667 38.6511 0.910638 38.9991 1.50161 38.9991H10.5011C10.9271 38.9991 11.3291 38.8161 11.6171 38.5041L25.1163 23.5049C25.6293 22.935 25.6293 22.065 25.1163 21.498Z" fill="#2B2A2A"/>
</svg>
