<svg width="38" height="38" viewBox="0 0 38 38" fill="none" xmlns="http://www.w3.org/2000/svg">
<path d="M19 0L20.7282 9.75514L25.8636 1.28303L23.9511 11.0037L31.8002 4.95883L26.5054 13.3322L36.0081 10.531L28.046 16.4262L37.9189 17.2469L28.3649 19.8678L37.2747 24.1996L27.419 23.1922L34.1623 30.4501L25.3361 25.9504L29.0022 35.1541L22.3975 27.7699L22.4912 37.6765L19 28.405L15.5088 37.6765L15.6025 27.7699L8.99779 35.1541L12.6639 25.9504L3.83767 30.4501L10.581 23.1922L0.725313 24.1996L9.63512 19.8678L0.0810509 17.2469L9.95403 16.4262L1.9919 10.531L11.4946 13.3322L6.19978 4.95883L14.0489 11.0037L12.1364 1.28303L17.2718 9.75514L19 0Z" fill="#00A388"/>
</svg>
