<svg width="33" height="33" viewBox="0 0 33 33" fill="none" xmlns="http://www.w3.org/2000/svg">
<g clip-path="url(#clip0)">
<path d="M17.2348 32.718L28.2342 22.8185C28.4674 22.6073 28.5994 22.3125 28.5994 22.0001L28.5994 15.4005C28.5994 14.9671 28.3442 14.5733 27.9482 14.3951C27.55 14.2192 27.0858 14.2918 26.7647 14.5821L16.5 23.8194L6.23758 14.5821C5.91419 14.2918 5.45002 14.217 5.05404 14.3951C4.65586 14.5733 4.40068 14.9671 4.40068 15.4005L4.40068 22.0001C4.40068 22.3125 4.53487 22.6073 4.76366 22.8185L15.7631 32.718C16.181 33.0941 16.819 33.0941 17.2348 32.718Z" fill="#E7E4DA"/>
<path d="M17.2348 18.4186L28.2342 8.51918C28.4674 8.30799 28.5994 8.0132 28.5994 7.70082L28.5994 1.10118C28.5994 0.667801 28.3442 0.274022 27.9482 0.0958318C27.55 -0.0801587 27.0858 -0.00756266 26.7647 0.282822L16.5 9.52012L6.23758 0.282821C5.91419 -0.00756358 5.45002 -0.0823596 5.05404 0.0958308C4.65586 0.274021 4.40068 0.6678 4.40068 1.10118L4.40068 7.70082C4.40068 8.0132 4.53487 8.30799 4.76366 8.51917L15.7631 18.4186C16.181 18.7948 16.819 18.7948 17.2348 18.4186Z" fill="#E7E4DA"/>
</g>
<defs>
<clipPath id="clip0">
<rect width="33" height="33" fill="white" transform="translate(33) rotate(90)"/>
</clipPath>
</defs>
</svg>
