<svg width="99" height="57" viewBox="0 0 99 57" fill="none" xmlns="http://www.w3.org/2000/svg">
<g clip-path="url(#clip0)">
<path d="M10.0491 12.8765C9.74344 12.8765 9.47597 12.8001 9.20851 12.609C8.75 12.2651 8.52074 11.6538 8.71179 11.0807L9.39955 8.86453C9.51418 8.48244 9.39955 8.02393 9.05567 7.79467L7.18342 6.34272C6.72491 5.96063 6.53386 5.34929 6.72491 4.81436C6.91596 4.24122 7.45088 3.85913 8.02402 3.85913H10.3548C10.7751 3.85913 11.1572 3.59166 11.2718 3.17136L12.036 0.91702C12.227 0.382092 12.762 0 13.3351 0C13.9464 0 14.4432 0.382092 14.6342 0.95523L15.3984 3.20957C15.5512 3.59166 15.8951 3.85913 16.3154 3.89734H18.6462C19.2193 3.89734 19.7542 4.27943 19.9453 4.85257C20.1363 5.4257 19.9453 6.03705 19.4868 6.38093L17.6145 7.83288C17.3089 8.10035 17.156 8.52065 17.2706 8.90274L17.9584 11.0807C18.1495 11.6538 17.9202 12.2651 17.4617 12.609C17.0032 12.9529 16.3536 12.9529 15.8569 12.6472L13.9082 11.3099C13.5644 11.0807 13.1441 11.0807 12.8002 11.3099L10.8515 12.6472C10.584 12.8001 10.3166 12.8765 10.0491 12.8765ZM11.5393 6.41914C11.9596 7.03049 12.227 7.79467 12.227 8.52065C12.953 8.29139 13.7172 8.29139 14.4432 8.52065C14.4432 7.75646 14.7106 7.03049 15.1309 6.41914C14.405 6.18989 13.7936 5.73138 13.3351 5.12003C12.8766 5.73138 12.2652 6.18989 11.5393 6.41914Z" fill="#1C1C1C"/>
<path d="M25.2945 31.4079C24.5303 31.4079 23.9189 30.7965 23.9189 30.0324V19.7541C23.9189 19.4484 23.6515 19.1809 23.3458 19.1809H20.2891C19.1046 19.1809 17.9965 18.4932 17.4998 17.4233C17.347 17.0794 17.0031 16.8884 16.6592 16.8884H10.1636C9.78155 16.8884 9.47588 17.1176 9.32304 17.4233C8.82632 18.4932 7.75646 19.1809 6.53377 19.1809H3.36241C3.05673 19.1809 2.78927 19.4484 2.78927 19.7541V29.9941C2.78927 30.7583 2.17792 31.3697 1.41374 31.3697C0.649556 31.3697 0 30.7583 0 29.9941V19.7541C0 17.92 1.49016 16.4299 3.36241 16.4299H6.57198C6.68661 16.4299 6.76302 16.3917 6.80123 16.277C7.41258 14.9397 8.71169 14.0991 10.1636 14.0991H16.6592C18.1112 14.0991 19.4485 14.9397 20.0216 16.277C20.0598 16.3535 20.1744 16.4299 20.2509 16.4299H23.3076C25.1416 16.4299 26.67 17.92 26.67 19.7923V30.0324C26.67 30.7583 26.0587 31.4079 25.2945 31.4079Z" fill="#1C1C1C"/>
<path d="M13.3349 30.4911C10.0871 30.4911 7.45068 27.8547 7.45068 24.6069C7.45068 21.3973 10.0871 18.7227 13.3349 18.7227C16.5827 18.7227 19.2191 21.3591 19.2191 24.6069C19.2191 27.8547 16.5827 30.4911 13.3349 30.4911ZM13.3349 21.5119C11.6155 21.5119 10.24 22.8875 10.24 24.6069C10.24 26.3263 11.6155 27.7018 13.3349 27.7018C15.0543 27.7018 16.4298 26.3263 16.4298 24.6069C16.4298 22.9257 15.0543 21.5119 13.3349 21.5119Z" fill="#1C1C1C"/>
<path d="M5.04361 26.0201H1.37553C0.611347 26.0201 0 25.4088 0 24.6446C0 23.8804 0.611347 23.269 1.37553 23.269H5.0054C5.76959 23.269 6.38093 23.8804 6.38093 24.6446C6.41914 25.4088 5.8078 26.0201 5.04361 26.0201Z" fill="#1C1C1C"/>
<path d="M13.3348 36.337C9.24644 36.337 5.15805 36.0313 1.14609 35.3817C0.381905 35.2671 -0.114814 34.5411 -0.000186877 33.7769C0.114441 33.0128 0.840415 32.516 1.6046 32.6307C9.28464 33.8534 17.385 33.8534 25.065 32.6307C25.8292 32.516 26.517 33.0128 26.6698 33.7769C26.7844 34.5411 26.2877 35.2289 25.5235 35.3817C21.5498 36.0313 17.4232 36.337 13.3348 36.337Z" fill="#1C1C1C"/>
<path d="M13.3348 42.1055C9.24644 42.1055 5.15805 41.7998 1.14609 41.1503C0.381905 41.0357 -0.114814 40.3097 -0.000186877 39.5455C0.114441 38.7813 0.840415 38.2846 1.6046 38.3992C9.28464 39.6219 17.385 39.6219 25.065 38.3992C25.8292 38.2846 26.517 38.7813 26.6698 39.5455C26.7844 40.3097 26.2877 40.9974 25.5235 41.1503C21.5498 41.7998 17.4232 42.1055 13.3348 42.1055Z" fill="#1C1C1C"/>
<path d="M13.3348 46.8057C9.24644 46.8057 5.15805 46.5 1.14609 45.8505C0.381905 45.7359 -0.114814 45.0099 -0.000186877 44.2457C0.114441 43.4815 0.840415 42.9848 1.6046 43.0994C9.28464 44.3221 17.385 44.3221 25.065 43.0994C25.8292 42.9848 26.517 43.4815 26.6698 44.2457C26.7844 45.0099 26.2877 45.6976 25.5235 45.8505C21.5498 46.5 17.4232 46.8057 13.3348 46.8057Z" fill="#1C1C1C"/>
<path d="M13.3348 50.7037C9.24644 50.7037 5.15805 50.398 1.14609 49.7484C0.381905 49.6338 -0.114814 48.9078 -0.000186877 48.1436C0.114441 47.3795 0.840415 46.8827 1.6046 46.9974C9.28464 48.2201 17.385 48.2201 25.065 46.9974C25.8292 46.8827 26.517 47.3795 26.6698 48.1436C26.7844 48.9078 26.2877 49.5956 25.5235 49.7484C21.5498 50.398 17.4232 50.7037 13.3348 50.7037Z" fill="#1C1C1C"/>
<path d="M13.3348 50.7037C9.24644 50.7037 5.15805 50.398 1.14609 49.7484C0.381905 49.6338 -0.114814 48.9078 -0.000186877 48.1436C0.114441 47.3795 0.840415 46.8827 1.6046 46.9974C9.28464 48.2201 17.385 48.2201 25.065 46.9974C25.8292 46.8827 26.517 47.3795 26.6698 48.1436C26.7844 48.9078 26.2877 49.5956 25.5235 49.7484C21.5498 50.398 17.4232 50.7037 13.3348 50.7037Z" fill="#1C1C1C"/>
<path d="M13.3348 54.4478C9.24644 54.4478 5.15805 54.1421 1.14609 53.4926C0.381905 53.3779 -0.114814 52.652 -0.000186877 51.8878C0.114441 51.1236 0.840415 50.6269 1.6046 50.7415C9.28464 51.9642 17.385 51.9642 25.065 50.7415C25.8292 50.6269 26.517 51.1236 26.6698 51.8878C26.7844 52.652 26.2877 53.3397 25.5235 53.4926C21.5498 54.1421 17.4232 54.4478 13.3348 54.4478Z" fill="#1C1C1C"/>
<path d="M33.0508 34.3116V32.745L34.4263 32.2101V23.6512L33.0508 23.0781V21.5497L37.2538 21.4351H42.3738V24.9121H40.6544L40.2341 23.6512H37.2538V26.8226H41.0365V28.8476H37.2538V32.2101L38.935 32.745V34.3116H33.0508Z" fill="#1C1C1C"/>
<path d="M43.4438 29.4587C43.4438 27.8157 43.9024 26.5548 44.7812 25.6377C45.66 24.7207 46.8827 24.2622 48.3728 24.2622C49.8248 24.2622 50.9711 24.6825 51.7735 25.5613C52.5758 26.4019 52.9579 27.6246 52.9579 29.1912C52.9579 30.8342 52.4994 32.1333 51.6588 33.0503C50.78 34.0055 49.5955 34.4641 48.1054 34.4641C45.0104 34.5023 43.4438 32.8211 43.4438 29.4587ZM46.2713 29.3822C46.2713 30.3757 46.4242 31.1016 46.7298 31.5984C47.0355 32.0569 47.5322 32.2861 48.1818 32.2861C48.8696 32.2861 49.3281 32.0569 49.6719 31.5984C49.9776 31.1399 50.1305 30.3757 50.1305 29.3058C50.1305 28.3506 49.9776 27.6628 49.6719 27.1661C49.3663 26.7076 48.9078 26.4783 48.2582 26.4783C47.5704 26.4783 47.0737 26.7076 46.7298 27.1279C46.4624 27.5864 46.2713 28.3124 46.2713 29.3822Z" fill="#1C1C1C"/>
<path d="M53.9131 26.7461V24.9885L55.5943 24.7592V22.2374L58.3453 21.7407V24.7592H60.9054V26.7461H58.3453V30.8345C58.3453 31.4459 58.4218 31.8662 58.5364 32.1336C58.6892 32.4011 58.9185 32.5157 59.3006 32.5157C59.5298 32.5157 59.7591 32.4775 60.0648 32.3629C60.3704 32.2482 60.5997 32.1718 60.7525 32.0954L61.4021 33.4327C60.4086 34.1587 59.3388 34.5026 58.3071 34.5026C57.8104 34.5026 57.3519 34.4262 57.008 34.2351C56.6641 34.0823 56.3585 33.8148 56.1674 33.5092C55.9764 33.1653 55.8235 32.8214 55.7471 32.4011C55.6707 31.9808 55.6325 31.5223 55.6325 30.9491V26.7461H53.9131Z" fill="#1C1C1C"/>
<path d="M62.2046 29.4587C62.2046 27.8157 62.6631 26.5548 63.5419 25.6377C64.4207 24.7207 65.6434 24.2622 67.1336 24.2622C68.5855 24.2622 69.7318 24.6825 70.5342 25.5613C71.3366 26.4019 71.7187 27.6246 71.7187 29.1912C71.7187 30.8342 71.2602 32.1333 70.4196 33.0503C69.5408 34.0055 68.3563 34.4641 66.8661 34.4641C63.7712 34.5023 62.2046 32.8211 62.2046 29.4587ZM65.0321 29.3822C65.0321 30.3757 65.1849 31.1016 65.4906 31.5984C65.7963 32.0569 66.293 32.2861 66.9425 32.2861C67.6303 32.2861 68.0888 32.0569 68.4327 31.5984C68.7384 31.1399 68.8912 30.3757 68.8912 29.3058C68.8912 28.3506 68.7384 27.6628 68.4327 27.1661C68.127 26.7076 67.6685 26.4783 67.0189 26.4783C66.3312 26.4783 65.8345 26.7076 65.4906 27.1279C65.2231 27.5864 65.0321 28.3124 65.0321 29.3822Z" fill="#1C1C1C"/>
<path d="M72.4829 21.7791V20.3272L76.6095 20.1743V25.2561C77.4501 24.6066 78.3289 24.3009 79.2077 24.3009C80.4304 24.3009 81.3474 24.7212 81.997 25.5618C82.6465 26.4024 82.9522 27.5869 82.9522 29.1535C82.9522 30.8729 82.4937 32.2102 81.6149 33.1654C80.7361 34.1207 79.3988 34.5792 77.6794 34.5792C77.068 34.5792 76.4567 34.541 75.8453 34.4646C75.1958 34.3881 74.7372 34.3499 74.3934 34.2735L73.8966 34.1589V22.123L72.4829 21.7791ZM76.5713 32.2102C76.8388 32.3248 77.2973 32.363 77.9086 32.363C79.3606 32.363 80.0865 31.3314 80.0865 29.3063C80.0865 28.3511 79.9337 27.6633 79.6662 27.2048C79.3988 26.7463 78.9403 26.4788 78.2907 26.4788C77.9468 26.4788 77.6411 26.5553 77.3737 26.6699C77.068 26.8227 76.877 26.9373 76.7623 27.0902L76.5713 27.2812V32.2102Z" fill="#1C1C1C"/>
<path d="M84.2896 34.3125V32.8605L85.7415 32.402V26.4796L84.2896 26.0211V24.5691L88.4926 24.4927V32.4402L89.7535 32.8987V34.3507H84.2896V34.3125ZM85.6651 21.436C85.6651 20.9392 85.7797 20.5572 86.0472 20.2515C86.3146 19.9458 86.6203 19.793 87.0024 19.793C88.0341 19.793 88.5308 20.3279 88.5308 21.436C88.5308 21.9327 88.3779 22.353 88.0723 22.6587C87.7666 22.9643 87.4227 23.1172 87.0024 23.1172C86.5821 23.1172 86.2382 22.9643 86.009 22.6969C85.7797 22.3912 85.6651 21.9709 85.6651 21.436Z" fill="#1C1C1C"/>
<path d="M91.0527 34.3111V32.6299L95.6761 26.4782H93.1924L92.925 27.8155H91.2438V24.4531H98.9238V26.1725L94.3769 32.3242H97.0516L97.3573 30.7576H99.0003V34.3111H91.0527Z" fill="#1C1C1C"/>
<path d="M33.0508 52.3853V50.8187L34.4263 50.2838V41.6867L33.0508 41.1518V39.5852L37.2538 39.5088H42.3738V42.9858H40.6544L40.2341 41.6867H37.2538V44.8963H41.0365V46.8832H37.2538V50.2838L38.935 50.8187V52.3853H33.0508Z" fill="#1C1C1C"/>
<path d="M43.5586 49.7093C43.5586 48.6395 43.9407 47.8753 44.7049 47.3786C45.4691 46.8819 46.5771 46.6526 48.0291 46.6526H49.3282V45.6592C49.3282 44.7803 48.8697 44.3218 47.9144 44.3218C47.647 44.3218 47.3795 44.36 47.112 44.3983C46.8446 44.4365 46.6535 44.4747 46.5007 44.5511L46.3097 44.6275L46.0422 45.7738H44.3228L44.2081 43.0609C44.361 43.0227 44.5902 42.9463 44.8959 42.8699C45.1634 42.7935 45.6601 42.6788 46.3861 42.526C47.112 42.3732 47.7234 42.335 48.2583 42.335C49.6339 42.335 50.6273 42.6024 51.2004 43.1756C51.7736 43.7105 52.0792 44.6657 52.0792 46.003V50.5499L53.4548 50.8938V52.2311L49.7867 52.3458L49.4428 51.2377C49.4046 51.2759 49.3664 51.3141 49.29 51.3905C49.2135 51.467 49.0607 51.5434 48.8697 51.6962C48.6404 51.8491 48.4494 51.9637 48.2201 52.0783C47.9909 52.1929 47.7234 52.3076 47.4177 52.384C47.112 52.4604 46.8064 52.5368 46.5007 52.5368C45.5837 52.5368 44.8577 52.3076 44.361 51.8108C43.8261 51.3141 43.5586 50.6264 43.5586 49.7093ZM46.2714 49.4037C46.2714 49.7858 46.3479 50.0532 46.5389 50.2443C46.73 50.4353 46.9974 50.5499 47.3413 50.5499C47.5323 50.5499 47.7234 50.5117 47.9144 50.4353C48.1055 50.3589 48.2965 50.2825 48.4494 50.1678C48.6022 50.0532 48.755 49.9386 48.8697 49.8622C48.9843 49.7475 49.0989 49.6711 49.1753 49.5565L49.29 49.4419V48.1428H48.2583C47.5706 48.1428 47.0356 48.2574 46.73 48.4484C46.4243 48.6395 46.2714 48.9452 46.2714 49.4037Z" fill="#1C1C1C"/>
<path d="M54.4097 52.3842V50.9323L55.8234 50.4738V44.5513L54.4479 44.0928V42.6409L58.2688 42.5645L58.3834 43.8636C58.4216 43.8254 58.4981 43.7872 58.5745 43.7107C58.6509 43.6343 58.8037 43.5197 59.0712 43.3669C59.3004 43.214 59.5679 43.0612 59.7972 42.9083C60.0264 42.7937 60.3321 42.6791 60.676 42.5645C61.0199 42.4498 61.3255 42.4116 61.6312 42.4116C62.8539 42.4116 63.6945 42.9465 64.153 43.9782C64.2676 43.8636 64.4205 43.7489 64.5733 43.5961C64.7644 43.4433 64.9936 43.2904 65.2993 43.0994C65.605 42.9083 65.9488 42.7555 66.3309 42.6027C66.713 42.488 67.0951 42.4116 67.4772 42.4116C68.4324 42.4116 69.1202 42.6791 69.5787 43.2522C70.0372 43.8254 70.2665 44.6278 70.2665 45.6594V50.512L71.4892 50.9705V52.4224H66.5602V50.9705L67.5154 50.512V46.1561C67.5154 45.6594 67.439 45.2773 67.2479 45.0098C67.0951 44.7806 66.8276 44.6278 66.4456 44.6278C66.2163 44.6278 65.987 44.666 65.796 44.7424C65.5667 44.8188 65.3757 44.8952 65.2229 44.9716C65.07 45.0481 64.9172 45.1627 64.8026 45.2391C64.6879 45.3155 64.5733 45.3919 64.5351 45.4684L64.4587 45.583V50.4738L65.4139 50.9323V52.3842H60.7906V50.9323L61.7458 50.4738V46.1179C61.7458 45.583 61.6694 45.2391 61.5166 44.9716C61.3637 44.7424 61.0963 44.6278 60.7142 44.6278C60.4849 44.6278 60.2557 44.666 60.0646 44.7424C59.8354 44.8188 59.6443 44.8952 59.4915 44.9716C59.3387 45.0481 59.1858 45.1627 59.0712 45.2391C58.9566 45.3155 58.8419 45.3919 58.8037 45.4684L58.6891 45.583V50.4738L59.6443 50.9323V52.3842H54.4097Z" fill="#1C1C1C"/>
<path d="M72.5591 52.3847V50.9328L74.011 50.4743V44.5518L72.5591 44.0933V42.6414L76.7621 42.565V50.5125L78.023 50.971V52.4229H72.5591V52.3847ZM73.9346 39.5082C73.9346 39.0115 74.0492 38.6294 74.3167 38.3237C74.5842 38.0181 74.8898 37.8652 75.2719 37.8652C76.3036 37.8652 76.8003 38.4002 76.8003 39.5082C76.8003 40.0049 76.6475 40.4252 76.3418 40.7309C76.0361 41.0366 75.6922 41.1894 75.2719 41.1894C74.8516 41.1894 74.5077 41.0366 74.2785 40.7691C74.0492 40.4635 73.9346 40.0432 73.9346 39.5082Z" fill="#1C1C1C"/>
<path d="M78.9019 52.3836V50.8935L80.392 50.4732V40.1949L78.9019 39.8128V38.3608L83.1431 38.208V50.4732L84.7861 50.8935V52.3836H78.9019Z" fill="#1C1C1C"/>
<path d="M84.9771 44.0552V42.6033L89.8678 42.5269V44.0934L88.8362 44.2845L90.4792 49.3663L92.0457 44.3609L90.9759 44.1316V42.6797L95.9049 42.6033V44.1698L94.7586 44.3991L92.0839 51.8881C91.9311 52.2702 91.8165 52.6141 91.7019 52.9197C91.5872 53.2254 91.4344 53.5693 91.2433 53.9132C91.0523 54.2571 90.8613 54.6009 90.7084 54.8684C90.5174 55.1359 90.2881 55.4033 90.0589 55.6708C89.7914 55.9383 89.5239 56.1675 89.2565 56.3204C88.989 56.4732 88.6451 56.626 88.3012 56.7407C87.9574 56.8553 87.5753 56.8935 87.155 56.8935C86.9639 56.8935 86.7347 56.8935 86.429 56.8553C86.1233 56.8171 85.8941 56.8171 85.6648 56.7789L85.3591 56.7407L85.6266 54.7156H86.8111C87.0786 54.7156 87.346 54.6392 87.6135 54.5245C87.8427 54.4099 88.072 54.2571 88.2248 54.1424C88.3777 53.9896 88.5305 53.7986 88.6833 53.5693C88.8362 53.34 88.9508 53.149 89.0272 52.9962C89.1036 52.8815 89.1801 52.6905 89.2565 52.4612L86.0087 44.5137L84.9771 44.0552Z" fill="#1C1C1C"/>
</g>
<defs>
<clipPath id="clip0">
<rect width="99" height="56.7406" fill="white"/>
</clipPath>
</defs>
</svg>
