<svg width="40" height="40" viewBox="0 0 40 40" fill="none" xmlns="http://www.w3.org/2000/svg">
<g id="Instagram">
<path id="Combined Shape" fill-rule="evenodd" clip-rule="evenodd" d="M20 0C8.95431 0 0 8.95431 0 20C0 31.0457 8.95431 40 20 40C31.0457 40 40 31.0457 40 20C40 8.95431 31.0457 0 20 0ZM15.6027 9.39777C16.7405 9.346 17.1041 9.33333 20.001 9.33333H19.9977C22.8955 9.33333 23.2577 9.346 24.3955 9.39777C25.5311 9.44977 26.3066 9.62954 26.9866 9.8933C27.6889 10.1655 28.2822 10.5299 28.8755 11.1232C29.4689 11.7161 29.8333 12.3112 30.1067 13.0127C30.3689 13.6908 30.5489 14.4659 30.6022 15.6014C30.6533 16.7391 30.6667 17.1026 30.6667 19.9993C30.6667 22.8961 30.6533 23.2587 30.6022 24.3964C30.5489 25.5315 30.3689 26.3067 30.1067 26.9851C29.8333 27.6864 29.4689 28.2815 28.8755 28.8744C28.2829 29.4677 27.6886 29.833 26.9873 30.1054C26.3086 30.3692 25.5326 30.5489 24.397 30.6009C23.2593 30.6527 22.8968 30.6654 19.9997 30.6654C17.103 30.6654 16.7396 30.6527 15.6018 30.6009C14.4665 30.5489 13.6912 30.3692 13.0125 30.1054C12.3114 29.833 11.7162 29.4677 11.1236 28.8744C10.5305 28.2815 10.166 27.6864 9.89334 26.9849C9.62978 26.3067 9.45 25.5317 9.39778 24.3962C9.34622 23.2585 9.33333 22.8961 9.33333 19.9993C9.33333 17.1026 9.34667 16.7389 9.39756 15.6012C9.44867 14.4661 9.62867 13.6908 9.89312 13.0124C10.1665 12.3112 10.5309 11.7161 11.1242 11.1232C11.7171 10.5301 12.3123 10.1657 13.0138 9.8933C13.692 9.62954 14.4672 9.44977 15.6027 9.39777Z" fill="black"/>
<path id="Combined Shape_2" fill-rule="evenodd" clip-rule="evenodd" d="M19.044 11.2554C19.2298 11.2551 19.4297 11.2552 19.6454 11.2552L20.0009 11.2554C22.8489 11.2554 23.1865 11.2656 24.3112 11.3167C25.3512 11.3642 25.9156 11.538 26.2916 11.684C26.7894 11.8774 27.1443 12.1085 27.5174 12.4818C27.8907 12.8551 28.1219 13.2107 28.3156 13.7085C28.4616 14.084 28.6356 14.6485 28.683 15.6885C28.7341 16.813 28.7452 17.1507 28.7452 19.9974C28.7452 22.8441 28.7341 23.1819 28.683 24.3064C28.6354 25.3464 28.4616 25.9108 28.3156 26.2864C28.1223 26.7842 27.8907 27.1386 27.5174 27.5117C27.1441 27.8851 26.7896 28.1162 26.2916 28.3095C25.9161 28.4562 25.3512 28.6295 24.3112 28.6771C23.1867 28.7282 22.8489 28.7393 20.0009 28.7393C17.1526 28.7393 16.8151 28.7282 15.6906 28.6771C14.6506 28.6291 14.0862 28.4553 13.7099 28.3093C13.2121 28.116 12.8566 27.8849 12.4832 27.5115C12.1099 27.1382 11.8788 26.7835 11.685 26.2855C11.539 25.9099 11.365 25.3455 11.3177 24.3055C11.2666 23.181 11.2563 22.8433 11.2563 19.9948C11.2563 17.1463 11.2666 16.8103 11.3177 15.6858C11.3652 14.6458 11.539 14.0814 11.685 13.7054C11.8784 13.2076 12.1099 12.852 12.4832 12.4787C12.8566 12.1054 13.2121 11.8742 13.7099 11.6805C14.0859 11.5338 14.6506 11.3605 15.6906 11.3127C16.6746 11.2682 17.056 11.2549 19.044 11.2527V11.2554ZM25.6947 13.0262C24.9881 13.0262 24.4147 13.5989 24.4147 14.3058C24.4147 15.0125 24.9881 15.5858 25.6947 15.5858C26.4014 15.5858 26.9747 15.0125 26.9747 14.3058C26.9747 13.5991 26.4014 13.0258 25.6947 13.0258V13.0262ZM14.5231 19.9997C14.5231 16.9747 16.9757 14.522 20.0007 14.5219C23.0259 14.5219 25.4779 16.9746 25.4779 19.9997C25.4779 23.0249 23.0261 25.4764 20.0009 25.4764C16.9758 25.4764 14.5231 23.0249 14.5231 19.9997Z" fill="black"/>
<path id="Shape" fill-rule="evenodd" clip-rule="evenodd" d="M20.0009 16.4446C21.9645 16.4446 23.5565 18.0364 23.5565 20.0002C23.5565 21.9637 21.9645 23.5558 20.0009 23.5558C18.0371 23.5558 16.4453 21.9637 16.4453 20.0002C16.4453 18.0364 18.0371 16.4446 20.0009 16.4446V16.4446Z" fill="black"/>
</g>
</svg>
