<svg width="220" height="220" viewBox="0 0 220 220" fill="none" xmlns="http://www.w3.org/2000/svg">
<path d="M116.138 68.167L116.454 71.3907L117.75 68.4224L141.553 13.9327L128.782 72.0066L128.086 75.1701L130.236 72.7478L169.712 28.2805L139.62 79.5654L137.981 82.3591L140.774 80.7198L192.059 50.6276L147.592 90.1034L145.17 92.2539L148.333 91.5581L206.407 78.7866L151.917 102.589L148.949 103.886L152.173 104.202L211.351 110.001L152.173 115.801L148.949 116.116L151.917 117.413L206.407 141.216L148.333 128.444L145.17 127.748L147.592 129.899L192.059 169.375L140.774 139.282L137.981 137.643L139.62 140.437L169.712 191.722L130.236 147.254L128.086 144.832L128.782 147.996L141.553 206.07L117.75 151.58L116.454 148.612L116.138 151.835L110.339 211.014L104.539 151.835L104.223 148.612L102.927 151.58L79.124 206.07L91.8955 147.996L92.5913 144.832L90.4408 147.254L50.965 191.722L81.0573 140.437L82.6965 137.643L79.9028 139.282L28.6179 169.375L73.0852 129.899L75.5075 127.748L72.344 128.444L14.2701 141.216L68.7598 117.413L71.7281 116.116L68.5044 115.801L9.3262 110.001L68.5044 104.202L71.7281 103.886L68.7598 102.589L14.2701 78.7866L72.344 91.5581L75.5075 92.2539L73.0852 90.1034L28.6179 50.6276L79.9028 80.7198L82.6965 82.3591L81.0573 79.5654L50.965 28.2805L90.4408 72.7478L92.5913 75.1701L91.8955 72.0066L79.124 13.9327L102.927 68.4224L104.223 71.3907L104.539 68.167L110.339 8.9888L116.138 68.167Z" stroke="#FFCC80" stroke-width="1.6871"/>
</svg>
