<?xml version="1.0" encoding="UTF-8" standalone="no"?>
<svg
   xmlns:dc="http://purl.org/dc/elements/1.1/"
   xmlns:cc="http://creativecommons.org/ns#"
   xmlns:rdf="http://www.w3.org/1999/02/22-rdf-syntax-ns#"
   xmlns:svg="http://www.w3.org/2000/svg"
   xmlns="http://www.w3.org/2000/svg"
   xmlns:sodipodi="http://sodipodi.sourceforge.net/DTD/sodipodi-0.dtd"
   xmlns:inkscape="http://www.inkscape.org/namespaces/inkscape"
   width="108"
   height="108"
   viewBox="0 0 108 108"
   fill="none"
   version="1.1"
   id="svg69"
   sodipodi:docname="circle.svg"
   inkscape:version="1.0.2 (e86c870879, 2021-01-15, custom)">
  <metadata
     id="metadata73">
    <rdf:RDF>
      <cc:Work
         rdf:about="">
        <dc:format>image/svg+xml</dc:format>
        <dc:type
           rdf:resource="http://purl.org/dc/dcmitype/StillImage" />
      </cc:Work>
    </rdf:RDF>
  </metadata>
  <sodipodi:namedview
     pagecolor="#ffffff"
     bordercolor="#666666"
     borderopacity="1"
     objecttolerance="10"
     gridtolerance="10"
     guidetolerance="10"
     inkscape:pageopacity="0"
     inkscape:pageshadow="2"
     inkscape:window-width="1366"
     inkscape:window-height="705"
     id="namedview71"
     showgrid="false"
     inkscape:zoom="0.69564903"
     inkscape:cx="-225.32468"
     inkscape:cy="10.549441"
     inkscape:window-x="-8"
     inkscape:window-y="-8"
     inkscape:window-maximized="1"
     inkscape:current-layer="svg69" />
  <circle
     cx="53.5653"
     cy="54.3939"
     r="53.5653"
     fill="#FFCC80"
     id="circle2" />
  <g
     clip-path="url(#clip0)"
     id="g62"
     transform="translate(-0.13205001,-0.60734818)">
    <path
       d="m 58.8951,14.0252 -5.1187,-0.1583 -0.0528,1.1609 4.8549,0.1583 -0.0528,1.5831 -4.8549,-0.1583 -0.0527,2.1636 -2.0053,-0.0528 0.2638,-6.5435 7.124,0.2111 z"
       fill="#0e0e0e"
       id="path4" />
    <path
       d="m 62.1671,19.8295 c -0.7388,-0.2111 -1.2665,-0.3694 -1.5831,-0.5277 -0.3166,-0.1583 -0.5805,-0.3694 -0.7388,-0.5805 -0.2111,-0.2638 -0.3166,-0.5277 -0.3166,-0.8443 -0.0528,-0.3166 0,-0.7388 0.1583,-1.2137 l 0.4749,-1.7414 c 0.1583,-0.5277 0.3166,-0.9499 0.5277,-1.2137 0.2111,-0.2639 0.4222,-0.475 0.7388,-0.5805 0.2639,-0.1055 0.5805,-0.1583 0.9499,-0.1055 0.3694,0.0527 0.8971,0.1583 1.6358,0.3166 l 2.2692,0.6332 c 0.7387,0.2111 1.2664,0.3694 1.5831,0.5277 0.3166,0.1583 0.5804,0.3694 0.7387,0.5805 0.2111,0.2639 0.2639,0.5277 0.3167,0.8443 0,0.3166 -0.0528,0.7388 -0.1583,1.2137 l -0.475,1.7415 c -0.1583,0.4749 -0.3166,0.8443 -0.4749,1.1609 -0.2111,0.2638 -0.4222,0.4749 -0.686,0.5805 -0.2639,0.1055 -0.5805,0.1583 -0.9499,0.1055 -0.3694,-0.0528 -0.8971,-0.1583 -1.6359,-0.3166 z m 0.9498,-1.4248 1.2138,0.3166 c 0.686,0.2111 1.1609,0.2111 1.4248,0.1056 0.2638,-0.1056 0.4749,-0.3694 0.5804,-0.8443 l 0.2639,-0.8971 c 0.1055,-0.475 0.1055,-0.7916 -0.0528,-1.0554 -0.1583,-0.2111 -0.5805,-0.4222 -1.2665,-0.6333 l -1.2137,-0.3166 c -0.686,-0.2111 -1.1609,-0.2111 -1.4248,-0.1055 -0.3166,0.1583 -0.5277,0.4221 -0.6332,0.8971 l -0.2639,0.897 c -0.1055,0.475 -0.1055,0.7916 0.1056,1.0027 0.211,0.2111 0.5804,0.4749 1.2664,0.6332 z"
       fill="#0e0e0e"
       id="path6" />
    <path
       d="m 72.0349,23.7344 -1.7414,-0.9498 2.3746,-4.3272 -2.3746,-1.3192 0.7915,-1.4248 6.5435,3.5883 -0.7915,1.4248 -2.3747,-1.3192 z"
       fill="#0e0e0e"
       id="path8" />
    <path
       d="m 77.1537,27.4813 c -0.5804,-0.5277 -0.9498,-0.897 -1.1609,-1.2137 -0.2111,-0.3166 -0.3694,-0.5804 -0.4222,-0.8443 -0.0527,-0.3166 -0.0527,-0.6332 0.1056,-0.8971 0.1583,-0.2638 0.3694,-0.6332 0.686,-1.0026 l 1.2137,-1.3193 c 0.3694,-0.4221 0.686,-0.686 1.0026,-0.8443 0.3166,-0.1583 0.5805,-0.2111 0.8971,-0.2111 0.2639,0 0.5805,0.1583 0.8971,0.3166 0.3166,0.2111 0.7388,0.5277 1.3193,1.0555 l 1.7414,1.5831 c 0.5277,0.4749 0.9498,0.897 1.1609,1.2137 0.2111,0.3166 0.3694,0.5804 0.4222,0.8443 0.0528,0.3166 0,0.5805 -0.1056,0.8971 -0.1055,0.3166 -0.3693,0.6332 -0.686,1.0026 l -1.2137,1.3193 c -0.3166,0.3694 -0.6332,0.6332 -0.9498,0.7915 -0.3167,0.1583 -0.5805,0.2111 -0.8971,0.2111 -0.2639,0 -0.5805,-0.1055 -0.8971,-0.3166 -0.3166,-0.2111 -0.7388,-0.5277 -1.3193,-1.0554 z m 1.4776,-0.8443 0.9499,0.8443 c 0.5277,0.475 0.9498,0.7388 1.2137,0.7388 0.2638,0 0.5804,-0.1583 0.8971,-0.4749 l 0.6332,-0.686 c 0.3166,-0.3694 0.4749,-0.686 0.4222,-0.9499 -0.0528,-0.2638 -0.3167,-0.686 -0.8444,-1.1609 l -0.9498,-0.8443 c -0.5277,-0.475 -0.9499,-0.7388 -1.2137,-0.7388 -0.2639,0 -0.5805,0.1583 -0.9499,0.5277 l -0.6332,0.686 c -0.3167,0.3694 -0.4222,0.686 -0.3694,0.9498 0.0527,0.2639 0.3694,0.6333 0.8443,1.1082 z"
       fill="#0e0e0e"
       id="path10" />
    <path
       d="m 85.2269,36.9796 -3.3773,-5.1715 5.4353,-3.5884 3.219,4.9077 c 0.4222,0.6332 0.5805,1.1609 0.5277,1.6358 -0.0528,0.475 -0.3166,0.8443 -0.8443,1.2137 -0.3166,0.2111 -0.5805,0.2639 -0.8443,0.2639 -0.2639,0 -0.5277,-0.1055 -0.8444,-0.3166 0.1584,0.3694 0.2111,0.7388 0.1056,1.0026 -0.1056,0.3166 -0.3694,0.5805 -0.7388,0.8443 -0.5277,0.3166 -1.0026,0.4222 -1.372,0.3166 -0.475,-0.1055 -0.8971,-0.4749 -1.2665,-1.1081 z m 0.9499,-1.2137 c 0.1055,0.1583 0.211,0.211 0.3694,0.2638 0.1583,0 0.2638,0 0.4749,-0.1055 0.1583,-0.1056 0.2111,-0.2111 0.2638,-0.3694 0.0528,-0.1583 0,-0.2639 -0.1055,-0.4222 l -2.0053,-3.0607 -1.0026,0.6333 z m 2.0052,-1.5304 c 0.1056,0.1583 0.2111,0.2111 0.3166,0.2639 0.1056,0 0.2639,0 0.4222,-0.1056 0.1583,-0.1055 0.2111,-0.211 0.2639,-0.3166 0.0527,-0.1583 0,-0.2638 -0.0528,-0.3694 l -1.8997,-2.9023 -0.8971,0.5804 z"
       fill="#0e0e0e"
       id="path12" />
    <path
       d="m 87.3907,41.5709 -0.7916,-1.847 5.963,-2.5857 0.7916,1.8469 z"
       fill="#0e0e0e"
       id="path14" />
    <path
       d="m 89.7655,49.6974 -1.8998,-7.3878 1.5304,-0.4222 4.3799,3.6939 -1.1082,-4.3271 1.5303,-0.3694 1.847,7.1767 -1.5303,0.3694 -4.38,-3.6411 1.161,4.591 z"
       fill="#0e0e0e"
       id="path16" />
    <path
       d="m 94.4626,62.0456 0.3693,-5.1187 -1.1609,-0.1055 -0.3694,4.802 -1.5831,-0.1055 0.3694,-4.8021 -2.1636,-0.1583 0.1583,-2.0053 6.4908,0.475 -0.5277,7.1239 z"
       fill="#0e0e0e"
       id="path18" />
    <path
       d="m 89.1324,63.2597 0.6332,-2.058 5.1715,5.3297 -0.7388,2.4275 -7.2823,1.4248 0.6333,-2.1108 1.2137,-0.2639 1.1609,-3.7994 z m 2.1108,2.1108 -0.7388,2.3747 2.5857,-0.5277 z"
       fill="#0e0e0e"
       id="path20" />
    <path
       d="m 85.7552,72.2828 1.0554,-1.6358 5.4353,3.5883 -1.6359,2.4275 -4.6965,-0.3167 2.1108,4.2217 -1.5831,2.4274 -5.4353,-3.5884 1.0554,-1.5831 3.8522,2.5858 -2.3747,-4.8021 0.7388,-1.1082 5.3298,0.3166 z"
       fill="#0e0e0e"
       id="path22" />
    <path
       d="m 78.5786,81.4653 1.4248,-1.4248 4.591,4.6438 -1.4248,1.4248 z"
       fill="#0e0e0e"
       id="path24" />
    <path
       d="m 76.9952,84.843 -3.4828,2.5857 -0.9499,-1.2665 5.0659,-3.7994 3.905,5.2242 -1.5831,1.2138 z"
       fill="#0e0e0e"
       id="path26" />
    <path
       d="m 69.0265,87.903 1.7942,-0.8971 1.0554,2.1108 5.066,2.1108 -2.1636,1.1081 -3.0607,-1.372 -0.8443,3.3245 -2.1108,1.0554 1.372,-5.3297 z"
       fill="#0e0e0e"
       id="path28" />
    <path
       d="m 50.1875,96.294 5.1187,-0.1055 v -1.161 l -4.8548,0.0528 v -1.5831 l 4.8548,-0.0528 -0.0528,-2.2163 2.0053,-0.0528 0.1055,6.5435 -7.1239,0.1055 z"
       fill="#0e0e0e"
       id="path30" />
    <path
       d="m 46.6521,90.5416 c 0.7388,0.1583 1.2665,0.3166 1.5831,0.4749 0.3167,0.1583 0.5805,0.3166 0.7388,0.5277 0.2111,0.2638 0.3166,0.5277 0.3694,0.8443 0.0528,0.3166 0,0.7388 -0.1055,1.2137 l -0.4222,1.7414 c -0.1055,0.5277 -0.2638,0.9499 -0.4749,1.2137 -0.2111,0.2639 -0.4222,0.475 -0.686,0.6333 -0.2639,0.1055 -0.5805,0.1583 -0.9499,0.1583 -0.3694,0 -0.8971,-0.1055 -1.6359,-0.2639 l -2.2691,-0.5277 c -0.7388,-0.1583 -1.2665,-0.3166 -1.5831,-0.4749 -0.3166,-0.1583 -0.5805,-0.3166 -0.7916,-0.5277 -0.211,-0.2111 -0.3166,-0.5277 -0.3693,-0.8443 -0.0528,-0.3166 0,-0.7388 0.1055,-1.2137 l 0.4222,-1.7942 c 0.1055,-0.4749 0.2638,-0.8971 0.4221,-1.1609 0.1583,-0.2639 0.4222,-0.475 0.686,-0.6333 0.2639,-0.1055 0.5805,-0.1583 0.9499,-0.1583 0.3694,0 0.8971,0.1055 1.6359,0.2639 z m -0.8971,1.4775 -1.2137,-0.2638 c -0.686,-0.1583 -1.1609,-0.1583 -1.4248,-0.0528 -0.2638,0.1055 -0.4749,0.4222 -0.5804,0.8971 l -0.2111,0.8971 c -0.1056,0.4749 -0.0528,0.7915 0.1055,1.0554 0.1583,0.2111 0.6333,0.4221 1.3193,0.5805 l 1.2665,0.2638 c 0.686,0.1583 1.1609,0.1583 1.4247,0.0528 0.2639,-0.1056 0.4222,-0.4222 0.5805,-0.8971 l 0.2111,-0.8971 c 0.1055,-0.4749 0.0528,-0.7916 -0.1055,-1.0026 -0.2639,-0.2639 -0.6861,-0.475 -1.3721,-0.6333 z"
       fill="#0e0e0e"
       id="path32" />
    <path
       d="m 36.6262,87.0591 1.7942,0.8971 -2.2164,4.3799 2.4275,1.2137 -0.7388,1.4248 -6.649,-3.3245 0.7387,-1.4248 2.4275,1.2137 z"
       fill="#0e0e0e"
       id="path34" />
    <path
       d="m 31.349,83.5235 c 0.5804,0.4749 1.0026,0.8971 1.2137,1.1609 0.2111,0.2639 0.3694,0.5805 0.4221,0.8443 0.0528,0.3167 0.0528,0.6333 -0.0527,0.8971 -0.1056,0.3166 -0.3166,0.6333 -0.6333,1.0027 l -1.1609,1.372 c -0.3694,0.4221 -0.686,0.7388 -0.9499,0.8971 -0.2638,0.1583 -0.5804,0.2638 -0.8971,0.2111 -0.2638,0 -0.5804,-0.1056 -0.8971,-0.3167 -0.3166,-0.211 -0.7915,-0.5277 -1.3192,-1.0026 l -1.7942,-1.5303 c -0.5805,-0.475 -0.9499,-0.8444 -1.2137,-1.161 -0.2639,-0.3166 -0.3694,-0.5804 -0.4222,-0.8443 -0.0527,-0.3166 -0.0527,-0.5805 0.0528,-0.8971 0.1055,-0.3166 0.3166,-0.686 0.6332,-1.0554 l 1.161,-1.372 c 0.3166,-0.3694 0.6332,-0.686 0.8971,-0.8443 0.2638,-0.1583 0.5804,-0.2639 0.8971,-0.2111 0.2638,0 0.5804,0.1055 0.8971,0.2638 0.3166,0.1583 0.7915,0.5277 1.3192,1.0027 z m -1.4776,0.8971 -0.9499,-0.7916 c -0.5277,-0.4749 -0.9498,-0.686 -1.2664,-0.686 -0.2639,0 -0.5805,0.1583 -0.8971,0.5277 l -0.5805,0.686 c -0.3166,0.3694 -0.4222,0.686 -0.3694,0.9499 0.0528,0.2638 0.3694,0.6332 0.8971,1.1082 l 1.0026,0.8443 c 0.5277,0.4749 0.9499,0.686 1.2665,0.686 0.2639,0 0.5805,-0.1583 0.8971,-0.5805 l 0.5805,-0.686 c 0.3166,-0.3694 0.4221,-0.686 0.3694,-0.9499 -0.1056,-0.2638 -0.3694,-0.6332 -0.9499,-1.1081 z"
       fill="#0e0e0e"
       id="path36" />
    <path
       d="m 22.9059,74.3418 3.5884,5.0131 -5.3298,3.7995 -3.4301,-4.8021 c -0.4221,-0.5805 -0.6332,-1.1082 -0.5804,-1.5831 0.0527,-0.475 0.3166,-0.8971 0.7915,-1.2137 0.2639,-0.2111 0.5805,-0.3167 0.8443,-0.3167 0.2639,0 0.5805,0.1056 0.8444,0.2639 -0.1583,-0.3694 -0.2111,-0.686 -0.1583,-1.0026 0.1055,-0.3167 0.3166,-0.5805 0.7387,-0.8444 0.5277,-0.3694 0.9499,-0.4749 1.3721,-0.3694 0.4749,0.1056 0.8971,0.475 1.3192,1.0555 z m -2.7968,2.9023 C 20.0036,77.0858 19.898,77.033 19.7925,77.033 c -0.1056,0 -0.2639,0 -0.4222,0.1056 -0.1055,0.1055 -0.2111,0.211 -0.2111,0.3166 0,0.1583 0,0.2638 0.1056,0.3694 l 2.058,2.8496 0.8971,-0.6333 z m 1.8997,-1.6359 c -0.1055,-0.1583 -0.2111,-0.211 -0.3694,-0.2638 -0.1583,0 -0.2638,0.0528 -0.4221,0.1583 -0.1583,0.1055 -0.2111,0.2111 -0.2639,0.3694 -0.0528,0.1583 0,0.2638 0.1056,0.4221 l 2.1108,3.0079 0.9498,-0.686 z"
       fill="#0e0e0e"
       id="path38" />
    <path
       d="m 20.5841,69.856 0.8443,1.7941 -5.8575,2.8496 -0.8443,-1.7942 z"
       fill="#0e0e0e"
       id="path40" />
    <path
       d="m 17.8397,61.7817 2.2163,7.3351 -1.5303,0.4749 -4.5382,-3.4828 1.2664,4.2744 -1.5303,0.4749 -2.1108,-7.0712 1.5303,-0.4749 4.5383,3.4828 -1.3721,-4.5382 z"
       fill="#0e0e0e"
       id="path42" />
    <path
       d="m 12.6682,49.6451 -0.211,5.1187 1.1609,0.0527 0.1583,-4.8548 1.5831,0.0527 -0.1583,4.8549 2.1636,0.1055 -0.0528,2.0053 -6.4907,-0.2638 0.2638,-7.124 z"
       fill="#0e0e0e"
       id="path44" />
    <path
       d="m 17.9977,48.2197 -0.5805,2.1108 -5.3825,-5.1187 0.6332,-2.4275 7.1768,-1.6886 -0.5805,2.1108 -1.2137,0.3166 -1.0027,3.8523 z m -2.2164,-2.0053 0.6333,-2.4274 -2.533,0.6332 z"
       fill="#0e0e0e"
       id="path46" />
    <path
       d="m 20.9537,39.0912 -1.0026,1.6359 -5.5937,-3.3245 1.5304,-2.533 4.6965,0.1056 -2.2691,-4.1161 1.5303,-2.4802 5.5937,3.3773 -1.0027,1.6359 -3.9577,-2.4275 2.5857,4.6966 -0.686,1.1082 -5.3826,-0.1056 z"
       fill="#0e0e0e"
       id="path48" />
    <path
       d="m 27.761,29.6978 -1.372,1.4776 -4.8021,-4.4327 1.372,-1.4776 z"
       fill="#0e0e0e"
       id="path50" />
    <path
       d="m 29.1853,26.1622 3.3773,-2.744 1.0026,1.2137 -4.9076,4.0105 -4.1161,-5.0131 1.5303,-1.2665 z"
       fill="#0e0e0e"
       id="path52" />
    <path
       d="m 37.0479,22.8376 -1.7414,0.9499 -1.1082,-2.0581 -5.1714,-1.8997 2.1635,-1.1609 3.1135,1.2137 0.686,-3.3773 2.058,-1.161 -1.1609,5.3826 z"
       fill="#0e0e0e"
       id="path54" />
    <path
       d="m 54.2522,50.9609 c 0,-0.3792 -0.3075,-0.6867 -0.6868,-0.6867 -0.3792,0 -0.6867,0.3075 -0.6867,0.6867 z m -1.1724,8.7265 c 0.2682,0.2681 0.703,0.2681 0.9712,0 l 4.3704,-4.3704 c 0.2682,-0.2682 0.2682,-0.703 0,-0.9712 -0.2682,-0.2682 -0.703,-0.2682 -0.9712,0 l -3.8848,3.8848 -3.8847,-3.8848 c -0.2682,-0.2682 -0.703,-0.2682 -0.9712,0 -0.2682,0.2682 -0.2682,0.703 0,0.9712 z m -0.2011,-8.7265 v 8.2409 h 1.3735 v -8.2409 z"
       fill="#0e0e0e"
       id="path56" />
    <circle
       cx="44.6376"
       cy="15.2499"
       r="1.3734699"
       fill="#0e0e0e"
       id="circle58" />
    <circle
       cx="63.1796"
       cy="92.850998"
       r="1.3734699"
       fill="#0e0e0e"
       id="circle60" />
  </g>
  <defs
     id="defs67">
    <clipPath
       id="clip0">
      <rect
         width="85.8043"
         height="85.6987"
         fill="white"
         transform="translate(10.8213 12.1777)"
         id="rect64" />
    </clipPath>
  </defs>
</svg>
