<svg width="11" height="12" viewBox="0 0 11 12" fill="none" xmlns="http://www.w3.org/2000/svg">
<path d="M8.77824 1.29289C9.16877 0.902369 9.80193 0.902369 10.1925 1.29289C10.583 1.68342 10.583 2.31658 10.1925 2.70711L8.77824 1.29289ZM1.00007 11.4853C0.447785 11.4853 6.9353e-05 11.0376 6.97789e-05 10.4853L6.99896e-05 1.48528C7.00362e-05 0.932996 0.447785 0.485281 1.00007 0.485281C1.55235 0.485281 2.00007 0.932996 2.00007 1.48528L2.00007 9.48528L10.0001 9.48528C10.5524 9.48528 11.0001 9.933 11.0001 10.4853C11.0001 11.0376 10.5524 11.4853 10.0001 11.4853L1.00007 11.4853ZM10.1925 2.70711L1.70718 11.1924L0.292963 9.77817L8.77824 1.29289L10.1925 2.70711Z" fill="#FFCC80"/>
</svg>
