<svg width="45" height="45" viewBox="0 0 45 45" fill="none" xmlns="http://www.w3.org/2000/svg">
<path d="M0.384729 23.502L13.884 38.5012C14.172 38.8192 14.574 38.9991 14.9999 38.9991L23.9994 38.9991C24.5904 38.9991 25.1274 38.6512 25.3704 38.1112C25.6104 37.5682 25.5114 36.9353 25.1154 36.4973L12.5191 22.5L25.1154 8.5058C25.5114 8.06482 25.6134 7.43186 25.3704 6.89188C25.1274 6.34892 24.5904 6.00093 23.9994 6.00093L14.9999 6.00093C14.574 6.00093 14.172 6.18392 13.884 6.49591L0.384729 21.4951C-0.128243 22.0651 -0.128243 22.935 0.384729 23.502Z" fill="#E7E4DA"/>
<path d="M19.8837 23.502L33.3829 38.5012C33.6709 38.8192 34.0729 38.9991 34.4989 38.9991L43.4984 38.9991C44.0894 38.9991 44.6263 38.6512 44.8693 38.1112C45.1093 37.5682 45.0103 36.9353 44.6143 36.4973L32.018 22.5L44.6143 8.5058C45.0103 8.06482 45.1123 7.43186 44.8693 6.89188C44.6263 6.34892 44.0894 6.00093 43.4984 6.00093L34.4989 6.00093C34.0729 6.00093 33.6709 6.18392 33.3829 6.49591L19.8837 21.4951C19.3707 22.0651 19.3707 22.935 19.8837 23.502Z" fill="#E7E4DA"/>
</svg>
