<svg width="396" height="411" viewBox="0 0 396 411" fill="none" xmlns="http://www.w3.org/2000/svg">
<path fill-rule="evenodd" clip-rule="evenodd" d="M311.6 114.291C314.576 116.403 315.933 118.604 318.455 119.262C333.794 123.28 341.589 93.3257 323.156 89.7485C319.752 89.0013 315.755 88.6972 313.114 90.5935C308.898 93.8901 302.668 105.788 306.224 111.13C307.293 112.798 310.347 113.208 311.6 114.291Z" fill="#F7F7F7"/>
<path fill-rule="evenodd" clip-rule="evenodd" d="M254.246 89.3039C252.689 89.1966 249.925 89.3191 248.595 89.9386C245.935 91.1776 245.367 94.4387 243.178 95.6249C240.989 96.8111 239.245 95.1261 237.814 96.7914C232.215 103.063 240.493 116.521 248.402 118.83C265.943 124.478 272.559 91.7617 254.246 89.3039Z" fill="#F7F7F7"/>
<path fill-rule="evenodd" clip-rule="evenodd" d="M155.619 106.176C163.232 112.266 166.37 107.315 170.47 102.913C173.264 99.7834 176.101 97.9631 177.015 95.0448C178.417 90.57 177.547 84.6608 174.272 81.3683C173.432 80.4302 171.674 80.2521 170.426 79.1722C167.519 76.8707 167.555 73.8633 162.486 73.4001C162.281 73.3292 162.077 73.2585 161.955 73.6476C156.825 73.379 151.203 72.5085 149.888 79.6015C143.496 81.9149 135.497 88.6324 138.598 96.825C140.734 102.31 148.161 106.826 155.619 106.176Z" fill="#F7F7F7"/>
<path fill-rule="evenodd" clip-rule="evenodd" d="M194.291 124.397C195.52 124.823 197.115 124.08 199.818 124.152C202.52 124.225 204.773 125.006 205.92 124.971C211.303 124.461 221.054 117.255 222.376 112.313C224.308 105.421 217.41 94.8209 210.284 93.647C205.328 92.7933 204.595 95.1317 199.644 96.4397C196.697 97.1466 194.322 96.7553 193.463 97.3218C187.43 100.631 188.693 108.198 189.441 114.506C190.186 118.653 190.255 122.782 194.291 124.397Z" fill="#F7F7F7"/>
<path fill-rule="evenodd" clip-rule="evenodd" d="M102.535 98.7738C108.366 96.894 112.383 91.3523 112.064 85.8256C112.021 84.5106 108.247 76.9204 107.259 75.7114C100.918 68.3151 93.4941 75.2763 91.6382 82.6496C90.4781 88.5307 93.0835 97.666 102.535 98.7738Z" fill="#F7F7F7"/>
<path fill-rule="evenodd" clip-rule="evenodd" d="M280.765 169.839C299.159 180.108 306.579 144.817 287.398 141.415C269.366 137.978 269.126 163.425 280.765 169.839Z" fill="#F7F7F7"/>
<path fill-rule="evenodd" clip-rule="evenodd" d="M329.372 192.758C330.284 195.678 330.844 198.259 334.408 199.276C337.766 200.222 340.152 198.443 341.792 194.671C353.669 192.489 361.379 175.193 352.88 166.609C348.032 161.675 338.106 161.277 332.862 164.887C328.421 168.124 325.227 178.303 326.476 185.245C326.83 187.755 328.544 190.301 329.372 192.758Z" fill="#F7F7F7"/>
<path fill-rule="evenodd" clip-rule="evenodd" d="M203.636 151.59C202.737 153.007 202.475 155.294 201.332 157.491C200.577 159.175 199.186 159.989 198.758 161.354C197.009 167.664 202.799 175.29 207.534 177.58C217.21 182.23 227.211 174.242 230.025 167.437C233.982 158.434 228.681 149.248 220.055 147.771C213.457 146.349 206.536 147.408 203.636 151.59Z" fill="#F7F7F7"/>
<path fill-rule="evenodd" clip-rule="evenodd" d="M154.411 134.31C152.381 136.424 148.245 144.527 147.715 146.944C146.878 150.338 148.846 158.604 151.873 162.037C162.232 174.077 175.523 160.043 177.087 149.966C178.182 142.111 171.384 133.255 164.825 131.633C161.001 130.742 156.893 131.486 154.411 134.31Z" fill="#F7F7F7"/>
<path fill-rule="evenodd" clip-rule="evenodd" d="M97.6153 143.835C106.008 158.425 127.536 147.065 124.002 132.213C131.861 124.553 119.295 114.573 109.891 118.453C105.957 120.118 105.184 123.311 101.556 124.001C87.465 121.065 98.0353 138.14 97.6153 143.835Z" fill="#F7F7F7"/>
<path fill-rule="evenodd" clip-rule="evenodd" d="M254.988 222.703C264.384 228.986 274.25 222.892 281.514 217.843C287.654 213.485 307.228 194.54 289.128 190.645C280.211 188.635 276.226 194.822 269.159 195.615C268.688 195.668 265.08 194.85 263.871 195.08C255.617 196.759 243.725 215.123 254.988 222.703Z" fill="#F7F7F7"/>
<path fill-rule="evenodd" clip-rule="evenodd" d="M59.755 146.287C74.2526 150.878 78.5487 121.192 63.5614 118.164C56.3343 116.526 49.7353 121.6 49.1964 129.856C48.999 134.117 55.3812 144.988 59.755 146.287Z" fill="#F7F7F7"/>
<path fill-rule="evenodd" clip-rule="evenodd" d="M348.615 240.257C353.738 242.032 359.424 238.385 360.951 233.512C362.844 227.469 358.86 221.334 352.795 219.664C338.351 215.737 339.127 237.184 348.615 240.257Z" fill="#F7F7F7"/>
<path fill-rule="evenodd" clip-rule="evenodd" d="M308.356 256.066C314.843 256.371 322.912 249.451 324.29 242.155C325.424 235.638 321.094 229.171 313.397 226.935C305.904 224.769 300.057 227.493 297.464 230.697C288.296 241.123 296.118 255.279 308.356 256.066Z" fill="#F7F7F7"/>
<path fill-rule="evenodd" clip-rule="evenodd" d="M208.91 206.471C204.938 205.969 198.079 210.999 196.863 213.408C195.462 216.406 195.761 221.297 195.831 225.456C196.177 233.845 197.227 253.142 207.181 255.058C214.113 256.365 217.51 247.746 218.983 238.679C220.513 227.238 222.256 207.818 208.91 206.471Z" fill="#F7F7F7"/>
<path fill-rule="evenodd" clip-rule="evenodd" d="M118.898 179.151C111.494 177.447 107.128 181.975 101.673 184.184C95.1568 186.887 88.884 188.812 86.1796 196.721C83.8724 198.295 81.6438 198.169 81.0164 201.62C79.9623 206.433 84.2759 206.418 88.8374 207.783C89.6557 208.067 92.5414 209.714 93.6252 209.874C100.067 211.029 106.07 207.069 111.747 203.427C117.158 199.908 125.246 195.808 126.605 190.022C127.355 186.182 124.809 180.553 118.898 179.151Z" fill="#F7F7F7"/>
<path fill-rule="evenodd" clip-rule="evenodd" d="M65.9264 163.825C61.3067 163.307 60.7774 165.722 58.4429 168.811C56.8254 171.065 54.8149 171.668 54.2027 173.621C53.468 175.965 53.8038 179.979 55.9231 182.662C57.4044 184.474 63.7148 189.042 65.4193 189.416C72.3201 191.374 72.1858 185.265 73.5939 180.773C74.0837 179.21 75.3555 178.785 75.395 177.932C76.4713 171.593 72.1063 164.451 65.9264 163.825Z" fill="#F7F7F7"/>
<path fill-rule="evenodd" clip-rule="evenodd" d="M163.979 206.118C161.614 205.729 159.211 206.186 157.172 205.479C155.337 204.843 154.6 202.868 152.236 202.478C147.772 201.576 141.198 205.964 138.252 210.318C136.911 212.433 133.682 218.409 133.522 219.644C132.514 225.745 139.26 226.578 144.336 227.692C146.232 228.134 148.088 229.423 150.249 229.741C156.669 230.892 164.284 227.51 167.902 223.174C173.656 216.353 174.863 208.171 163.979 206.118Z" fill="#F7F7F7"/>
<path fill-rule="evenodd" clip-rule="evenodd" d="M332.392 264.355C330.013 263.963 327.922 264.104 326.324 264.848C321.325 267.009 313.473 278.999 316.026 284.643C320.905 295.203 339.211 292.678 342.737 280.703C344.467 273.731 341.971 265.727 332.392 264.355Z" fill="#F7F7F7"/>
<path fill-rule="evenodd" clip-rule="evenodd" d="M266.965 250.96C263.068 250.263 256.538 252.129 254.049 254.959C248.597 260.673 250.9 268.637 251.035 274.764C251.039 276.937 250.486 278.7 250.613 280.481C251.301 284.845 255.307 288.837 258.278 290.3C278.143 299.129 285.067 253.75 266.965 250.96Z" fill="#F7F7F7"/>
<path fill-rule="evenodd" clip-rule="evenodd" d="M293.138 289.492C286.713 288.992 279.699 291.095 277.58 296.407C275.889 300.356 275.797 305.722 277.622 307.866C280.923 311.818 290.948 310.974 294.607 309.435C299.269 307.596 309.834 300.678 310.62 293.825C311.462 284.616 297.343 284.04 293.138 289.492Z" fill="#F7F7F7"/>
<path fill-rule="evenodd" clip-rule="evenodd" d="M50.2431 222.028C52.2305 214.961 47.8856 205.698 38.7584 204.473C34.2253 203.764 26.4534 206.887 25.3143 209.077C23.6057 212.363 25.0652 217.824 25.5995 219.733C28.8838 229.489 46.8554 233.565 50.2431 222.028Z" fill="#F7F7F7"/>
<path fill-rule="evenodd" clip-rule="evenodd" d="M240.527 280.383C239.144 275.361 237.52 273.283 231.94 272.215C229.356 271.752 226.915 271.555 224.845 272.353C216.383 276.127 217.419 293.144 225.588 296.841C232.73 300.181 240.594 294.685 241.504 287.428C241.788 285.796 241.269 282.371 240.527 280.383Z" fill="#F7F7F7"/>
<path fill-rule="evenodd" clip-rule="evenodd" d="M83.0554 224.959C69.6263 222.245 60.8491 237.963 69.7745 247.095C76.6121 254.21 87.631 257.383 93.0744 250.86C94.8889 248.685 97.7962 240.852 97.8532 238.499C98.0064 232.946 91.1294 226.68 83.0554 224.959Z" fill="#F7F7F7"/>
<path fill-rule="evenodd" clip-rule="evenodd" d="M130.937 248.217C125.51 247.416 123.281 249.453 119.17 251.701C116.981 252.887 114.648 253.807 113.728 254.568C108.945 258.961 108.368 268.052 110.691 272.963C117.494 286.773 139.8 279.379 143.259 267.614C145.824 259.427 140.441 249.783 130.937 248.217Z" fill="#F7F7F7"/>
<path fill-rule="evenodd" clip-rule="evenodd" d="M179.831 264.678C179.423 264.537 179.505 264.996 179.301 264.925C174.912 264.481 170.331 270.432 169.214 273.276C165.701 283.043 174.308 290.981 184.455 292.56C191.559 293.73 197.201 287.285 198.001 278.947C198.881 268.913 187.717 269.135 179.831 264.678Z" fill="#F7F7F7"/>
<path fill-rule="evenodd" clip-rule="evenodd" d="M257.132 310.652C254.498 310.385 254.806 311.57 252.072 312.346C249.807 313.069 247.438 312.678 246.847 313.12C240.383 317.127 247.301 326.852 250.205 329.151C256.707 334.421 264.071 331.156 266.266 326.316C269.154 319.991 263.074 311.204 257.132 310.652Z" fill="#F7F7F7"/>
<path fill-rule="evenodd" clip-rule="evenodd" d="M209.219 305.558C205.081 304.989 201.584 307.45 200.441 309.647C198.993 312.819 199.393 318.792 200.605 320.725C204.179 326.718 214.618 323.853 216.882 318.803C219.678 313.506 216.409 306.538 209.219 305.558Z" fill="#F7F7F7"/>
<path fill-rule="evenodd" clip-rule="evenodd" d="M55.5659 257.836C47.5818 256.576 43.2217 261.097 42.8251 267.423C42.1931 278.838 61.198 289.736 67.4239 278.536C72.7148 269.598 64.2237 259.114 55.5659 257.836Z" fill="#F7F7F7"/>
<path fill-rule="evenodd" clip-rule="evenodd" d="M160.251 293.033C158.793 291.879 156.475 291.292 154.916 291.185C149.009 290.435 142.481 297.476 143.479 305.177C143.894 307.484 146.089 308.462 148.494 311.675C151.188 315.421 151.008 318.171 154.313 319.965C160.429 322.95 164.625 318.996 166.176 314.774C168.644 307.624 164.07 296.088 160.251 293.033Z" fill="#F7F7F7"/>
<path fill-rule="evenodd" clip-rule="evenodd" d="M94.0625 283.225C81.4538 280.589 77.9366 299.074 84.4169 306.732C86.392 309.149 90.6879 312.153 94.158 312.706C108.1 314.722 106.055 285.648 94.0625 283.225Z" fill="#F7F7F7"/>
<path fill-rule="evenodd" clip-rule="evenodd" d="M30.4757 276.138C25.312 275.213 20.501 276.788 18.1714 279.871C12.7359 287.066 17.5138 300.826 25.0978 303.455C30.2222 305.231 32.0589 301.545 35.4744 298.622C37.6423 296.779 40.1808 295.93 40.9356 294.246C45.4073 286.502 41.0082 278.06 30.4757 276.138Z" fill="#F7F7F7"/>
</svg>
