<?xml version="1.0" encoding="UTF-8" standalone="no"?>
<svg
   xmlns:dc="http://purl.org/dc/elements/1.1/"
   xmlns:cc="http://creativecommons.org/ns#"
   xmlns:rdf="http://www.w3.org/1999/02/22-rdf-syntax-ns#"
   xmlns:svg="http://www.w3.org/2000/svg"
   xmlns="http://www.w3.org/2000/svg"
   xmlns:sodipodi="http://sodipodi.sourceforge.net/DTD/sodipodi-0.dtd"
   xmlns:inkscape="http://www.inkscape.org/namespaces/inkscape"
   width="40"
   height="40"
   viewBox="0 0 40 40"
   fill="none"
   version="1.1"
   id="svg6"
   sodipodi:docname="soc_vk.svg"
   inkscape:version="1.0.2 (e86c870879, 2021-01-15, custom)">
  <metadata
     id="metadata12">
    <rdf:RDF>
      <cc:Work
         rdf:about="">
        <dc:format>image/svg+xml</dc:format>
        <dc:type
           rdf:resource="http://purl.org/dc/dcmitype/StillImage" />
      </cc:Work>
    </rdf:RDF>
  </metadata>
  <defs
     id="defs10" />
  <sodipodi:namedview
     pagecolor="#ffffff"
     bordercolor="#666666"
     borderopacity="1"
     objecttolerance="10"
     gridtolerance="10"
     guidetolerance="10"
     inkscape:pageopacity="0"
     inkscape:pageshadow="2"
     inkscape:window-width="1280"
     inkscape:window-height="961"
     id="namedview8"
     showgrid="false"
     inkscape:zoom="1.8782524"
     inkscape:cx="54.154023"
     inkscape:cy="150.04372"
     inkscape:window-x="1921"
     inkscape:window-y="821"
     inkscape:window-maximized="1"
     inkscape:current-layer="svg6"
     inkscape:document-rotation="0" />
  <path
     id="circle2"
     style="fill:#ffc700;fill-opacity:1"
     d="M 20 0 A 20 20 0 0 0 0 20 A 20 20 0 0 0 20 40 A 20 20 0 0 0 40 20 A 20 20 0 0 0 20 0 z M 19.236328 14.001953 C 20.126428 14.011153 20.380816 14.065637 20.728516 14.148438 C 21.776916 14.396737 21.421875 15.355803 21.421875 17.658203 C 21.421875 18.395003 21.285725 19.432944 21.828125 19.777344 C 22.061325 19.924444 22.631441 19.798728 24.056641 17.423828 C 24.732341 16.297628 25.238281 14.974609 25.238281 14.974609 C 25.238281 14.974609 25.349784 14.737819 25.521484 14.636719 C 25.697484 14.533519 25.935547 14.566406 25.935547 14.566406 L 29.134766 14.546875 C 29.134766 14.546875 30.096853 14.432175 30.251953 14.859375 C 30.415453 15.305875 29.893538 16.3518 28.585938 18.0625 C 26.439138 20.8718 26.199022 20.608622 27.982422 22.232422 C 29.684522 23.783722 30.037403 24.538812 30.095703 24.632812 C 30.800503 25.780412 29.314453 25.871094 29.314453 25.871094 L 26.470703 25.908203 C 26.470703 25.908203 25.860341 26.028028 25.056641 25.486328 C 23.992641 24.770028 22.989884 22.907191 22.208984 23.150391 C 21.416784 23.397691 21.441406 25.072266 21.441406 25.072266 C 21.441406 25.072266 21.447678 25.430994 21.267578 25.621094 C 21.070778 25.828594 20.6875 25.871094 20.6875 25.871094 L 19.414062 25.871094 C 19.414063 25.871094 16.607366 26.035966 14.134766 23.509766 C 11.438366 20.753666 9.0585938 15.285156 9.0585938 15.285156 C 9.0585938 15.285156 8.9194894 14.926606 9.0683594 14.753906 C 9.2359794 14.558706 9.6933594 14.546875 9.6933594 14.546875 L 12.734375 14.527344 C 12.734375 14.527344 13.021463 14.572503 13.226562 14.720703 C 13.396262 14.843303 13.490234 15.072266 13.490234 15.072266 C 13.490234 15.072266 13.982213 16.290931 14.632812 17.394531 C 15.904013 19.549831 16.494781 20.022016 16.925781 19.791016 C 17.554681 19.454816 17.367188 16.744141 17.367188 16.744141 C 17.367187 16.744141 17.378781 15.760666 17.050781 15.322266 C 16.796781 14.982966 16.316769 14.885022 16.105469 14.857422 C 15.933669 14.834922 16.215678 14.444231 16.580078 14.269531 C 17.127678 14.006831 18.094228 13.990653 19.236328 14.001953 z " />
</svg>
