<?xml version="1.0" encoding="UTF-8" standalone="no"?>
<svg
   xmlns:dc="http://purl.org/dc/elements/1.1/"
   xmlns:cc="http://creativecommons.org/ns#"
   xmlns:rdf="http://www.w3.org/1999/02/22-rdf-syntax-ns#"
   xmlns:svg="http://www.w3.org/2000/svg"
   xmlns="http://www.w3.org/2000/svg"
   xmlns:sodipodi="http://sodipodi.sourceforge.net/DTD/sodipodi-0.dtd"
   xmlns:inkscape="http://www.inkscape.org/namespaces/inkscape"
   width="32"
   height="32"
   viewBox="0 0 8.4666665 8.4666669"
   version="1.1"
   id="svg2414"
   inkscape:version="1.0.2 (e86c870879, 2021-01-15, custom)"
   sodipodi:docname="soc_em.svg">
  <defs
     id="defs2408" />
  <sodipodi:namedview
     id="base"
     pagecolor="#ffffff"
     bordercolor="#666666"
     borderopacity="1.0"
     inkscape:pageopacity="0.0"
     inkscape:pageshadow="2"
     inkscape:zoom="3.959798"
     inkscape:cx="4.7082579"
     inkscape:cy="32.435426"
     inkscape:document-units="mm"
     inkscape:current-layer="layer1"
     inkscape:document-rotation="0"
     showgrid="false"
     units="px"
     inkscape:window-width="1346"
     inkscape:window-height="1040"
     inkscape:window-x="130"
     inkscape:window-y="0"
     inkscape:window-maximized="0" />
  <metadata
     id="metadata2411">
    <rdf:RDF>
      <cc:Work
         rdf:about="">
        <dc:format>image/svg+xml</dc:format>
        <dc:type
           rdf:resource="http://purl.org/dc/dcmitype/StillImage" />
        <dc:title></dc:title>
      </cc:Work>
    </rdf:RDF>
  </metadata>
  <g
     inkscape:label="Layer 1"
     inkscape:groupmode="layer"
     id="layer1">
    <path
       sodipodi:nodetypes="sccccccccaaaccccsscsscccccccccccccccsscccccsscccccaaacc"
       inkscape:connector-curvature="0"
       id="rect3027"
       d="m 6.6139233,2.4857333 c 0.0437,0 0.0848,0.01 0.12371,0.023 l -0.77964,0.8026 -0.78827,0.8171 -0.0144,0.017 -0.023,0.023 -0.023,0.023 -0.046,0.049 -0.67607,0.6933 c -0.0113,0.01 -0.0439,0.037 -0.0694,0.05 -0.0328,0.016 -0.0684,0.032 -0.10509,0.033 -0.0396,0 -0.08,-0.01 -0.11564,-0.027 -0.0267,-0.013 -0.0385,-0.032 -0.0695,-0.056 l -0.78252,-0.8084 -0.79114,-0.8142 -0.76238,-0.7853 c 0.0489,-0.027 0.10315,-0.04 0.16111,-0.04 z m 0.23879,0.098 c 0.0831,0.079 0.13521,0.1972 0.13521,0.3308 v 2.6353 c 0,0.1082 -0.0348,0.2065 -0.0921,0.2819 l -0.10932,-0.1036 -0.81416,-0.7911 -0.7221,-0.6991 0.0144,-0.017 0.79115,-0.8141 0.79114,-0.8171 z m -5.26472,0.026 0.77101,0.7969 0.78827,0.8141 0.0144,0.014 -0.75087,0.7279 -0.81416,0.7911 -0.0489,0.046 c -0.0438,-0.07 -0.069,-0.157 -0.069,-0.2503 v -2.6353 c 0,-0.1191 0.0413,-0.2272 0.10933,-0.3049 z m 3.57023,1.7232 0.71922,0.6991 0.81704,0.7912 0.10357,0.1007 c -0.0546,0.035 -0.11674,0.057 -0.18413,0.057 h -4.76125 c -0.081,0 -0.15449,-0.031 -0.21577,-0.081 l 0.0518,-0.052 0.81703,-0.7912 0.75087,-0.725 0.67607,0.6963 c 0.0366,0.024 0.061,0.051 0.0968,0.068 0.0575,0.027 0.12052,0.049 0.18387,0.048 0.0635,-0.001 0.12579,-0.026 0.18279,-0.054 0.0286,-0.014 0.0439,-0.028 0.0774,-0.056 z"
       style="color:#000000;display:inline;overflow:visible;visibility:visible;fill:#000000;fill-opacity:0.995968;fill-rule:nonzero;stroke:none;stroke-width:0.570777;marker:none;enable-background:accumulate" />
  </g>
</svg>
