<?xml version="1.0" encoding="UTF-8" standalone="no"?>
<svg
   xmlns:dc="http://purl.org/dc/elements/1.1/"
   xmlns:cc="http://creativecommons.org/ns#"
   xmlns:rdf="http://www.w3.org/1999/02/22-rdf-syntax-ns#"
   xmlns:svg="http://www.w3.org/2000/svg"
   xmlns="http://www.w3.org/2000/svg"
   width="32"
   height="32"
   viewBox="0 0 8.4666668 8.4666669"
   version="1.1"
   id="svg1233">
  <defs
     id="defs1227" />
  <metadata
     id="metadata1230">
    <rdf:RDF>
      <cc:Work
         rdf:about="">
        <dc:format>image/svg+xml</dc:format>
        <dc:type
           rdf:resource="http://purl.org/dc/dcmitype/StillImage" />
        <dc:title></dc:title>
      </cc:Work>
    </rdf:RDF>
  </metadata>
  <g
     id="layer1"
     transform="translate(-216.64235,-108.22918)">
    <g
       transform="matrix(0.4212026,0,0,0.4212026,203.56651,556.82634)"
       id="g1760"
       style="fill:#000000;fill-opacity:0.995968">
      <path
         id="path1735"
         d="m 35.145552,-1055.3424 c 1.255139,-0.6914 2.65621,-1.2684 3.965303,-1.8483 2.252146,-0.95 4.513239,-1.8834 6.797149,-2.7525 0.444327,-0.1481 1.242791,-0.2929 1.321082,0.3657 -0.04286,0.932 -0.219211,1.8588 -0.340181,2.7855 -0.306984,2.0378 -0.661927,4.0686 -1.007922,6.0998 -0.119269,0.6765 -0.966766,1.0268 -1.509066,0.5938 -1.303277,-0.8803 -2.616574,-1.7521 -3.903208,-2.6527 -0.421511,-0.4283 -0.0306,-1.0433 0.345727,-1.3492 1.073418,-1.0579 2.211793,-1.9566 3.229112,-3.0691 0.274416,-0.6627 -0.536396,-0.1042 -0.803833,0.067 -1.469519,1.0126 -2.903069,2.0871 -4.452398,2.9771 -0.791397,0.4356 -1.713783,0.064 -2.504821,-0.1798 -0.709258,-0.2936 -1.748587,-0.5895 -1.137034,-1.0373 z"
         style="clip-rule:evenodd;fill:#000000;fill-opacity:0.995968;fill-rule:nonzero;stroke-width:0.0894739;stroke-linejoin:round;stroke-miterlimit:1.41421" />
    </g>
  </g>
</svg>
