<svg width="23" height="23" viewBox="0 0 23 23" fill="none" xmlns="http://www.w3.org/2000/svg">
<path d="M14.7272 11.3217C14.7272 13.1995 13.1995 14.7272 11.3217 14.7272C9.44395 14.7272 7.91632 13.1995 7.91632 11.3217C7.91632 9.44395 9.44395 7.91632 11.3217 7.91632C13.1995 7.91632 14.7272 9.44395 14.7272 11.3217ZM11.3217 0C5.07861 0 0 5.07861 0 11.3217C0 17.5649 5.07861 22.6435 11.3217 22.6435C13.6087 22.6435 15.814 21.9626 17.6991 20.6743L17.7315 20.6517L16.2063 18.879L16.1804 18.8952C14.7296 19.8292 13.0491 20.3225 11.3217 20.3225C6.35877 20.3225 2.32096 16.2847 2.32096 11.3217C2.32096 6.35877 6.35877 2.32096 11.3217 2.32096C16.2847 2.32096 20.3225 6.35877 20.3225 11.3217C20.3225 11.9647 20.2505 12.6157 20.1106 13.2561C19.826 14.4247 19.0076 14.7821 18.3938 14.7352C17.7759 14.6851 17.053 14.2452 17.0481 13.168V12.3472V11.3217C17.0481 8.16378 14.4797 5.59537 11.3217 5.59537C8.16378 5.59537 5.59537 8.16378 5.59537 11.3217C5.59537 14.4797 8.16378 17.0481 11.3217 17.0481C12.8558 17.0481 14.2945 16.4489 15.379 15.3579C16.0097 16.3397 17.0376 16.9551 18.2078 17.0489C18.3081 17.057 18.4108 17.0611 18.5119 17.0611C19.3359 17.0611 20.1519 16.7853 20.8102 16.2863C21.4887 15.7704 21.9957 15.0256 22.2755 14.1303C22.32 13.9856 22.4025 13.6548 22.4025 13.6524L22.4049 13.6403C22.5699 12.9221 22.6435 12.2065 22.6435 11.3217C22.6435 5.07861 17.5649 0 11.3217 0Z" fill="#005FF9"/>
</svg>
