<svg width="26" height="14" viewBox="0 0 26 14" fill="none" xmlns="http://www.w3.org/2000/svg">
<path fill-rule="evenodd" clip-rule="evenodd" d="M14.2751 13.9415C14.2751 13.9415 14.7443 13.8923 14.9847 13.6486C15.2047 13.4254 15.197 13.0041 15.197 13.0041C15.197 13.0041 15.1678 11.0369 16.1355 10.7464C17.0893 10.4608 18.3139 12.6488 19.6135 13.4902C20.5952 14.1263 21.3404 13.9871 21.3404 13.9871L24.8133 13.9415C24.8133 13.9415 26.6293 13.8359 25.7684 12.488C25.6971 12.3776 25.266 11.4906 23.1869 9.6686C21.0085 7.76141 21.301 8.06987 23.9232 4.77039C25.5204 2.76117 26.1588 1.53452 25.9591 1.01001C25.7696 0.508308 24.5946 0.641535 24.5946 0.641535L20.6855 0.66434C20.6855 0.66434 20.3956 0.627132 20.1807 0.748357C19.9708 0.867182 19.8348 1.14444 19.8348 1.14444C19.8348 1.14444 19.2168 2.69876 18.3914 4.02143C16.6505 6.81081 15.9549 6.95844 15.6701 6.7856C15.0076 6.38112 15.1729 5.16287 15.1729 4.29749C15.1729 1.59333 15.6078 0.466299 14.3272 0.174639C13.9025 0.0774184 13.5897 0.0138053 12.5024 0.00300306C11.1074 -0.0101997 9.92727 0.00780404 9.25838 0.316268C8.8133 0.52151 8.46995 0.980005 8.67977 1.00641C8.93792 1.03882 9.52288 1.15524 9.83317 1.55372C10.2337 2.06863 10.2198 3.22327 10.2198 3.22327C10.2198 3.22327 10.4499 6.40633 9.68184 6.80121C9.15537 7.07246 8.43307 6.51915 6.88037 3.98783C6.08558 2.69156 5.48536 1.25846 5.48536 1.25846C5.48536 1.25846 5.36964 0.990807 5.16236 0.846777C4.91184 0.672741 4.56213 0.61873 4.56213 0.61873L0.847611 0.641535C0.847611 0.641535 0.289352 0.655938 0.0846142 0.885185C-0.0972333 1.08803 0.070626 1.50931 0.070626 1.50931C0.070626 1.50931 2.97891 7.93184 6.27252 11.1689C9.29271 14.1359 12.7211 13.9415 12.7211 13.9415H14.2751Z" fill="white"/>
</svg>
