<?xml version="1.0" encoding="UTF-8" standalone="no"?>
<svg
   xmlns:dc="http://purl.org/dc/elements/1.1/"
   xmlns:cc="http://creativecommons.org/ns#"
   xmlns:rdf="http://www.w3.org/1999/02/22-rdf-syntax-ns#"
   xmlns:svg="http://www.w3.org/2000/svg"
   xmlns="http://www.w3.org/2000/svg"
   width="40"
   height="40"
   viewBox="0 0 10.583334 10.583334"
   version="1.1"
   id="svg8">
  <defs
     id="defs2" />
  <metadata
     id="metadata5">
    <rdf:RDF>
      <cc:Work
         rdf:about="">
        <dc:format>image/svg+xml</dc:format>
        <dc:type
           rdf:resource="http://purl.org/dc/dcmitype/StillImage" />
        <dc:title></dc:title>
      </cc:Work>
    </rdf:RDF>
  </metadata>
  <g
     id="layer1"
     transform="translate(-88.174461,-124.59911)">
    <path
       id="path921"
       style="color:#000000;font-style:normal;font-variant:normal;font-weight:normal;font-stretch:normal;font-size:medium;line-height:normal;font-family:sans-serif;font-variant-ligatures:normal;font-variant-position:normal;font-variant-caps:normal;font-variant-numeric:normal;font-variant-alternates:normal;font-variant-east-asian:normal;font-feature-settings:normal;font-variation-settings:normal;text-indent:0;text-align:start;text-decoration:none;text-decoration-line:none;text-decoration-style:solid;text-decoration-color:#000000;letter-spacing:normal;word-spacing:normal;text-transform:none;writing-mode:lr-tb;direction:ltr;text-orientation:mixed;dominant-baseline:auto;baseline-shift:baseline;text-anchor:start;white-space:normal;shape-padding:0;shape-margin:0;inline-size:0;clip-rule:nonzero;display:inline;overflow:visible;visibility:visible;isolation:auto;mix-blend-mode:normal;color-interpolation:sRGB;color-interpolation-filters:linearRGB;solid-color:#000000;solid-opacity:1;vector-effect:none;fill:#6c3774;fill-opacity:1;fill-rule:nonzero;stroke:none;stroke-width:1;stroke-linecap:butt;stroke-linejoin:miter;stroke-miterlimit:4;stroke-dasharray:none;stroke-dashoffset:0;stroke-opacity:1;color-rendering:auto;image-rendering:auto;shape-rendering:auto;text-rendering:auto;enable-background:accumulate;stop-color:#000000"
       d="m 88.859433,124.82261 c -0.348631,0 -0.633037,0.28389 -0.633037,0.63252 v 8.15248 c 0,0.34862 0.284406,0.63303 0.633037,0.63303 h 3.898987 a 3.7521059,3.6555195 0 0 1 -0.21549,-0.26406 h -3.683497 c -0.206621,0 -0.369485,-0.16236 -0.369485,-0.36897 v -6.72052 h 8.888862 v 1.73942 a 3.7521059,3.6555195 0 0 1 0.265618,0.15555 v -3.32693 c 0,-0.34863 -0.284409,-0.63252 -0.633037,-0.63252 z m 0,0.26355 h 8.151958 c 0.206629,0 0.367419,0.16235 0.367419,0.36897 v 1.16634 h -8.888862 v -1.16634 c 0,-0.20662 0.162864,-0.36897 0.369485,-0.36897 z m 1.251087,0.49971 v 0.52969 h 0.263549 v -0.52969 z m 5.550564,0 v 0.52969 h 0.265618 v -0.52969 z m -6.147427,1.78956 a 0.13230471,0.13230471 0 0 0 -0.13281,0.1328 v 5.53869 a 0.13230471,0.13230471 0 0 0 0.13281,0.1328 h 2.581754 a 3.7521059,3.6555195 0 0 1 -0.0248,-0.0641 3.7521059,3.6555195 0 0 1 -0.0052,-0.0129 3.7521059,3.6555195 0 0 1 -0.0083,-0.0233 3.7521059,3.6555195 0 0 1 -0.01964,-0.0537 3.7521059,3.6555195 0 0 1 -0.03721,-0.11162 h -0.736904 v -1.16996 h 0.57154 a 3.7521059,3.6555195 0 0 1 0.01705,-0.26561 h -0.588595 v -1.15239 h 0.905888 a 3.7521059,3.6555195 0 0 1 0.136425,-0.26355 h -1.042313 v -1.07074 h 1.318781 v 0.65526 a 3.7521059,3.6555195 0 0 1 0.263552,-0.30644 v -0.34882 h 0.38499 a 3.7521059,3.6555195 0 0 1 0.386537,-0.26561 h -0.771527 v -1.08727 h 1.318265 v 0.81597 a 3.7521059,3.6555195 0 0 1 0.265615,-0.0951 v -0.72088 h 1.517222 v 0.56069 a 3.7521059,3.6555195 0 0 1 0.08372,0.009 3.7521059,3.6555195 0 0 1 0.08371,0.0103 3.7521059,3.6555195 0 0 1 0.0832,0.0124 3.7521059,3.6555195 0 0 1 0.0155,0.003 v -0.72554 A 0.13230471,0.13230471 0 0 0 96.079591,127.376 Z m 0.130742,0.26355 h 1.355471 v 1.08727 h -1.355471 z m 1.619022,0 h 1.318781 v 1.08727 h -1.318781 z m 4.323249,1.07745 c -1.721929,0 -3.121255,1.39933 -3.121255,3.12126 0,1.72193 1.399326,3.12125 3.121255,3.12125 1.721922,0 3.119189,-1.39932 3.119189,-3.12125 0,-1.72193 -1.397267,-3.12126 -3.119189,-3.12126 z m 0,0.26562 c 1.578931,0 2.85564,1.2767 2.85564,2.85564 0,1.57894 -1.276709,2.85564 -2.85564,2.85564 -1.57894,0 -2.85719,-1.2767 -2.85719,-2.85564 0,-1.57894 1.27825,-2.85564 2.85719,-2.85564 z m -5.942271,0.01 h 1.355471 v 1.07074 h -1.355471 z m 5.808948,0.82631 v 1.88671 0.0977 0.16795 h 2.365229 v -0.26562 h -2.099614 v -1.88671 z m -5.808948,0.50798 h 1.355471 v 1.15239 h -1.355471 z m 0,1.418 h 1.355471 v 1.16996 h -1.355471 z" />
  </g>
</svg>
