<?xml version="1.0" encoding="UTF-8" standalone="no"?>
<svg
   xmlns:dc="http://purl.org/dc/elements/1.1/"
   xmlns:cc="http://creativecommons.org/ns#"
   xmlns:rdf="http://www.w3.org/1999/02/22-rdf-syntax-ns#"
   xmlns:svg="http://www.w3.org/2000/svg"
   xmlns="http://www.w3.org/2000/svg"
   xmlns:sodipodi="http://sodipodi.sourceforge.net/DTD/sodipodi-0.dtd"
   xmlns:inkscape="http://www.inkscape.org/namespaces/inkscape"
   width="415"
   height="415"
   viewBox="0 0 109.80208 109.80209"
   version="1.1"
   id="svg1029"
   sodipodi:docname="ornament_white.svg"
   inkscape:version="1.0.2 (e86c870879, 2021-01-15, custom)">
  <sodipodi:namedview
     pagecolor="#ffffff"
     bordercolor="#666666"
     borderopacity="1"
     objecttolerance="10"
     gridtolerance="10"
     guidetolerance="10"
     inkscape:pageopacity="0"
     inkscape:pageshadow="2"
     inkscape:window-width="1920"
     inkscape:window-height="1017"
     id="namedview7"
     showgrid="false"
     inkscape:zoom="2.0481928"
     inkscape:cx="207.5"
     inkscape:cy="207.5"
     inkscape:window-x="-8"
     inkscape:window-y="-8"
     inkscape:window-maximized="1"
     inkscape:current-layer="svg1029" />
  <defs
     id="defs1023" />
  <metadata
     id="metadata1026">
    <rdf:RDF>
      <cc:Work
         rdf:about="">
        <dc:format>image/svg+xml</dc:format>
        <dc:type
           rdf:resource="http://purl.org/dc/dcmitype/StillImage" />
        <dc:title></dc:title>
      </cc:Work>
    </rdf:RDF>
  </metadata>
  <g
     id="layer1"
     transform="translate(116.21872,-9.5644178)"
     style="fill:#fefefe;fill-opacity:1">
    <path
       style="fill:#fefefe;stroke:none;stroke-width:1;fill-opacity:1"
       d="m -85.659338,14.856082 v 0.264584 c 3.535098,0.288739 6.603206,2.073619 9.789583,3.439583 -0.229658,-2.248191 1.131623,-3.670194 3.439583,-3.175 -2.433373,4.189889 1.443302,11.992161 6.868583,9.139555 2.036763,-1.070954 2.877873,-5.412687 0.004,-6.077664 -2.478352,-0.573458 -1.764241,3.266784 -1.051719,4.346443 -3.787245,-0.03426 -5.688541,-3.758089 -2.596885,-6.47454 1.471877,-1.29323 2.91465,-1.161124 4.713552,-0.933794 0.05371,-2.507562 1.556808,-3.633015 2.910417,-5.5562506 -7.893579,0 -17.074356,1.0457206 -24.077083,5.0270836 m 24.870802,-5.0270836 c 1.248833,1.8267786 2.927879,3.1709256 2.38125,5.5562506 1.788318,-0.141129 3.279245,-0.510963 4.734718,0.850291 2.785004,2.604876 1.436158,6.468931 -2.353468,6.558043 0.73316,-1.077463 1.620043,-5.111671 -1.055159,-4.322763 -2.907241,0.857223 -1.785937,5.000652 0.265377,6.053984 5.4229,2.784978 8.953765,-5.071374 6.875198,-9.139555 2.170906,-0.415978 3.592512,1.039019 3.439583,3.175 3.000375,-1.400836 5.844381,-3.290623 9.260417,-3.439583 -1.650471,-1.49016 -4.502944,-2.151963 -6.614584,-2.757303 -5.63827,-1.616252 -11.063022,-2.5343646 -16.933332,-2.5343646 M -91.215588,24.645666 c 2.61329,-3.076205 6.02615,-1.158875 7.14375,2.116667 2.452687,-1.600253 3.774017,-1.7095 6.614583,-1.5875 l -3.704166,5.55625 10.847916,-4.497917 c -3.525308,-2.924307 -8.195469,-6.436387 -12.435416,-8.202084 0.728927,1.892671 1.082675,3.474773 -1.058334,4.497917 -0.191823,-0.916913 -0.413279,-1.826419 -0.890852,-2.644616 -1.411552,-2.4198 -4.64476,-1.935851 -6.489726,-0.209259 -1.57525,1.474179 -2.106877,3.947186 -1.800225,6.028875 0.194469,1.320139 0.904981,3.583305 2.566009,3.583305 3.440324,0 0.78359,-3.945943 -0.793539,-4.641638 m 50.535415,-6.614584 -11.377083,8.202084 11.377083,4.497917 v -0.264584 l -4.497916,-5.027083 c 3.119966,-0.807217 4.599516,0.15875 7.408333,1.322917 0.08255,-3.417888 4.6736,-5.34043 6.35,-1.852084 -1.74334,0.490749 -3.759994,4.145175 -0.792692,4.353375 2.06084,0.144595 2.627845,-2.872713 2.643715,-4.353375 0.0212,-1.981623 -0.32014,-4.039949 -1.899971,-5.415386 -3.148542,-2.740766 -6.755606,-0.827167 -7.094802,3.034136 -2.629165,-0.901991 -1.42531,-2.570242 -2.116667,-4.497917 m -63.764577,12.435417 c 4.31422,-1.370462 7.385257,-0.07443 11.377079,1.5875 -1.801204,-4.180046 -2.62808,-6.308804 -1.5875,-10.847917 -3.156929,1.470078 -8.318739,6.106399 -9.789579,9.260417 m 76.729157,-9.260417 c 0.90356,4.380125 0.14896,6.552804 -1.5875,10.583334 4.02061,-1.099688 6.62464,-2.67335 10.84792,-1.322917 -1.72482,-3.462813 -5.92667,-7.333377 -9.26042,-9.260417 m -35.718746,3.704167 h 3.96875 c -1.229783,-2.933224 -2.457185,-2.448877 -3.96875,0 m -21.166666,12.700001 11.1125,0.529166 -2.910417,-5.820833 c 3.905515,0.310806 7.175236,2.415037 9.743546,5.291667 1.094317,1.225285 1.842823,3.084777 3.221037,3.96875 0.602457,-3.247232 -0.810418,-5.076561 -3.175,-7.14375 1.27344,-0.574358 2.056607,-0.969037 3.439584,-0.529167 l 0.529166,-5.820834 c -7.262547,0.06011 -17.418843,3.59074 -21.960416,9.525001 m 24.60625,-9.525001 c 0.901435,1.931512 0.9144,3.74523 0.529166,5.820834 1.496219,-0.442225 2.324629,-0.09298 3.704167,0.529167 -2.065602,1.805728 -4.666456,4.47675 -2.910417,7.408333 2.387865,-4.888971 6.788944,-9.063805 12.435417,-9.525 l -2.910417,5.820833 11.377083,-0.529166 c -5.364956,-5.78194 -14.364229,-9.503358 -22.224999,-9.525001 M -102.59267,41.579 c -0.94485,1.920875 -2.41723,1.736725 -4.23333,1.322916 0.70882,2.984236 2.96132,5.427134 4.62592,7.937501 0.90268,1.361281 1.48117,2.982119 2.517826,4.233333 l 4.497916,-10.054167 -4.497916,3.175 c -1.084976,-3.335602 -0.348266,-4.38441 1.5875,-7.14375 -2.813046,-0.8001 -7.081596,-5.208429 -2.116666,-6.614583 0.337076,1.387422 2.913644,3.41286 3.808068,1.283731 1.002744,-2.386965 -2.304706,-3.654954 -4.072648,-3.657229 -2.1227,-0.0027 -4.1646,0.830421 -5.37027,2.638293 -2.04883,3.07213 -0.4625,6.686074 3.2536,6.878955 m 78.316667,-0.529167 c 1.77032,2.545556 2.57439,4.030663 1.5875,7.14375 l -4.7625,-3.439583 4.23333,10.31875 c 2.67256,-3.192198 6.56114,-8.138848 7.67292,-12.170834 -2.02856,0.418307 -2.92365,0.429684 -4.49792,-1.058333 1.35202,-0.38391 2.88396,-0.714375 3.78275,-1.901031 3.40333,-4.493948 -3.96478,-9.350587 -8.01582,-7.420637 -1.79546,0.855345 -3.09509,4.335595 -5.3e-4,3.985816 1.13427,-0.128323 2.11323,-2.20517 3.1578,-1.609064 3.67295,2.095633 -1.14749,5.568024 -3.15753,6.151166 M -90.686421,33.376916 V 33.6415 l 2.116667,2.645833 3.174999,-2.910417 h -5.291666 m 53.445832,0 3.439583,2.910417 1.852083,-2.910417 c -1.910556,0.494295 -3.387989,0.534961 -5.291666,0 m -54.768749,1.322917 v 5.55625 l 2.910417,-3.704167 -2.910417,-1.852083 m 61.118748,0.529167 -2.38125,1.322916 2.116667,3.96875 h 0.264583 V 35.229 m -79.37499,4.7625 c -3.49485,7.375525 -5.55535,15.356152 -5.55625,23.547917 2.38801,-1.135856 3.4254,-3.176852 6.35,-2.38125 -0.21998,-1.633538 -0.77854,-3.04456 0.37544,-4.486275 2.2697,-2.835804 6.41789,-1.446213 6.50372,2.105025 -1.3439,-0.627063 -4.94577,-1.138767 -3.99182,1.583531 1.25984,3.594894 6.40845,0.464609 6.35836,-2.377281 -0.0534,-3.032654 -2.73142,-6.00075 -5.80612,-6.070865 -0.87503,-0.02011 -2.8757,1.03505 -3.54044,0.547159 -1.97321,-1.448594 2.13227,-3.319199 3.27586,-3.207544 l -2.50762,-4.233334 -1.46113,-5.027083 m 61.118741,2.38125 c 0.799042,1.525323 1.622954,2.991644 1.11416,4.7625 -1.185068,4.122738 -5.618956,4.621477 -7.993326,1.322917 3.925093,-0.404813 2.873639,-5.096934 -0.525198,-3.809207 -4.58814,1.738577 -0.429155,7.453048 2.377281,8.373534 0.950119,0.311414 2.838185,0.185208 3.432175,1.07606 1.471612,2.206361 -0.03228,4.914107 3.186377,6.420115 2.070629,0.96864 7.929033,0.265642 5.769504,-3.268927 -1.377686,-2.254779 -3.488002,0.154781 -3.656806,1.791758 -3.544888,-1.854464 -3.369734,-6.316398 0.264583,-8.050477 2.142066,-1.02235 4.196291,-0.129117 6.085416,0.906727 -2.011362,-4.904052 -0.48551,-7.819761 2.38125,-11.90625 -4.506383,1.867694 -7.40701,3.5306 -12.435416,2.38125 m -36.247916,-2.116667 c 2.088357,3.750998 4.045215,6.962246 2.645834,11.377084 1.819275,-0.518848 3.373702,-1.313657 5.291666,-0.631561 4.279371,1.522413 3.475302,5.776119 0.529167,8.039894 -0.1905,-4.097337 -5.367073,-2.676525 -4.036748,0.501386 0.928687,2.218266 5.456502,1.603639 6.935787,0.415925 2.022211,-1.624013 2.128044,-4.095221 2.128044,-6.473561 2.164292,-2.64e-4 4.643173,-0.06985 6.322219,-1.644121 1.535641,-1.439598 2.469885,-5.713677 0.235743,-7.039769 -3.167327,-1.880129 -4.581789,2.666736 -1.001712,3.92139 -2.672556,2.53365 -7.006696,2.785269 -8.06106,-1.5875 -0.426773,-1.770327 0.342635,-3.155686 0.91731,-4.7625 -4.614598,1.220787 -7.722923,-0.374915 -11.90625,-2.116667 m 73.025002,0 c -0.68739,3.544623 -1.72588,6.002338 -3.70417,8.995834 2.51328,-0.336021 3.41947,1.453885 3.43958,3.704166 -1.61634,-0.578379 -2.98264,-1.328208 -4.7625,-0.918368 -2.8948,0.667014 -6.38333,4.770173 -4.49553,7.786952 1.22396,1.9558 5.59779,3.347773 6.13569,0.01138 0.38391,-2.379927 -2.91148,-2.082006 -4.02141,-1.059127 -0.45878,-3.431646 3.42583,-4.579938 5.79305,-2.541588 1.58936,1.368425 1.32028,3.07049 1.08612,4.922838 2.81728,-0.711465 3.9264199,0.861748 6.0854199,2.38125 0,-7.351183 -1.38642,-17.004242 -5.5562499,-23.283334 m -75.670835,0.264583 c -5.927857,6.194426 -8.337497,14.148065 -8.995833,22.489584 l 5.291667,-1.058333 1.058333,-3.175 h 0.529167 c 0.852487,2.668058 4.332022,4.724665 6.879166,2.910417 -3.506787,-2.068513 -6.661388,-4.672542 -8.383984,-8.466667 -0.333851,-0.735277 -1.59602,-3.34645 -0.504058,-3.904986 1.28614,-0.658019 4.157821,1.937809 5.448459,2.317486 l -1.436423,-5.027084 0.113506,-6.085417 m 53.445832,0 c 5.29e-4,4.143376 0.08969,7.09639 -1.058333,11.112501 l 5.820836,-2.645834 c -0.24342,5.655205 -4.722286,9.909969 -9.26042,12.700001 v 0.264583 c 3.038475,0.375708 5.98514,-0.192087 7.408333,-3.175 l 0.79375,3.175 c 2.405327,-0.494506 3.641727,0.04577 5.820837,1.058333 -0.0199,-7.167827 -3.54674,-18.089033 -9.525003,-22.489584 m -26.722916,7.672917 c -1.184275,3.088482 -2.789502,5.918465 -6.085416,7.143751 v 0.264583 c 2.61567,1.512094 3.943879,3.612621 3.968749,6.614583 -2.791618,-0.360891 -4.575439,-1.592791 -6.085416,-3.96875 h -0.264583 c -1.913732,3.050911 -4.369065,5.259388 -7.9375,6.085417 v 0.264583 c 3.619764,0.03043 6.53362,2.567782 7.9375,5.820834 h 0.264583 c 1.166019,-2.667265 3.238235,-4.129881 6.085416,-4.497917 -0.02513,3.039269 -1.278731,4.869657 -3.704166,6.614584 v 0.529166 c 3.024981,1.439334 4.815152,4.322498 5.820833,7.408334 h 0.264583 c 0.47334,-3.157538 2.820194,-6.270625 5.820833,-7.408334 -1.627187,-2.537354 -4.157926,-3.080014 -4.233333,-6.614583 1.837002,0 3.568436,-0.06879 4.940036,1.372658 0.762,0.800629 1.055422,1.948921 1.939131,2.596092 0.797454,-3.393281 4.606131,-5.792788 7.937499,-5.820834 V 64.33317 c -3.189022,-0.738187 -6.709833,-2.916502 -7.937499,-6.085417 -2.798763,1.82589 -3.094038,3.439584 -6.879167,3.439584 0.06826,-2.908036 2.085446,-4.740805 4.497917,-6.085417 v -0.264583 c -3.384815,-1.460765 -4.705879,-4.124326 -6.35,-7.143751 m -42.068748,15.874998 v 0.529166 l 3.175,1.322917 V 62.2165 l -3.175,1.852084 M -22.423923,62.2165 v 3.704167 l 3.175,-1.322917 c -0.64161,-1.313127 -1.79917,-1.976437 -3.175,-2.38125 m -93.397907,2.38125 c 9.5e-4,8.598165 2.84022,15.833461 5.55625,23.812501 h 0.26458 c 0.71109,-3.774017 1.58401,-6.316662 3.70417,-9.525 -2.44377,0.431535 -3.87115,-0.995892 -3.43959,-3.439584 4.12459,2.107407 11.94083,-1.351491 9.13956,-6.878108 -1.01182,-1.996281 -4.93604,-3.697288 -5.98863,-0.79084 -1.06146,2.931319 2.51997,2.656152 3.99282,1.583532 -0.0119,4.160837 -4.63555,5.747279 -6.85548,1.851818 -0.75044,-1.316831 -0.30729,-2.59371 -0.0237,-3.968485 -2.80527,0.330994 -4.15931,-1.148027 -6.35,-2.645834 m 108.7437369,0 c -1.59649,1.928548 -3.3157599,2.941373 -5.8208299,2.645834 0.26141,2.069306 0.39846,3.718719 -1.33429,5.231342 -2.65589,2.318808 -6.0923,0.218546 -5.54488,-3.114675 1.09802,1.012295 4.40532,1.288256 4.02141,-1.062038 -0.57785,-3.53695 -5.03608,-1.807369 -6.15924,0.272256 -2.6879,4.976548 4.95141,9.592205 9.017,6.875198 0.57388,2.439459 -0.70776,3.888846 -3.175,3.439584 2.11111,3.204898 2.99561,5.764213 3.70417,9.525 h 0.26458 l 5.0138499,-17.727084 0.0132,-6.085417 m -89.9583279,0.529167 c 0.721095,9.137121 3.66567,15.863094 8.995833,23.283334 h 0.264583 l 1.058334,-11.90625 c -1.259946,0.439473 -4.144486,2.999052 -5.448459,2.318279 -1.089607,-0.56859 0.167058,-3.163623 0.504058,-3.905779 1.722596,-3.794125 4.877197,-6.398155 8.383984,-8.466667 -2.813844,-1.685661 -6.029589,0.906727 -7.14375,3.439583 l -1.322866,-3.704166 c -2.266421,0.286543 -3.252364,-0.167746 -5.291667,-1.058334 m 66.145831,1.058334 -0.79375,3.439583 c -1.185862,-2.485496 -4.689739,-4.803511 -7.408333,-3.175 4.520936,2.779448 9.01409,7.051675 9.26042,12.7 l -5.820836,-2.645833 c 1.171045,4.096015 1.058333,7.149306 1.058333,11.377084 h 0.264583 c 4.90061,-6.502665 9.23713,-13.789555 9.26042,-22.225001 l -5.820837,0.529167 m -46.037498,2.910416 c 3.140868,2.502165 3.525573,6.97918 -1.058333,8.220869 -1.710267,0.463286 -3.173677,-0.283898 -4.7625,-0.812535 1.524264,4.808802 -1.081882,7.899135 -2.645834,12.170834 3.954463,-2.604559 7.15645,-3.996267 11.90625,-2.910417 -0.734219,-2.021417 -1.629039,-3.726127 -0.432065,-5.820569 1.741752,-3.047736 6.002338,-3.344069 7.575815,-2.65e-4 -3.766608,0.90805 -2.008981,5.176838 1.023144,3.432175 2.232818,-1.284816 1.190889,-5.562335 -0.316442,-6.955367 -1.644385,-1.520031 -4.158721,-1.503627 -6.262952,-1.503891 0,-2.275946 -0.04392,-4.840552 -1.901031,-6.474619 -1.481138,-1.303073 -6.146271,-2.233877 -7.163065,0.153194 -1.401762,3.291946 3.840692,4.722548 4.037013,0.500591 m 20.637499,10.847917 c 2.579423,-3.237706 7.546975,-3.194579 8.379354,1.5875 0.285221,1.63883 -0.481542,2.858294 -1.235604,4.233334 5.180012,-1.068652 8.116093,0.485246 12.435416,3.175 -2.808816,-4.511146 -4.236773,-7.51258 -2.38125,-12.700001 -1.74916,1.051719 -3.461014,1.956594 -5.55625,1.338263 -4.321968,-1.275556 -4.131733,-5.868988 -1.058333,-8.217429 0.348192,0.995627 0.754063,2.012685 1.856052,2.361141 1.964267,0.620713 2.955925,-1.881981 2.065338,-3.359943 -1.938867,-3.217863 -7.509669,-0.295011 -8.359775,2.321718 -0.366448,1.127655 0.103717,3.221038 -0.748242,4.07379 -0.587375,0.58764 -1.727993,0.438944 -2.486289,0.601133 -1.834356,0.392113 -3.699404,1.245394 -4.580467,2.998259 -1.259416,2.505604 0.792956,6.946371 3.990711,4.979458 2.449512,-1.506802 -1.066007,-3.129756 -2.320661,-3.392223 m -43.656245,-6.35 -6.879166,11.641667 c 1.79255,-0.331523 3.07724,-0.208227 4.23333,1.322917 -0.94763,0.142081 -1.85078,0.391583 -2.64094,0.965464 -4.86772,3.535892 1.21008,8.74739 5.286776,8.548953 1.729578,-0.08414 4.126861,-1.286934 3.615977,-3.41339 -0.578088,-2.406385 -3.516367,-0.456406 -3.880563,1.042723 -4.73808,-0.964671 -1.15234,-6.062663 2.116666,-6.35 -1.58647,-2.774421 -2.871866,-3.544094 -1.5875,-6.879167 l 5.55625,3.96875 -3.357933,-6.085417 -2.462897,-4.7625 m 76.729161,0 -4.49792,10.847917 5.02709,-3.96875 c 1.01176,3.192198 -0.0844,4.238096 -1.5875,6.879167 2.3024,0.202406 6.65771,3.961342 3.17103,5.88645 -1.10861,0.612246 -2.26034,-1.738577 -3.69888,-1.602317 -3.22871,0.306123 -0.41698,3.883555 1.3216,4.306094 2.06692,0.502444 4.7445,0.06376 6.26295,-1.502833 2.92126,-3.014134 1.53723,-7.26493 -2.55879,-7.881144 0.97552,-1.686719 2.49291,-1.645973 4.23334,-1.322917 -1.04722,-3.628231 -4.99613,-9.001125 -7.67292,-11.641667 m -35.718749,12.7 c -0.563827,3.037682 0.291571,5.647796 3.175,7.143751 -1.18745,1.002241 -2.130954,1.541991 -3.704167,1.322916 0.359304,1.934634 0.309827,3.493823 -0.529166,5.291669 7.184231,-0.0198 17.850643,-3.178441 22.224999,-9.260419 -3.968485,0 -7.575814,0.178594 -11.377083,-1.058333 l 2.910417,6.085417 c -6.530975,-0.284692 -8.901377,-5.322094 -12.7,-9.525001 m -5.027083,0.264584 c -2.179373,4.661165 -7.069667,9.149027 -12.435417,9.260417 l 2.910417,-6.085417 c -3.537214,1.362604 -7.112793,1.058333 -10.847916,1.058333 4.646347,5.707857 14.511601,9.200886 21.695832,9.260419 l -0.529166,-5.291669 c -1.450181,0.214577 -2.356644,-0.409045 -3.439584,-1.322916 2.743465,-1.423459 3.719248,-3.946261 3.175,-6.879167 h -0.529166 m -28.045833,1.852083 v 4.7625 l 2.645834,-1.322916 c -0.383514,-1.490663 -1.283944,-2.716213 -2.645834,-3.439584 m 60.854165,0 -2.116667,3.175 2.645834,1.852084 h 0.264583 l -0.79375,-5.027084 m -57.414581,3.439584 -2.116667,3.439583 c 2.124339,-0.871273 3.31761,-1.040871 5.55625,-0.529167 v -0.264583 l -3.439583,-2.645833 m 51.064581,2.645833 v 0.264583 l 5.820833,0.529167 -2.116666,-3.439583 -3.704167,2.645833 m -66.939577,3.175 c 1.65785,3.554942 6.501073,7.470242 9.789579,9.525002 -1.015973,-4.44236 -0.548561,-6.83445 1.5875,-10.847919 -4.213807,1.213909 -6.876493,3.000376 -11.377079,1.322917 m 75.141657,-1.322917 2.32569,6.614579 -0.73819,4.23334 c 3.46657,-2.29262 7.38426,-5.75866 9.26042,-9.525002 -4.08226,1.572154 -7.044,0.260879 -10.84792,-1.322917 m -51.858328,1.058334 3.704166,5.556245 c -2.621227,0.8308 -4.561681,0.30295 -6.35,-1.85208 -1.613958,2.63816 -4.350543,6.27459 -7.408333,2.38125 1.422744,-0.45826 4.0894,-3.45069 1.295162,-4.106861 -2.227818,-0.523346 -3.162326,2.745581 -3.132958,4.371441 0.107554,5.95234 8.289131,8.92466 9.246129,1.85209 2.065338,0.98689 1.643327,2.34024 1.322917,4.23333 4.365096,-1.25756 8.319558,-5.05063 12.170833,-7.40833 l -10.847916,-5.027085 m 39.952082,0 -10.847917,5.027085 c 3.514461,2.32568 7.651486,6.13674 11.641667,7.40833 -0.247386,-1.95924 -0.305329,-3.49329 1.852083,-4.23333 0.273315,5.96476 7.685881,5.0964 8.855873,0 0.42227,-1.83939 0.2704,-4.76832 -1.462092,-5.924816 -1.389062,-0.9271 -2.992967,0.413276 -2.4003,1.952096 0.42545,1.10384 1.613958,1.61263 2.150269,2.6498 -3.198283,1.13533 -6.312958,0.98134 -6.35,-3.175 -2.778125,1.72985 -4.117446,2.60429 -7.408333,1.85208 l 3.96875,-5.556245 m -31.220833,15.345835 c -2.224881,0.17939 -3.827991,-0.76888 -3.439583,-3.175 -3.114939,1.7272 -6.174052,3.15198 -9.789583,3.43958 v 0.26458 c 6.848739,3.89758 16.251237,5.81555 24.077083,5.82084 -1.042459,-2.46248 -2.88634,-3.73539 -2.910417,-6.61459 -6.063721,1.92141 -8.918839,-7.0821 -2.116667,-7.14375 -0.738716,1.11919 -1.425045,4.85246 1.061509,4.36775 2.954073,-0.576 2.004218,-4.97682 -0.01376,-6.0378 -5.417872,-2.84824 -9.321799,4.85458 -6.868583,9.07839 m 8.995833,-9.525 2.116667,3.43958 1.852083,-3.175 -3.96875,-0.26458 m 7.14375,2.11666 c 6.762485,0.0606 4.048919,9.09823 -2.116666,7.14375 0.528902,2.89349 -1.432719,4.23836 -2.645834,6.61459 7.876911,-0.005 16.844962,-2.11005 23.8125,-5.82084 v -0.26458 c -3.531129,-0.15187 -6.264804,-1.778 -9.260417,-3.43958 0.157692,2.20027 -1.261798,3.47821 -3.439583,3.175 0.780256,-1.52718 1.36869,-3.0316 0.846667,-4.7625 -0.8636,-2.86332 -4.999831,-5.99334 -7.979833,-4.20952 -1.794405,1.07394 -2.938198,5.41549 -0.01032,5.9182 2.818606,0.48366 1.745456,-3.25544 0.793486,-4.35452 z"
       id="path1624" />
  </g>
</svg>
