<svg width="410" height="231" viewBox="0 0 410 231" fill="none" xmlns="http://www.w3.org/2000/svg">
<path d="M116.299 149.78C116.227 149.925 116.154 149.997 116.009 150.142C117.097 151.738 117.968 153.479 118.258 155.438C119.129 161.387 116.662 168.496 114.123 173.865C111.294 179.886 107.376 185.037 102.516 189.607C101.427 190.623 99.904 189.099 100.339 187.866C102.878 181.192 101.718 173.865 103.459 166.973C105.055 160.734 108.319 155.438 112.89 151.013C112.599 150.65 112.309 150.36 111.947 149.997C107.594 145.572 103.604 141.437 100.702 135.851C97.7277 130.192 96.2042 123.881 95.6964 117.57C95.6239 116.409 96.8571 115.756 97.8002 116.409C108.102 123.373 122.901 135.633 116.299 149.78Z" fill="white"/>
<path d="M97.5828 140.639C98.8886 144.484 99.469 148.329 98.0181 152.101C98.9612 153.77 99.7592 155.438 100.267 157.324C103.096 168.206 95.6241 177.492 88.95 185.182C88.152 186.125 86.701 185.472 86.7736 184.239C87.5716 173.212 89.893 162.838 94.8987 152.827C94.6085 152.319 94.3183 151.811 93.9556 151.303C88.4421 142.888 85.4678 134.11 87.0638 123.954C87.2814 122.43 89.3127 122.358 89.893 123.663C92.5047 129.177 95.5516 134.763 97.5828 140.639Z" fill="white"/>
<path d="M82.7835 157.252C82.6384 157.832 82.1306 157.977 81.6953 157.832C81.9855 158.34 82.2757 158.92 82.4933 159.501C85.5402 166.61 84.6697 174.808 80.7522 181.264C79.4464 185.254 76.1093 189.027 73.4977 192.146C72.337 193.524 69.943 192.581 70.2332 190.768C71.8292 180.684 74.731 170.745 79.1562 161.532C79.3013 161.314 79.4464 161.097 79.5915 160.952C78.6484 158.703 77.3426 156.526 76.1093 154.205C73.7153 149.635 73.2801 144.266 72.9173 139.188C72.5546 133.675 72.6997 128.234 72.9173 122.72C72.9899 121.269 75.0212 120.979 75.8191 121.995C83.1462 131.353 86.3382 145.717 82.7835 157.252Z" fill="white"/>
<path d="M71.3939 156.962C71.3214 157.107 71.3214 157.179 71.2488 157.324C71.9743 158.775 72.5547 160.299 72.7723 161.895C73.7154 167.626 70.5959 173.575 67.549 178.29C63.7041 184.239 58.4083 189.099 52.4596 192.872C51.2264 193.67 49.848 192.509 50.2833 191.131C54.1282 179.378 60.1494 168.206 68.0569 158.703C67.7667 158.122 67.4765 157.542 67.0412 156.962C63.8492 152.101 59.9318 148.039 57.3202 142.815C54.636 137.52 53.2576 131.716 52.6773 125.84C52.5322 124.316 54.2733 123.518 55.434 124.316C66.0981 131.716 75.6741 143.251 71.3939 156.962Z" fill="white"/>
<path d="M58.7714 157.034C58.6263 157.76 58.046 157.978 57.5382 157.832C58.2636 158.848 58.9165 160.009 59.0616 161.315C59.7145 166.248 55.0716 172.124 52.1698 175.679C48.1798 180.612 43.2468 184.602 37.7333 187.649C36.6451 188.301 35.2668 187.358 35.7746 186.053C39.692 175.243 45.5682 165.595 53.4756 157.325C53.3305 157.107 53.1129 156.962 52.9678 156.744C45.7133 148.837 40.345 138.39 39.6195 127.509C39.547 126.493 40.7802 126.058 41.4331 126.783C43.9722 129.757 47.7446 131.861 50.5013 134.763C52.6776 136.939 54.5638 139.333 56.0873 142.018C58.4812 146.66 60.0047 151.884 58.7714 157.034Z" fill="white"/>
<path d="M47.1637 157.76C46.6559 159.646 45.5677 162.04 44.0442 163.636C42.6659 166.393 40.8522 168.932 39.1837 171.036C35.7015 175.533 31.3488 179.233 26.4883 182.062C25.6177 182.57 24.0217 182.28 24.0217 180.974C24.0217 172.341 29.8254 165.957 36.2819 160.734C24.8923 165.087 12.0518 161.169 0.807285 156.889C-0.280893 156.454 -0.280893 154.64 0.87983 154.35C7.62653 152.464 15.1712 148.982 22.2807 149.054C27.1412 149.127 32.0017 151.013 36.5721 153.117C32.0743 148.547 28.6646 142.67 25.4727 137.157C24.8923 136.141 25.7628 134.908 26.9236 135.343C36.2093 139.116 44.7697 146.66 47.8891 156.454C48.1068 157.034 47.6715 157.615 47.1637 157.76Z" fill="white"/>
<path d="M40.562 157.397C41.5051 157.542 42.5207 157.615 43.4638 157.687C43.3187 157.832 43.2462 158.05 43.1011 158.195C33.5251 161.459 26.053 170.89 23.3688 180.176C23.2962 180.539 23.5139 180.974 23.9492 180.902C35.9917 179.451 42.0129 168.424 46.0029 158.268C46.0029 158.195 46.0754 158.122 46.0754 157.977C46.148 157.905 46.2205 157.905 46.3656 157.832C49.9203 158.122 53.5476 158.268 57.1023 158.268C46.6558 164.724 38.8935 174.518 35.1211 186.197C34.976 186.778 35.4838 187.14 35.9917 186.85C46.7283 180.611 57.465 171.398 58.5532 158.195C62.4707 158.195 66.3156 158.05 70.233 157.76C59.4963 165.377 56.7396 179.233 50.2105 189.97C49.9203 190.478 50.4282 191.058 50.936 190.768C57.6827 186.633 63.4863 181.047 67.6214 174.227C70.0879 170.165 74.8759 162.403 71.7564 157.687C74.9484 157.47 78.1404 157.107 81.3324 156.744C81.3324 156.744 81.3324 156.817 81.2599 156.817C76.617 168.134 72.1917 179.596 71.2486 191.928C71.2486 192.291 71.6839 192.799 72.0466 192.436C81.1873 183.658 86.2655 169.73 83.0735 157.179C83.2186 157.252 83.4362 157.252 83.5088 156.962C83.5813 156.744 83.6539 156.599 83.7264 156.381C87.7164 155.874 91.7064 155.221 95.6964 154.495C87.4988 162.403 87.6438 174.518 86.2655 185.327C86.1929 185.907 86.8458 186.125 87.2086 185.762C94.6807 178.145 101.645 165.087 99.2511 153.915C104.329 152.972 109.407 151.884 114.413 150.723C112.672 153.697 109.988 156.091 108.174 158.993C106.361 161.895 104.982 165.087 104.039 168.351C102.008 175.171 103.676 182.933 100.702 189.462C100.484 189.897 101.065 190.405 101.5 190.115C107.594 184.892 112.237 178.145 114.776 170.528C116.734 164.724 118.548 156.381 115.936 150.433C124.642 148.401 133.202 146.225 141.763 144.049C142.561 143.831 142.125 142.598 141.327 142.815C132.985 144.919 124.569 147.023 116.227 148.909L116.154 148.837C117.315 142.96 114.34 137.52 111.221 132.732C107.159 126.42 102.153 120.689 95.116 117.57C94.6807 117.352 94.1729 117.86 94.318 118.295C98.8883 129.54 101.935 144.339 114.486 149.344C109.407 150.505 104.257 151.521 99.106 152.536C105.2 142.308 93.52 131.353 88.3693 123.591C88.0791 123.156 87.3537 123.373 87.2811 123.881C86.7008 129.032 87.136 134.182 88.732 139.043C90.4731 144.339 93.5926 148.546 96.9296 152.972C92.7946 153.697 88.5869 154.423 84.3793 155.003C87.7164 143.613 80.8246 132.224 73.8603 123.591C73.5701 123.228 72.7721 123.301 72.7721 123.881C72.4093 134.908 72.4093 147.313 80.607 155.583C77.7051 155.946 74.8759 156.236 71.9741 156.526C74.223 151.521 71.1035 144.919 68.637 140.566C65.0823 134.328 59.859 129.467 53.6201 125.985C53.1849 125.767 52.6045 126.275 52.8221 126.71C55.6514 132.224 56.667 138.463 59.5688 144.049C62.1079 148.909 65.5176 153.117 69.5801 156.744C66.1705 157.034 62.6883 157.252 59.2787 157.324C61.0198 152.464 57.5376 146.95 54.8534 143.033C50.8634 137.302 45.5676 132.804 39.4738 129.54C38.966 129.322 38.5307 129.83 38.6758 130.265C42.0129 140.857 47.2362 151.158 56.7396 157.397C54.0554 157.47 51.3712 157.47 48.6871 157.397C45.2049 147.096 36.7896 139.261 26.5608 135.924C26.1981 135.778 25.6902 136.141 25.9079 136.576C30.3331 145.572 37.4426 152.754 46.3656 157.324C44.6971 157.252 43.0285 157.179 41.36 157.107C41.5051 157.034 41.5776 156.817 41.4325 156.672C29.6077 147.313 13.4301 150.94 0.517047 155.656C0.0817755 155.801 0.154321 156.454 0.589592 156.526C8.20684 158.122 15.9692 160.226 23.7315 161.024C29.4626 161.605 35.4838 160.879 40.562 157.397ZM113.542 147.821C102.806 142.598 99.8314 129.83 95.7689 119.383C101.5 122.358 105.78 127.146 109.407 132.441C112.672 137.229 115.864 142.598 115.211 148.546C114.921 148.401 114.631 148.329 114.268 148.184C109.915 140.131 105.345 132.224 100.267 124.607C100.194 124.461 99.9765 124.607 100.049 124.752C104.765 132.296 109.335 139.986 113.542 147.821ZM115.356 151.448C115.356 151.521 115.429 151.593 115.429 151.666C115.356 151.666 115.211 151.666 115.211 151.811C112.454 161.967 109.335 171.979 105.563 181.772C105.49 182.062 105.853 182.207 105.998 181.917C109.77 172.124 113.107 162.185 115.574 151.956C117.315 158.122 115.284 166.175 113.18 171.688C110.858 177.855 107.086 183.368 102.298 187.866C104.112 182.135 103.169 175.678 104.692 169.802C105.78 165.667 107.594 161.75 110.06 158.195C111.656 156.019 114.123 153.987 115.356 151.448ZM97.9453 152.609C95.116 148.401 91.924 144.629 90.1104 139.768C88.4418 135.198 87.8615 130.483 88.1517 125.695C93.52 133.239 102.371 141.945 98.4531 151.521C98.4531 151.448 98.4531 151.448 98.3805 151.376C98.2354 150.94 97.6551 151.231 97.7276 151.593C97.8002 151.884 97.8727 152.174 97.9453 152.464C98.0178 152.536 97.9453 152.536 97.9453 152.609ZM97.6551 154.495C95.6238 162.91 93.0847 171.035 89.4575 178.943C89.3124 179.233 89.8202 179.451 89.9653 179.161C93.5925 171.181 96.4218 162.91 98.0903 154.278C98.1629 154.278 98.308 154.278 98.3805 154.205C99.9765 164.869 94.6082 176.259 87.4988 184.021C88.6595 173.502 88.9497 161.822 97.6551 154.495ZM73.7877 125.55C80.4619 134.182 85.7577 144.121 83.2911 155.076C82.9284 155.148 82.5657 155.148 82.1304 155.221C80.3168 147.023 77.5601 139.043 75.2386 130.991C75.0935 130.628 74.5132 130.845 74.6582 131.208C77.0522 139.188 79.0835 147.386 81.9128 155.221C73.9328 147.458 73.4975 136.141 73.7877 125.55ZM82.2755 157.397C82.2755 157.324 82.2755 157.324 82.2755 157.252C84.0166 169.512 81.1148 181.627 72.3368 190.695C73.3524 180.321 76.9072 170.528 80.8246 160.952C79.809 169.73 77.9228 178.145 74.6582 186.415C74.5132 186.705 75.021 186.923 75.0935 186.633C78.5757 178.072 80.752 168.932 81.2599 159.718C81.6226 158.92 81.9128 158.195 82.2755 157.397ZM59.6414 141.727C57.5376 137.302 56.5945 132.369 54.5632 127.871C59.2061 130.7 63.1961 134.473 66.243 139.043C69.3624 143.686 73.1348 150.795 70.8859 156.454C70.8859 156.381 70.8134 156.309 70.7408 156.164C70.6683 156.091 70.6683 156.091 70.5957 156.019C70.5957 156.019 70.6683 155.946 70.5957 155.874C67.9115 147.894 63.4863 140.276 58.6983 133.384C58.4807 133.094 57.9729 133.457 58.1905 133.747C62.9785 140.712 66.6057 148.111 70.233 155.728C65.8077 151.811 62.1805 147.168 59.6414 141.727ZM71.1761 158.63C71.2486 158.848 71.3212 159.065 71.3937 159.283C66.9685 168.134 61.8177 176.404 55.3612 183.949C55.1436 184.239 55.5789 184.529 55.7965 184.311C62.1079 176.912 67.5488 168.714 71.5388 159.791C72.6995 165.449 66.7508 174.01 63.9216 177.782C60.657 182.135 56.667 185.835 52.0967 188.882C58.0454 178.363 61.0923 166.102 71.1761 158.63ZM40.0542 131.208C44.7696 133.892 48.9047 137.374 52.3143 141.655C55.5063 145.645 59.7865 151.738 58.4081 157.107C58.0454 156.889 57.6827 156.672 57.3925 156.454C54.0554 148.329 48.7596 140.857 42.8109 134.4C42.5933 134.182 42.158 134.473 42.3756 134.69C48.2518 141.219 52.7496 148.256 56.7396 156.019C48.1792 150.215 43.2462 140.929 40.0542 131.208ZM57.5376 159.573C55.2887 171.253 46.5107 179.378 36.572 185.327C40.2718 175.171 47.0185 166.61 55.9416 160.589C52.3143 168.641 47.1636 175.461 40.4895 181.337C40.1993 181.555 40.562 181.99 40.7796 181.772C47.8165 176.114 53.2574 168.569 56.5219 160.154C56.8847 160.009 57.1749 159.791 57.5376 159.573ZM45.2774 155.728C37.5151 151.448 31.2762 145.064 27.1411 137.229C36.4995 140.639 43.6089 147.748 47.5263 156.889C47.5263 156.889 47.5263 156.889 47.4538 156.889C46.946 156.672 46.4382 156.381 45.9303 156.091C42.3756 149.344 36.9347 143.831 30.4782 139.914C30.2606 139.768 29.9704 140.059 30.188 140.204C36.4269 144.266 41.36 149.417 45.2774 155.728ZM44.552 158.775C42.6658 163.491 40.562 168.206 37.2975 172.196C35.5564 174.227 33.5251 176.114 31.2037 177.492C29.8979 178.29 28.5195 178.87 27.0686 179.306C24.0942 180.249 24.7471 179.451 25.4001 177.492C28.0842 169.149 34.6133 163.781 42.0129 160.009C37.8778 166.247 33.1624 171.833 27.4313 176.694C27.1411 176.984 27.5039 177.419 27.794 177.202C33.6702 172.196 38.8209 166.32 42.7384 159.646C43.3187 159.356 43.9716 159.065 44.552 158.775ZM39.9816 156.526C33.9604 160.661 26.851 160.589 19.8866 159.428C13.8654 158.413 7.91666 157.107 1.96795 155.874C13.9379 151.593 26.851 149.417 38.3856 155.656C27.7215 154.35 16.9123 154.495 6.24812 155.511C5.95794 155.511 5.95794 156.019 6.32066 156.019C17.275 155.003 28.1568 155.221 39.1836 156.164C39.4738 156.236 39.764 156.381 39.9816 156.526Z" fill="#1D1D1B"/>
<path d="M406.287 152.686C399.54 150.73 392.34 151.006 385.461 151.323C378.329 151.575 371.247 152.193 364.19 152.88C350.328 154.319 336.427 156.309 322.539 157.45C298.244 159.367 273.107 158.197 250.694 147.632C248.502 146.627 248.538 144.08 249.712 142.597C249.799 142.183 249.977 141.813 250.409 141.509C260.12 134.755 271.578 130.158 282.822 126.71C294.271 123.191 306.057 120.861 317.997 119.859C339.494 118.07 361.912 120.032 381.78 129.024C392.257 133.754 401.565 140.426 408.951 149.302C410.42 151.096 408.268 153.303 406.287 152.686Z" fill="white"/>
<path d="M407.581 151.545C356.578 142.469 301.791 165.814 252.581 144.441C244.895 146.191 237.304 148.215 229.671 150.561C229.397 150.657 229.161 150.201 229.436 150.106C236.768 147.557 244.287 145.327 251.857 143.464C251.786 143.258 251.759 142.96 252.009 142.797C270.465 129.162 294.435 123.441 316.862 120.791C339.06 118.145 362.142 120.029 382.347 130.21C392.23 135.222 401.059 142.061 407.983 150.714C408.4 151.03 408.087 151.676 407.581 151.545ZM288.065 127.652C275.925 130.951 264.124 135.667 253.848 143.003C297.854 132.391 344.893 132.937 388.731 143.274C389.398 143.426 389.252 144.552 388.585 144.4C343.895 133.821 298.13 134.292 253.725 144.197C303.043 163.229 355.583 141.817 406.187 150.186C377.508 116.07 327.642 116.891 288.065 127.652Z" fill="#1D1D1B"/>
<path d="M314.942 20.8985C314.891 26.416 310.547 31.2014 305.825 33.6007C305.575 33.6756 305.324 33.7506 305.064 33.7234C304.331 34.1525 303.244 34.0996 302.842 33.1067C298.722 23.7545 299.113 13.0532 303.929 3.94737C304.456 2.97073 306.192 2.80837 306.511 4.01505C308.125 10.2528 314.971 14.0435 314.942 20.8985Z" fill="white"/>
<path d="M331.436 30.8965C327.418 35.8576 324.238 42.0797 318.45 45.1969C313.302 47.9967 307.384 47.5196 301.819 46.9579C301.661 46.9212 301.503 46.8844 301.345 46.8477C289.173 48.9131 283.087 37.2716 280.812 26.7164C280.465 25.2033 281.948 23.9827 283.325 24.9359C287.884 27.9616 293.884 27.6582 298.323 31.0557C300.929 33.0275 302.784 35.7907 303.535 38.8633C305.321 35.9142 308.026 33.4458 311.069 31.8218C313.277 30.6365 315.671 29.7945 318.113 29.4631C321.567 28.9341 326.327 30.8074 329.089 28.3853C330.609 27.0067 332.686 29.3886 331.436 30.8965Z" fill="white"/>
<path d="M298.15 61.1606C305.292 53.7951 317.102 55.5761 326.49 54.5953C328.431 54.4139 329.013 56.7809 327.725 57.8803C322.46 62.1851 319.308 68.1471 312.188 69.6886C307.286 70.7137 301.58 69.753 297.8 66.2423C286.014 66.3654 279.541 56.0997 274.65 46.768C274.025 45.59 274.698 43.9813 276.269 44.2467C281.872 45.2169 288.746 45.4501 293.058 49.6839C295.908 52.6117 297.758 56.9725 298.15 61.1606Z" fill="white"/>
<path d="M305.693 72.4084C308.434 72.5128 310.925 73.2587 313.325 74.683C316.488 76.5512 319.18 79.4423 322.906 80.1758C324.904 80.6073 324.985 83.1242 323.26 83.9553C312.59 88.8684 299.767 90.5825 290.902 81.7255C286.288 82.5175 281.338 83.0318 277.309 80.1627C272.34 76.6087 269.118 69.697 265.714 64.7085C265.118 63.8369 265.597 62.3495 266.786 62.3929C272.666 62.4615 278.806 62.5572 283.987 65.6277C288.518 68.3469 290.395 72.4476 291.355 77.2008C295.564 74.2827 300.631 72.2634 305.693 72.4084Z" fill="white"/>
<path d="M280.205 94.0598C283.699 91.2086 288.919 90.8236 293.119 91.6674C295.851 92.2363 298.427 93.335 300.781 94.8152C303.739 96.7024 306.384 99.0828 309.869 99.9934C311.561 100.453 312.106 102.979 310.203 103.569C299.14 107.024 285.798 109.251 278.163 98.1148C277.93 97.8275 277.845 97.4747 277.816 97.1683C266.516 98.637 258.4 88.4219 254.224 79.0233C253.71 77.9379 254.904 76.3837 256.076 76.7894C265.343 79.4778 279.143 82.1547 279.982 93.8746C280.093 93.9672 280.149 94.0135 280.205 94.0598Z" fill="white"/>
<path d="M267.354 110.357C277.872 104.376 290.906 108.774 297.174 119.058C297.901 120.227 297.524 121.705 296.133 122.247C290.324 124.593 284.265 127.015 277.881 125.963C272.333 125.039 268.405 121.594 265.94 116.724C265.688 116.232 265.492 115.787 265.24 115.295C260.225 115.661 255.022 115.117 250.65 112.434C244.919 109.003 242.218 102.712 239.807 96.7552C239.143 95.1686 241.23 93.7886 242.514 94.8534C246.572 98.029 252.115 97.2531 256.838 98.7179C261.3 100.155 264.02 103.353 266.102 107.435C266.494 108.325 266.952 109.364 267.354 110.357Z" fill="white"/>
<path d="M253.9 126.814C257.559 122.968 261.302 118.909 265.09 114.794C267.545 119.562 271.113 123.556 276.633 124.74C283.157 126.191 289.625 123.731 295.638 121.366C296.037 121.226 296.092 120.705 295.812 120.474C291.129 116.12 287.716 111.03 281.044 109.644C276.415 108.634 271.495 109.455 267.517 112.094C271.62 107.485 275.657 102.729 279.527 97.833C286.321 106.575 299.184 105.836 308.734 102.727C309.133 102.587 309.197 102.169 309.01 101.826C303.507 93.118 291.366 88.895 282.323 94.1197C285.34 90.0251 288.2 85.8936 290.79 81.6329C300.174 89.9777 311.759 87.1429 322.42 82.6942C322.717 82.5635 322.939 82.1821 322.65 81.8484C315.074 72.4586 302.195 74.1264 292.39 78.9072C295.044 74.2283 297.428 69.4201 299.384 64.4457C302.727 67.6881 307.504 68.6326 312.053 67.6921C318.681 66.4025 323.777 61.3923 328.233 56.6995C328.464 56.4202 328.37 55.9653 327.998 55.8455C318.535 52.7117 308.257 54.6515 300.601 60.9316C302.307 56.0321 303.529 50.9203 304.277 45.6983C315.663 48.4463 326.54 41.3499 329.837 30.3253C329.911 30.0093 329.622 29.6757 329.362 29.6485C324.29 29.4014 318.978 29.898 314.405 32.2318C309.238 34.8273 307.596 39.3086 304.541 43.5612C304.922 39.9192 305.043 36.2499 304.847 32.5071L304.894 32.4513L304.996 32.4417C309.373 29.6625 311.971 24.9373 312.264 19.8093C312.351 17.4313 312.02 14.9892 310.992 12.8184C309.432 9.35776 306.565 6.7922 305.496 3.07954C305.347 2.57835 304.687 2.6915 304.512 3.01704C299.027 12.1338 296.03 24.1608 304.244 32.6666C304.356 32.7592 304.467 32.8518 304.57 32.8423C304.492 35.3225 304.313 37.8123 304.022 40.2094C303.391 36.765 301.395 33.6027 298.556 31.3436C293.549 27.381 287.036 26.5989 280.868 26.7633C280.562 26.792 280.284 27.1271 280.415 27.424C282.713 32.7218 285.655 38.8354 290.179 42.5856C293.819 45.6972 298.631 45.9171 303.256 45.7938C302.23 51.3509 300.72 56.6957 298.885 61.8648C298.139 57.1946 296.549 52.8609 292.103 50.4945C287.164 47.8135 280.557 46.5765 274.984 46.4793C274.621 46.4617 274.363 47.001 274.596 47.2884C278.537 51.969 279.861 57.8731 285.183 61.3426C288.97 63.8222 293.44 64.7953 297.972 64.2171C296.135 68.8196 293.982 73.3486 291.504 77.702C290.832 72.7158 287.987 68.1903 283.708 65.3962C278.497 62.0192 272.07 62.1565 266.163 62.3481C265.754 62.3863 265.588 62.814 265.775 63.1572C268.983 68.2669 271.965 75.3557 277.221 78.6768C280.784 80.9712 285.355 81.3682 289.553 81.0787C286.658 85.9348 283.392 90.671 279.957 95.2683C279.957 95.2683 280.004 95.2125 279.948 95.1661C279.306 83.8916 263.546 81.1919 255.178 78.2131C254.806 78.0933 254.324 78.4475 254.465 78.8466C256.401 84.1268 259.157 90.4637 264.088 93.6092C268.368 96.4033 273.7 96.6776 278.661 96.8321C274.754 101.886 270.633 106.856 266.345 111.688C265.533 99.1414 249.86 97.9277 240.695 95.2296C240.323 95.1098 240.008 95.6029 240.139 95.8998C243.611 106.034 252.46 115.82 263.833 113.469C263.889 113.515 263.944 113.561 264.047 113.552C264.149 113.542 264.307 113.579 264.409 113.569C264.465 113.616 264.474 113.718 264.474 113.718C260.695 117.935 256.851 122.004 252.96 126.129C252.544 126.632 253.437 127.372 253.9 126.814ZM304.906 4.47433C306.729 9.09533 310.75 12.4289 311.246 17.7406C311.753 23.1545 309.202 28.3905 304.919 31.6246C304.91 31.5224 304.752 31.4857 304.706 31.5415C304.65 31.4952 304.65 31.4952 304.594 31.4489C304.594 31.4489 304.696 31.4394 304.64 31.3931C306.787 24.5977 305.949 16.7418 303.378 10.1814C303.247 9.8845 302.746 10.0344 302.831 10.3871C305.394 17.4119 305.494 23.9972 304.482 31.3563C297.561 23.451 300.273 12.7901 304.906 4.47433ZM305.465 45.1751C310.961 40.591 316.915 37.0462 323.559 34.2611C323.754 34.1399 323.623 33.843 323.428 33.9642C316.858 36.4333 310.802 39.9877 305.454 44.5063C307.926 41.184 309.253 37.1958 312.832 34.6973C314.76 33.2805 316.996 32.4017 319.308 31.7734C321.118 31.2951 324.682 30.2921 326.587 30.8352C331.449 32.1324 321.636 41.2417 319.586 42.4638C315.236 44.9828 310.352 45.6455 305.465 45.1751ZM303.355 44.651C297.439 44.7405 292.43 44.0753 288.517 39.1346C286.998 37.2158 285.674 35.1757 284.442 33.0239C284.124 32.3838 281.682 28.8512 281.987 28.2559C282.412 27.2888 283.165 27.6305 284.252 27.6835C293.458 28.0593 304.478 33.5206 303.41 44.1308C299.504 38.7256 294.743 32.9882 287.802 32.04C287.542 32.0128 287.478 32.4309 287.738 32.4581C294.773 33.8612 299.189 39.2187 303.355 44.651C303.402 44.5952 303.355 44.651 303.355 44.651ZM299.643 63.9063C299.689 63.8505 299.689 63.8505 299.68 63.7483C306.473 61.4645 313.379 59.8399 320.426 58.6143C320.63 58.5952 320.602 58.2888 320.397 58.3079C313.424 59.2174 306.62 60.8325 299.929 63.1068L299.975 63.0509C303.477 59.7352 307.642 57.4396 312.376 56.2757C314.743 55.6937 317.139 55.4182 319.619 55.4955C320.91 55.5293 325.276 55.3788 326.171 56.6862C326.889 57.7525 321.595 61.7508 320.39 62.6363C318.221 64.2302 315.93 65.6294 313.424 66.3789C308.607 67.7566 303.394 67.1105 299.643 63.9063ZM298.173 63.0648C293.085 63.7466 288.075 62.5148 284.11 59.2276C280.312 56.0793 278.99 51.3083 276.11 47.5074C280.662 47.7001 285.458 48.8489 289.679 50.4636C295.397 52.6596 297.174 57.3364 298.247 62.7488C294.367 56.5169 288.263 52.3992 281.162 50.8476C280.846 50.7741 280.792 51.2944 281.052 51.3216C288.152 52.8732 293.894 56.9733 297.959 62.9818C298.025 63.1302 298.173 63.0648 298.21 62.9068C298.219 63.009 298.219 63.009 298.229 63.1111C298.275 63.0553 298.219 63.009 298.173 63.0648ZM291.428 80.7488C291.633 80.7297 291.772 80.5622 291.808 80.4042C299.245 78.9361 306.63 79.1215 314.102 80.7929C314.26 80.8296 314.333 80.5136 314.129 80.5327C307.093 78.563 299.708 78.3776 292.568 79.7149C297.031 77.855 301.671 76.2362 306.547 76.038C309.371 75.9285 312.14 76.3394 314.762 77.3823C316.259 77.9636 320.434 79.6342 320.661 81.5191C320.993 83.9612 308.004 86.103 305.793 86.1551C300.397 86.299 295.459 84.1845 291.428 80.7488ZM276.072 76.3112C272.246 72.8564 269.743 67.5776 267.066 63.191C271.84 63.0023 276.939 62.9892 281.31 65.1051C286.704 67.692 290.071 72.8385 290.875 78.6882C290.829 78.744 290.783 78.7999 290.792 78.9021C285.921 73.6387 279.948 69.8179 273.087 67.5226C272.771 67.4491 272.559 67.9326 272.875 68.0061C279.679 70.2551 285.606 74.1318 290.57 79.2835C290.431 79.451 290.348 79.6649 290.209 79.8324C285.268 79.8822 280.066 79.9049 276.072 76.3112ZM280.212 96.8931C280.444 96.6139 280.629 96.3905 280.805 96.0649C281.25 95.8687 281.639 95.6262 282.085 95.43C288.456 95.2465 294.599 96.4754 300.365 99.1822C300.579 99.2652 300.708 98.9955 300.494 98.9125C295.1 96.3255 289.301 94.91 283.272 94.9068C287.039 93.3181 290.929 92.4908 295.288 93.3713C300.436 94.4355 304.689 97.4898 307.617 101.801C297.909 104.873 287.496 104.816 280.212 96.8931ZM264.717 92.623C260.326 89.7362 257.748 84.2069 255.859 79.4375C264.366 82.2487 277.859 84.9542 279.325 95.1213C279.4 95.3719 279.614 95.4549 279.763 95.3895C279.716 95.4454 279.624 95.5571 279.577 95.6129C274.808 90.34 268.594 86.6963 261.569 85.3953C261.308 85.3681 261.244 85.7863 261.505 85.8135C268.503 87.3746 274.428 90.6847 279.346 95.8922C279.234 95.7996 279.178 95.7533 278.974 95.7724C274.218 95.5988 268.941 95.3708 264.717 92.623ZM265.742 111.848C265.64 111.857 265.64 111.857 265.538 111.867C265.538 111.867 265.491 111.923 265.435 111.876C260.813 105.971 253.929 101.772 246.458 100.667C246.198 100.64 246.134 101.058 246.394 101.085C253.867 102.757 260.061 106.196 265.036 112.017C253.862 115.38 245.116 106.151 241.478 96.4444C250.726 98.9286 264.235 100.139 265.742 111.848ZM265.887 113.946C266.026 113.779 266.118 113.667 266.257 113.5C273.484 113.648 280.372 115.683 286.595 119.429C286.707 119.522 286.892 119.298 286.725 119.16C280.863 115.431 274.226 113.321 267.342 112.986C271.887 110.346 277.058 109.45 282.153 111.035C287.461 112.702 290.537 116.948 294.336 120.663C289.418 122.617 284.184 124.498 278.833 124.019C272.645 123.413 268.547 119.262 265.887 113.946Z" fill="#1D1D1B"/>
<path d="M308.57 93.2616C311.389 87.5884 312.608 81.3434 317.603 76.9093C323.451 71.6742 331.54 71.124 338.892 69.3032C346.642 67.342 352.118 61.9871 357.016 55.9648C361.683 50.2219 366.068 43.1143 373.987 41.8586C380.431 40.7925 389.622 42.6637 394.936 46.5977C400.464 50.6148 402.897 57.9092 401.716 64.5628C400.517 71.5787 395.693 77.2849 389.804 80.9783C383.767 84.737 376.683 86.1206 370.45 89.434C363.53 93.1207 363.5 99.4091 361.399 106.149C359.262 113.046 353.933 117.769 347.448 120.591C340.313 123.628 332.261 124.02 325.331 127.605C317.957 131.385 315.407 140.485 307.334 143.404C303.195 144.873 298.874 144.401 294.546 144.394C290.58 144.404 286.792 145.222 283.314 147.144C276.163 151.11 273.541 161.092 264.916 162.517C260.858 163.206 256.527 162.065 252.55 161.406C247.634 160.629 242.709 159.75 237.728 158.825C236.418 158.587 235.478 157.902 234.983 157.021C234.295 156.827 233.83 156.253 233.948 155.314C234.495 151.245 235.685 147.991 237.337 144.178C238.944 140.421 240.327 136.479 242.259 132.898C245.994 126.006 251.942 123.492 259.032 121.078C262.679 119.861 265.509 118.72 267.907 115.714C270.259 112.764 272.425 110.036 275.69 108.031C281.143 104.636 287.484 103.579 293.695 102.226C299.645 100.845 305.567 99.1582 308.57 93.2616Z" fill="white"/>
<path d="M229.267 159.256C231.308 158.498 233.396 157.685 235.382 156.881C242.809 155.311 250.126 158.079 257.503 158.728C264.675 159.397 269.89 157.313 274.864 152.108C278.801 147.927 282.36 144.658 288.021 142.943C293.126 141.333 298.549 140.929 303.813 139.921C307.508 139.215 311.109 138.054 313.842 135.326C316.807 132.318 318.161 128.069 321.405 125.293C327.939 119.685 337.956 121.015 345.78 118.738C352.091 116.808 358.194 113.198 361.392 107.18C365.034 100.4 364.698 92.3938 371.727 87.6665C378.078 83.4147 386.26 82.7528 391.996 77.425C400.91 69.1726 401.458 54.644 391.611 46.8576C380.377 38.0159 366.493 46.0117 359.059 55.7744C356.402 59.3201 354.025 63.0974 350.81 66.1801C347.307 69.4958 343.029 71.1322 338.453 72.3329C331.612 74.106 323.905 74.8781 318.502 79.917C314.091 83.9874 312.323 89.8716 309.875 95.098C308.332 98.4365 306.474 101.702 303.545 103.985C300.328 106.501 296.346 107.44 292.39 108.119C286.3 109.1 279.547 109.062 274.084 112.355C271.163 114.174 269.498 116.751 267.545 119.561C264.722 123.534 260.919 125.281 256.417 126.732C250.218 128.755 244.743 130.812 241.777 137.117C238.932 143.051 238.596 149.934 234.998 155.526C234.951 155.582 234.961 155.684 234.915 155.74C232.929 156.544 230.887 157.301 228.846 158.059C228.001 158.395 228.515 159.481 229.267 159.256ZM238.964 155.516C248.252 151.814 257.354 147.768 266.315 143.324C308.59 122.679 347.558 94.7691 380.138 60.8105C380.323 60.5871 380.09 60.2997 379.849 60.4768C370.52 69.7985 360.743 78.7498 350.613 87.219C316.495 115.757 277.83 138.641 236.501 155.076C239.414 149.858 240.039 143.874 242.412 138.397C246.438 129.108 255.663 129.688 263.333 125.21C266.218 123.549 267.837 121.028 269.706 118.431C272.52 114.356 276.127 112.164 280.973 111.093C287.583 109.599 294.782 110.008 301.044 107.001C312.678 101.379 311.346 85.4806 321.909 78.8773C328.335 74.876 336.258 74.7535 343.283 72.1905C350.001 69.6561 354.066 64.6392 358.129 59.0556C362.785 52.6439 368.5 46.5453 376.475 44.7693C384.551 42.9838 392.457 47.0877 395.977 54.4351C399.433 61.6341 397.356 70.2777 391.853 75.8928C386.535 81.2845 378.8 82.3168 372.437 85.8999C366.807 89.0538 364.562 93.6945 362.803 99.6808C360.409 107.684 356.355 113.37 348.31 116.595C341.509 119.343 334.049 118.907 327.088 121.052C323.83 122.027 320.946 123.687 318.714 126.266C316.297 129.068 314.941 132.75 312.087 135.284C308.704 138.227 303.912 138.778 299.651 139.486C295.64 140.119 291.573 140.705 287.666 141.895C284.213 142.99 280.957 144.531 278.251 147C275.535 149.366 273.453 152.446 270.57 154.673C261.532 161.597 249.635 155.033 238.964 155.516Z" fill="#1D1D1B"/>
<path d="M152.074 186.39C164.274 189.874 176.887 191.558 189.591 191.474C191.283 191.441 192.265 190.14 192.364 188.794C192.724 188.14 192.846 187.379 192.53 186.464C186.13 165.732 170.322 148.157 153.419 135.121C144.298 128.08 134.509 121.886 124.099 117.024C113.012 111.9 101.413 109.923 89.7057 106.815C83.1134 105.039 76.8662 102.447 70.8796 99.1787C67.8862 97.5444 64.6167 96.4256 61.562 94.8299C58.4072 93.2111 55.3671 91.0924 52.3427 89.1352C48.7256 86.7788 45.1398 91.1664 47.4201 94.5317C61.3475 114.57 75.3446 134.992 92.9595 152.035C109.635 168.124 129.728 180.104 152.074 186.39Z" fill="white"/>
<path d="M195.241 190.244C193.11 189.439 191.002 188.534 188.833 187.668C188.856 187.568 188.879 187.468 188.801 187.345C179.751 168.531 164.938 153.5 148.505 140.94C130.14 126.936 110.256 116.11 88.3393 108.869C75.6768 104.648 62.8225 100.803 51.1567 94.0733C50.7411 93.82 50.0035 94.2823 50.3117 94.7741C74.397 133.617 108.182 168.264 152.562 182.66C164.47 186.498 176.807 188.698 189.319 188.99L189.38 188.951C191.211 189.687 193.004 190.362 194.858 190.998C195.512 191.359 195.818 190.482 195.241 190.244ZM74.8272 126.926C66.6259 117.255 59.2695 106.882 52.4665 96.1633C64.0627 102.509 76.7399 106.208 89.2024 110.383C103.48 115.134 116.93 121.431 129.689 129.359C152.791 143.818 175.06 162.139 187.34 187.062C165.375 177.969 144.161 167.206 124.052 154.38C101.55 140.059 80.844 123.412 61.3514 105.15C61.1358 104.942 60.744 105.273 60.9596 105.481C96.3836 141.241 140.465 169.779 187.326 188.27C142.615 185.64 103.289 160.458 74.8272 126.926Z" fill="#1D1D1B"/>
<path d="M311.953 125.332C310.575 120.979 309.559 115.756 304.916 113.87C299.983 111.838 294.18 111.258 288.884 110.678C288.666 110.678 288.449 110.605 288.231 110.605C288.086 109.227 288.521 107.558 287.868 106.18C287.215 104.801 286.055 103.931 284.604 103.496C279.888 102.045 273.794 102.625 268.861 102.625C265.089 102.625 259.14 101.682 255.731 103.641C254.497 104.294 253.699 105.454 253.554 106.833C253.409 107.993 253.844 108.864 254.352 109.734C253.554 109.734 252.684 109.734 251.886 109.662C249.347 109.589 246.517 109.662 244.559 107.776C243.035 106.252 242.455 104.076 241.875 102.117C240.859 98.4174 240.206 94.5 238.102 91.2354C235.853 87.6807 232.226 85.5043 228.236 84.2711C223.593 82.8927 218.588 82.8202 213.727 82.7476C207.706 82.6751 201.612 82.8202 195.591 83.1829C189.715 83.5456 183.766 83.9084 177.962 84.924C173.609 85.722 169.982 87.7532 167.588 91.5981C165.412 95.0803 164.686 99.2154 162.945 102.915C160.769 107.631 156.924 109.662 151.991 110.605C143.141 112.346 134.653 112.854 129.212 121.124C127.761 123.3 126.89 125.622 126.455 128.016C113.252 135.343 105.344 150.36 104.329 165.739C103.676 175.315 105.344 185.399 109.987 193.814C112.164 197.804 115.138 201.359 118.838 204.116C120.797 205.639 123.263 206.582 125.077 208.251C127.253 210.282 127.688 213.474 128.777 216.158C132.114 224.211 140.456 226.75 148.436 227.62C160.189 228.854 172.231 228.563 184.056 228.999C209.664 229.942 235.345 230.74 260.954 230.014C273.649 229.652 286.345 229.071 298.968 227.838C303.248 227.403 307.963 227.113 311.3 224.066C314.928 220.801 315 215.723 315.435 211.225C317.539 188.373 319.28 165.159 315.726 142.307C315 136.649 313.694 130.918 311.953 125.332Z" fill="white"/>
<path d="M210.68 91.5987C206.763 88.3341 200.234 89.3498 195.519 89.1321C191.021 88.987 186.015 88.7694 182.533 92.1065C179.051 95.5161 178.108 101.465 178.035 106.035C178.035 108.429 180.719 108.937 182.098 107.631C186.668 107.849 191.238 106.978 195.809 106.543C201.467 106.035 207.198 105.89 212.857 106.108C213.945 106.18 214.961 105.092 214.961 104.004C214.816 99.5786 214.308 94.7181 210.68 91.5987Z" fill="white"/>
<path d="M244.922 196.281C242.673 195.483 240.206 194.25 237.74 193.742C237.885 193.38 238.03 192.944 238.175 192.509C242.818 178.943 241.004 163.273 236.869 149.78C233.242 137.883 224.464 129.612 213.074 125.042C199.871 119.746 185.145 120.544 171.216 121.415C158.448 122.285 145.462 123.664 133.492 128.452C122.393 132.877 111.221 140.422 106.361 151.811C103.241 159.066 103.821 166.973 104.692 174.59C105.49 181.555 106.288 188.809 109.988 194.976C115.719 204.552 126.165 208.759 136.612 211.081C142.053 223.703 156.344 223.921 168.242 223.196C176.439 222.688 184.564 222.18 192.762 221.745C199.654 221.309 206.908 221.455 213.582 219.423C221.272 217.029 227.511 211.516 232.009 204.842C233.532 205.857 235.128 206.8 236.724 207.744C238.32 208.614 240.279 210.065 242.165 209.702C246.155 208.904 246.3 201.65 246.59 198.603C246.808 197.515 245.865 196.644 244.922 196.281Z" fill="white"/>
<path d="M168.459 166.9C167.443 160.951 164.686 154.712 161.857 149.489C159.1 144.411 154.965 141.074 149.815 138.462C148.654 137.882 147.566 138.535 147.058 139.405C146.84 139.333 146.695 139.333 146.478 139.333C143.938 139.986 141.254 140.276 138.933 141.509C136.611 142.742 134.435 144.483 132.549 146.225C128.849 149.707 125.947 154.059 124.134 158.775C118.62 166.174 119.346 176.911 122.465 185.181C124.206 189.752 126.673 193.887 129.647 197.732C132.331 201.214 135.886 206.147 139.948 208.106C143.648 209.919 147.493 206.8 150.613 204.914C154.748 202.447 158.738 199.545 161.712 195.628C167.588 187.938 170.127 176.548 168.459 166.9Z" fill="white"/>
<path d="M268.934 144.773C262.985 145.499 258.995 150.94 259.866 156.816C260.519 161.386 264.799 166.029 269.587 165.957C269.804 165.957 269.949 166.029 270.167 165.957C276.188 165.594 281.194 160.443 280.614 154.277C280.033 148.401 274.81 144.048 268.934 144.773Z" fill="white"/>
<path d="M285.257 102.987C282.572 101.174 279.308 100.884 276.189 100.738C271.546 100.521 266.903 100.448 262.26 100.521C259.358 100.593 256.239 100.884 254.352 103.423C252.829 105.454 252.539 108.356 254.352 110.242C254.425 110.605 254.643 110.895 255.15 111.04C255.295 111.04 255.513 111.112 255.658 111.112C255.876 111.185 256.093 111.258 256.384 111.258C265.017 112.708 273.795 112.563 282.5 112.926C285.184 113.071 288.158 113.506 288.811 110.097C289.319 107.34 287.433 104.511 285.257 102.987Z" fill="white"/>
<path d="M313.766 143.758C312.606 135.198 311.155 125.985 307.6 118.005C307.528 117.932 307.528 117.86 307.455 117.86C307.382 117.787 307.382 117.715 307.237 117.642C301.361 114.087 294.614 112.564 287.65 111.838C287.433 108.429 288.085 105.527 284.313 104.802C279.525 103.858 274.447 104.221 269.586 104.221C266.975 104.221 264.436 104.221 261.824 104.221C260.083 104.221 257.616 103.713 255.948 104.439C253.699 105.454 254.279 108.139 255.005 109.952C255.15 110.388 255.803 110.242 255.658 109.735C254.932 107.123 255.875 105.962 257.399 105.454C257.254 106.978 257.181 109.009 257.689 110.388C253.409 110.17 249.129 109.952 244.776 109.735C244.776 109.662 244.776 109.59 244.703 109.59C243.18 106.107 241.584 102.625 239.988 99.0705C238.682 96.2412 237.521 93.3394 235.127 91.2356C230.92 87.4633 224.899 86.3025 219.385 86.0849C218.297 85.5771 216.919 85.2144 215.25 85.0693C207.343 84.4164 199.29 84.5615 191.383 85.0693C187.61 85.3595 183.911 85.7222 180.211 86.23C177.454 86.5927 174.335 86.7378 171.941 88.3338C167.37 91.3807 165.629 99.3607 164.323 104.294C164.106 105.019 163.961 105.817 163.743 106.543C163.017 108.792 161.276 109.59 159.173 110.315C156.996 111.04 154.602 111.331 152.353 111.838C148.291 112.709 144.156 113.58 140.166 114.523C136.829 115.321 135.015 116.336 133.274 119.238C131.388 122.358 130.009 125.767 129.139 129.322C129.139 129.394 129.139 129.394 129.139 129.394C124.278 131.861 119.853 135.343 116.371 139.913C113.614 142.96 111.365 146.515 110.059 150.505C105.852 158.703 104.691 168.424 105.997 177.637C107.811 190.187 115.138 203.971 126.963 209.194C126.89 209.267 126.89 209.412 126.89 209.484C130.445 218.77 136.176 225.517 146.26 227.548C151.193 228.564 156.198 228.564 161.204 228.636C167.66 228.709 174.189 228.781 180.646 228.854C207.27 229.144 233.967 229.434 260.591 228.346C275.535 227.693 290.479 226.605 305.351 224.791C305.641 224.791 305.786 224.574 305.859 224.429C305.932 224.429 305.932 224.429 306.004 224.429C306.077 224.501 306.149 224.574 306.222 224.574C306.294 224.574 306.294 224.574 306.367 224.574H306.439C306.802 224.574 307.092 224.574 307.455 224.574C307.528 224.574 307.673 224.574 307.745 224.574C307.818 224.574 307.89 224.574 307.963 224.501C308.253 224.719 308.688 224.791 308.833 224.356C312.678 216.521 314.129 208.469 314.564 199.836C315.072 190.332 315.435 180.756 315.435 171.18C315.362 161.822 315 152.754 313.766 143.758ZM279.67 105.237C279.815 105.237 279.96 105.237 280.105 105.237C281.121 105.309 281.919 105.309 282.717 105.527C282.572 105.527 282.427 105.672 282.427 105.89C282.499 107.631 282.572 109.517 282.862 111.258C282.935 111.548 283.37 111.476 283.37 111.186C283.443 109.444 283.37 107.631 283.225 105.89C283.225 105.745 283.152 105.672 283.08 105.6C283.805 105.817 284.531 106.18 285.256 106.978C286.707 108.501 286.562 109.735 286.78 111.693C284.386 111.476 281.992 111.331 279.598 111.258C279.525 109.227 279.67 107.196 279.67 105.237ZM275.245 105.092C275.172 106.833 275.245 108.646 275.317 110.388C275.317 110.75 275.825 110.75 275.825 110.388C275.97 108.646 275.97 106.833 275.898 105.092C276.913 105.092 277.929 105.092 278.945 105.164C278.655 107.123 278.727 109.227 278.945 111.186C276.913 111.113 274.955 111.04 272.996 110.968C273.069 110.895 273.069 110.823 273.069 110.75C272.778 108.864 272.561 106.978 272.633 105.019C273.504 105.092 274.374 105.092 275.245 105.092ZM271.69 105.164C271.763 105.164 271.835 105.164 271.908 105.164C271.908 107.123 272.053 109.154 272.561 110.968C272.561 110.968 272.561 110.968 272.561 111.04C271.763 111.04 271.037 110.968 270.312 110.968C270.167 109.009 269.877 107.05 269.586 105.164C270.239 105.164 270.965 105.164 271.69 105.164ZM267.265 105.382C267.265 105.309 267.192 105.164 267.12 105.164C267.7 105.164 268.281 105.164 268.861 105.164C269.151 107.123 269.369 109.009 269.731 110.968C268.861 110.968 267.99 110.895 267.12 110.895C267.192 110.823 267.192 110.823 267.192 110.75C267.337 108.937 267.41 107.123 267.265 105.382ZM266.685 105.092C266.612 105.164 266.612 105.237 266.539 105.309C266.394 107.05 266.467 108.864 266.612 110.605C266.612 110.678 266.612 110.678 266.685 110.75C266.322 110.75 266.032 110.75 265.669 110.678C265.089 110.678 264.581 110.605 264 110.605C264.145 109.807 264.073 108.937 264 108.139C264 107.196 264.073 106.252 264.073 105.309C264.073 105.164 264 105.092 263.928 105.092C264.943 105.092 265.814 105.092 266.685 105.092ZM261.026 105.164V105.092C261.824 105.092 262.622 105.164 263.275 105.164C263.42 105.164 263.565 105.164 263.71 105.164C263.638 105.237 263.565 105.309 263.565 105.382C263.42 107.05 263.275 109.082 263.783 110.678C262.84 110.605 261.897 110.605 260.881 110.533C261.026 108.719 261.026 106.905 261.026 105.164ZM258.124 107.994C258.124 107.05 258.197 106.107 258.197 105.237C258.922 105.092 259.648 105.092 260.446 105.092V105.164C260.446 106.978 260.446 108.719 260.591 110.533C259.793 110.46 258.995 110.46 258.124 110.388C258.197 109.59 258.124 108.792 258.124 107.994ZM236.288 93.7022C239.553 98.3451 241.439 104.439 243.76 109.59C242.962 109.517 242.164 109.517 241.366 109.444C236.796 109.227 232.806 108.646 230.122 104.511C227.945 101.174 226.349 97.2569 224.971 93.5571C223.81 90.3651 222.722 88.1162 220.836 86.7378C226.567 87.7535 232.661 88.5515 236.288 93.7022ZM188.191 142.96C192.398 148.039 195.445 154.132 196.969 160.589C198.565 167.481 197.984 174.663 197.186 181.554C195.663 194.758 187.61 205.349 175.495 210.863C163.308 216.376 149.887 215.506 137.336 211.733L137.264 211.661C137.482 211.661 137.627 211.661 137.844 211.661C157.286 214.708 177.599 201.795 181.662 181.119C182.967 174.3 182.822 167.408 181.226 160.879C181.226 160.806 181.226 160.734 181.154 160.661C179.485 153.77 176.293 147.241 171.795 141.582C164.106 131.861 149.089 127.581 137.119 129.177C131.678 129.902 126.527 131.861 122.102 134.908C140.964 119.093 172.666 124.171 188.191 142.96ZM234.112 195.991C233.531 197.152 232.879 198.312 232.153 199.401C232.081 199.401 232.081 199.328 232.008 199.328C222.287 199.473 212.566 199.401 202.917 199.546C203.643 198.167 204.296 196.789 204.949 195.338H205.021C214.742 195.483 224.463 195.556 234.112 195.991ZM205.239 194.83C205.747 193.742 206.182 192.581 206.617 191.421C216.483 191.566 226.349 191.566 236.216 191.493C235.708 192.871 235.127 194.177 234.475 195.483C234.402 195.411 234.329 195.338 234.184 195.338C224.536 194.903 214.887 194.685 205.239 194.83ZM231.79 200.053C231.573 200.344 231.355 200.706 231.137 200.997C227.365 206.437 223.157 212.386 217.426 215.868C210.752 220.003 202.627 220.656 194.937 221.092C188.263 221.454 181.662 221.817 174.987 222.18C185.361 219.205 194.647 212.749 200.523 203.608C201.321 202.447 202.047 201.214 202.7 199.908C202.7 199.908 202.772 199.981 202.845 199.981C212.493 200.344 222.142 200.199 231.79 200.053ZM235.418 195.628C237.376 196.571 239.335 197.442 241.221 198.385C242.382 198.893 244.196 199.328 243.978 201.142C243.905 201.795 242.962 203.1 242.672 203.608C242.237 204.406 241.584 205.93 240.858 206.365C239.408 207.308 237.449 206.002 236.143 205.494C234.402 204.696 232.588 203.826 230.847 203.028C232.516 200.706 234.112 198.24 235.418 195.628ZM243.325 204.624C244.05 203.536 245.864 201.214 245.429 199.691C245.501 199.618 245.574 199.618 245.646 199.546C245.792 199.473 245.864 199.473 246.009 199.401C246.009 199.401 246.082 199.401 246.154 199.328C246.154 199.401 246.227 199.473 246.299 199.473C246.372 199.546 246.517 199.473 246.517 199.473C247.097 200.924 246.59 202.738 245.937 204.261C245.066 206.365 243.18 207.09 241.076 207.453C242.092 206.8 242.672 205.639 243.325 204.624ZM245.792 199.038C245.646 199.11 245.429 199.183 245.284 199.328C244.776 198.457 242.527 197.877 241.729 197.442C239.77 196.499 237.812 195.556 235.853 194.685C235.853 194.685 235.853 194.685 235.78 194.685C235.925 194.322 236.143 193.96 236.288 193.597C237.666 194.322 239.117 195.048 240.496 195.773C241.947 196.499 244.486 197.224 245.719 198.312C245.937 198.53 246.082 198.675 246.227 198.893C246.154 198.965 245.937 199.038 245.792 199.038ZM236.361 190.768C226.495 190.695 216.628 190.695 206.762 190.84C207.198 189.679 207.56 188.446 207.923 187.213C217.644 187.503 227.365 187.358 237.086 187.358C237.521 187.358 237.521 186.633 237.086 186.633C227.438 186.633 217.717 186.487 208.068 186.778C209.664 181.264 210.535 175.533 210.68 169.802C219.893 170.745 229.251 171.035 238.537 170.745C238.972 170.745 238.972 170.02 238.537 170.02C229.251 170.31 219.965 170.02 210.68 169.367C210.68 168.279 210.68 167.19 210.607 166.102C219.893 166.247 229.251 166.247 238.537 166.247C239.335 171.761 239.335 177.347 238.537 182.643C238.102 185.472 237.376 188.229 236.433 190.84L236.361 190.768ZM210.535 165.594C210.462 164.434 210.39 163.273 210.244 162.112C210.244 162.112 210.244 162.112 210.317 162.112C219.385 161.75 228.453 161.604 237.521 161.242H237.594C237.884 162.62 238.174 163.998 238.392 165.449C229.106 165.449 219.82 165.449 210.535 165.594ZM210.317 161.604C210.244 161.604 210.244 161.604 210.172 161.604C210.027 160.154 209.737 158.703 209.446 157.324L209.519 157.397C218.297 157.397 227.22 157.469 235.998 157.034C236.433 157.034 236.433 156.381 235.998 156.381C227.147 156.309 218.297 156.744 209.519 157.107C209.446 157.107 209.446 157.179 209.374 157.179C209.156 156.018 208.866 154.93 208.576 153.842C217.136 153.334 225.769 152.899 234.329 152.319C234.765 152.319 234.765 151.666 234.329 151.666C225.769 151.956 217.136 152.536 208.576 153.334C208.503 153.334 208.503 153.334 208.431 153.407C205.311 142.67 198.565 133.384 187.32 127.943C179.848 124.316 171.505 123.083 163.38 122.72C162.365 122.648 161.421 122.648 160.406 122.648C171.795 121.995 183.185 121.124 194.575 122.648C207.633 124.389 222.795 129.032 229.832 141.147C233.241 147.023 235.853 153.697 237.449 160.661C228.453 160.516 219.313 160.952 210.317 161.604ZM180.356 125.985C193.559 129.975 203.353 139.913 207.705 152.972C212.276 166.828 210.027 182.062 204.078 195.12C198.347 207.743 188.626 217.247 175.133 221.237C162.51 224.936 146.477 223.486 137.917 212.604C149.089 216.231 161.276 217.102 172.448 213.184C183.765 209.194 193.704 200.199 196.969 188.374C199 180.974 199.58 172.051 198.637 164.434C197.839 157.905 195.373 151.593 191.673 146.152C183.838 134.473 170.78 127.073 156.996 125.114C151.048 124.244 145.026 124.461 139.295 125.695C151.918 121.632 167.733 122.14 180.356 125.985ZM173.609 146.515C170.78 147.168 168.023 148.329 165.557 149.852C164.541 148.111 163.308 146.515 162.074 144.919C164.613 143.468 167.225 142.162 169.837 140.857C169.837 140.857 169.909 140.857 169.909 140.784C173.029 144.121 175.495 148.474 177.454 152.827C174.407 153.407 171.433 154.422 168.531 155.438C167.733 153.552 166.79 151.738 165.702 149.997C168.386 148.837 170.997 147.893 173.754 146.95C174.044 146.95 173.972 146.515 173.609 146.515ZM133.927 132.659C131.678 132.949 129.429 133.529 127.253 134.4C127.543 133.965 127.906 133.602 128.268 133.239C128.559 132.949 128.921 132.731 129.284 132.441C131.388 131.643 133.564 130.99 135.813 130.628C135.16 131.281 134.58 131.933 133.927 132.586C133.854 132.586 133.854 132.659 133.927 132.659ZM136.756 130.41C138.932 130.047 141.109 129.902 143.358 129.902C143.14 130.047 142.922 130.265 142.777 130.41C142.27 130.918 141.617 131.498 141.399 132.151C141.326 132.296 141.544 132.441 141.689 132.369C142.27 132.006 142.705 131.426 143.213 130.99C143.648 130.628 144.156 130.265 144.591 129.975C147.638 130.047 150.685 130.555 153.659 131.353C152.281 132.514 150.975 133.82 149.814 135.198C144.881 132.949 139.513 132.006 134.217 132.731C135.015 131.933 135.886 131.208 136.756 130.41ZM154.167 131.571L154.24 131.498C156.996 132.296 159.753 133.457 162.219 134.908C160.188 135.778 158.157 137.374 156.706 138.97C156.561 139.115 156.779 139.333 156.924 139.261C157.939 138.535 158.882 137.737 159.898 137.084C160.841 136.431 161.857 135.923 162.8 135.271C164.976 136.576 167.08 138.172 168.966 139.986C169.184 140.131 169.329 140.349 169.474 140.566C166.79 141.655 164.251 143.105 161.857 144.774C161.276 144.121 160.696 143.468 160.116 142.815C157.069 139.623 153.659 137.157 150.032 135.416C151.41 134.182 152.861 132.877 154.167 131.571ZM177.599 153.334C178.107 154.495 178.542 155.583 178.977 156.744C179.485 157.977 179.848 159.283 180.211 160.589C177.091 161.024 174.044 161.532 170.997 162.112C170.852 162.112 170.852 162.402 171.07 162.402C174.189 162.04 177.309 161.604 180.356 161.097C180.864 163.346 181.226 165.594 181.371 167.916C178.252 167.988 175.133 168.061 172.013 168.351C171.795 168.351 171.795 168.641 172.013 168.641C175.133 168.714 178.252 168.569 181.444 168.424C181.589 170.89 181.517 173.357 181.299 175.823C181.299 175.823 181.226 175.823 181.154 175.823C178.107 175.823 174.987 175.896 171.941 176.114C172.448 169.222 171.288 162.257 168.676 155.946C171.65 155.003 174.625 154.205 177.599 153.334ZM181.226 176.404C181.009 178.508 180.646 180.611 180.138 182.643C180.066 182.57 179.993 182.57 179.921 182.57C176.946 182.352 173.972 182.207 170.997 182.135C171.433 180.249 171.723 178.362 171.868 176.404C174.915 176.549 178.034 176.476 181.081 176.404C181.226 176.404 181.226 176.404 181.226 176.404ZM179.993 183.078H180.066C179.34 185.835 178.325 188.446 177.019 190.913C174.407 190.115 171.795 189.462 169.256 188.664C169.184 188.664 169.184 188.664 169.111 188.664C169.547 187.648 169.909 186.56 170.199 185.472C170.49 184.456 170.78 183.368 170.997 182.352C173.972 182.715 177.019 182.933 179.993 183.078ZM169.111 188.954C171.505 190.042 174.189 190.913 176.801 191.421C175.713 193.524 174.407 195.483 172.884 197.369C170.635 196.426 168.386 195.701 166.064 195.048C167.225 193.089 168.168 190.985 169.039 188.881C169.039 188.881 169.039 188.954 169.111 188.954ZM172.521 197.732C170.997 199.546 169.401 201.214 167.588 202.738C167.588 202.738 167.588 202.738 167.515 202.738C165.702 202.012 163.815 201.432 162.002 200.924C163.453 199.183 164.759 197.297 165.919 195.338C165.919 195.338 165.919 195.411 165.992 195.411C168.168 195.991 170.345 196.789 172.521 197.732ZM167.153 203.1C166.209 203.898 165.194 204.624 164.178 205.277C162.727 206.22 161.204 207.09 159.608 207.816C159.608 207.816 159.608 207.816 159.535 207.816C158.23 207.526 156.924 207.163 155.69 206.945C155.545 206.945 155.473 207.163 155.618 207.235C156.706 207.598 157.867 207.888 158.955 208.179C156.996 209.049 155.038 209.702 153.006 210.21C151.991 209.92 150.975 209.774 149.887 209.629C152.789 208.614 155.545 207.163 158.012 204.987C159.318 203.826 160.624 202.52 161.712 201.142C163.525 201.867 165.339 202.52 167.153 203.1ZM152.063 210.355C148.799 211.08 145.534 211.37 142.197 211.298C144.591 211.008 146.912 210.572 149.161 209.847C150.104 209.92 151.12 210.065 152.063 210.355ZM127.833 133.094C127.47 133.529 127.18 134.037 126.963 134.545V134.618C125.149 135.343 123.263 136.286 121.522 137.447C118.475 139.478 115.863 141.945 113.687 144.701C117.169 139.406 122.175 135.488 127.833 133.094ZM117.459 141.945C128.341 131.571 144.301 130.555 155.836 140.349C167.007 149.78 172.666 165.014 170.345 179.451C169.111 187.431 165.557 195.048 160.261 201.069C154.167 207.961 146.477 210.21 137.772 210.718C137.699 210.645 137.627 210.645 137.554 210.645C137.264 210.645 136.974 210.718 136.684 210.718C135.74 210.573 134.87 210.427 133.927 210.21C133.782 210.21 133.709 210.137 133.564 210.137C133.419 210.065 133.201 210.065 133.056 209.992C132.331 209.774 131.605 209.629 130.953 209.339C105.272 200.706 97.7994 160.734 117.459 141.945ZM313.404 195.556C312.968 205.349 311.953 214.272 307.745 223.268C307.02 223.268 306.294 223.268 305.569 223.486C305.496 223.413 305.424 223.413 305.279 223.413C280.758 226.315 256.02 227.33 231.355 227.621C206.617 227.911 181.734 227.838 156.996 227.33C151.048 227.185 144.809 226.823 139.44 224.066C133.492 221.019 130.372 215.288 127.688 209.412C128.994 209.92 130.3 210.355 131.751 210.645C132.694 211.08 133.782 211.37 134.797 211.443C135.45 211.661 136.031 211.878 136.684 212.096C143.866 222.035 156.996 225.154 168.749 223.486C170.054 223.268 171.36 223.05 172.666 222.76C180.356 222.542 187.973 222.325 195.663 221.89C202.119 221.527 208.794 221.019 214.742 218.335C220.401 215.796 224.463 211.443 228.163 206.655C228.961 205.639 229.687 204.624 230.412 203.608C232.081 204.624 233.894 205.422 235.635 206.292C236.651 206.8 238.174 207.671 239.335 207.816C239.698 207.888 240.06 207.816 240.423 207.743C240.423 207.961 240.568 208.106 240.786 208.106C245.211 207.961 247.533 205.059 247.895 200.706C248.04 198.965 247.678 198.457 246.227 197.659C243.18 195.991 239.843 194.54 236.651 193.162C237.304 191.566 237.957 189.97 238.392 188.301C242.237 174.735 239.48 160.371 234.112 147.603C231.573 141.509 228.381 135.923 223.012 131.933C217.644 127.943 211.187 125.332 204.731 123.591C188.771 119.383 171.36 120.254 155.11 122.285C154.965 122.285 154.892 122.43 154.82 122.575C149.016 122.72 143.285 123.518 138.062 125.84C137.989 125.84 137.989 125.912 137.989 125.985C135.233 126.71 132.549 127.653 129.937 128.887C131.025 125.622 132.258 122.43 134.072 119.528C136.684 115.393 141.544 115.03 145.897 114.087C149.306 113.362 152.716 112.636 156.053 111.838C158.302 111.331 161.204 111.186 163.017 109.662C164.541 108.356 164.831 106.325 165.339 104.439C166.427 100.521 167.66 96.4589 169.547 92.8316C171.578 88.9142 174.915 87.9711 178.977 87.3907C183.113 86.8104 187.248 86.3751 191.455 86.0849C198.927 85.5771 206.472 85.5046 213.944 86.0124C216.846 86.23 219.748 86.1575 221.779 88.9142C222.722 90.22 223.157 91.8885 223.665 93.3394C224.681 96.1687 225.914 98.998 227.22 101.682C229.541 106.252 231.935 109.59 237.231 110.315C243.978 111.331 251.015 111.186 257.762 111.548C266.249 111.984 274.737 112.419 283.152 112.927C291.277 113.434 299.402 114.378 306.584 118.585C306.657 118.658 306.73 118.658 306.875 118.658C309.051 127.291 311.518 135.633 312.606 144.556C313.694 153.117 314.057 161.75 314.057 170.382C314.129 178.725 313.766 187.14 313.404 195.556Z" fill="#1D1D1B"/>
<path d="M158.013 144.701C155.691 142.162 153.079 140.13 150.25 138.607C150.178 138.462 150.033 138.389 149.887 138.389C140.819 133.674 129.865 134.327 121.014 141.074C109.19 150.142 105.49 165.884 108.537 179.958C111.729 194.757 123.481 208.686 139.513 208.613C152.717 211.007 163.961 196.426 167.516 185.326C171.941 171.325 167.879 155.438 158.013 144.701ZM138.57 207.96C110.205 205.421 99.1058 166.319 117.097 145.934C125.004 136.938 137.772 133.529 148.364 138.462C133.275 139.768 121.885 152.536 120.071 167.407C118.185 183.15 126.31 198.529 139.006 207.598C138.715 207.598 138.57 207.815 138.57 207.96ZM160.261 196.643C155.619 202.664 148.146 208.831 140.094 207.743C128.487 198.384 119.854 185.254 120.869 169.801C121.885 153.987 133.637 140.421 149.815 139.26C151.121 139.985 152.354 140.856 153.587 141.799C163.671 150.069 169.112 163.998 167.951 176.911C167.371 184.02 164.687 190.985 160.261 196.643Z" fill="#1D1D1B"/>
<path d="M215.323 106.18C214.815 102.915 214.162 99.6506 213.292 96.5312C212.856 95.0077 212.494 93.4117 211.188 92.3236C209.809 91.1628 207.996 91.1628 206.255 91.1628C203.135 91.0903 199.943 91.2354 196.824 91.3079C193.704 91.3805 190.512 91.3079 187.393 91.453C185.579 91.5256 183.693 91.5981 182.242 92.8314C180.936 93.9196 180.429 95.7332 179.921 97.3292C178.905 100.449 178.252 103.641 178.035 106.833C178.035 107.123 178.325 107.268 178.542 107.195C178.397 107.413 178.47 107.703 178.76 107.703C190.658 107.921 202.555 107.34 214.452 107.34C214.743 107.34 214.96 107.123 214.96 106.833C215.178 106.76 215.395 106.542 215.323 106.18ZM178.76 107.05C178.76 106.978 178.833 106.978 178.833 106.905C179.195 104.874 179.558 102.843 179.993 100.884C180.284 99.7957 180.501 98.635 180.936 97.6194C181.589 96.0959 182.823 93.7019 184.419 92.9039C186.087 92.0334 189.642 92.5412 191.456 92.5412C193.487 92.5412 195.518 92.4687 197.549 92.4687C199.581 92.4687 201.612 92.3961 203.643 92.3961C204.514 92.3961 205.457 92.3236 206.327 92.3961C208.286 92.4687 209.011 92.4687 210.462 93.9921C213.292 96.8939 213.654 102.335 214.235 106.325C202.482 106.18 190.512 105.962 178.76 107.05Z" fill="#1D1D1B"/>
<path d="M269.151 143.396C269.006 143.396 268.934 143.541 268.934 143.613C261.171 143.396 257.762 155.003 262.477 160.153C265.669 166.32 274.737 166.9 277.857 160.081C281.121 152.899 277.639 143.758 269.151 143.396ZM270.094 144.266H270.167C272.416 146.007 274.447 147.966 275.1 150.94C276.261 155.873 273.432 161.822 267.773 161.387C257.617 160.661 260.736 144.121 270.094 144.266ZM277.494 158.05C275.68 164.434 268.426 165.957 264.436 161.749C264.944 162.04 265.452 162.185 266.104 162.402C276.333 165.014 279.38 150.868 272.924 145.137C277.276 147.385 279.018 152.754 277.494 158.05Z" fill="#1D1D1B"/>
<path d="M300.418 168.134C299.548 159.356 298.097 150.65 296.428 141.945C294.832 133.312 293.236 124.461 289.392 116.554C289.246 116.336 288.884 116.481 288.956 116.699C291.786 124.606 293.454 132.659 294.978 140.857C296.646 150.142 298.242 159.428 299.113 168.786C300.781 185.98 300.201 203.391 294.905 219.931C294.615 220.729 295.921 221.092 296.138 220.294C301.652 203.463 302.159 185.617 300.418 168.134Z" fill="#1D1D1B"/>
</svg>
