<?xml version="1.0" encoding="UTF-8" standalone="no"?>
<svg
   xmlns:dc="http://purl.org/dc/elements/1.1/"
   xmlns:cc="http://creativecommons.org/ns#"
   xmlns:rdf="http://www.w3.org/1999/02/22-rdf-syntax-ns#"
   xmlns:svg="http://www.w3.org/2000/svg"
   xmlns="http://www.w3.org/2000/svg"
   xmlns:sodipodi="http://sodipodi.sourceforge.net/DTD/sodipodi-0.dtd"
   xmlns:inkscape="http://www.inkscape.org/namespaces/inkscape"
   width="264"
   height="493"
   viewBox="0 0 264 493"
   fill="none"
   version="1.1"
   id="svg6"
   sodipodi:docname="frame.svg"
   inkscape:version="1.0.2 (e86c870879, 2021-01-15, custom)">
  <metadata
     id="metadata12">
    <rdf:RDF>
      <cc:Work
         rdf:about="">
        <dc:format>image/svg+xml</dc:format>
        <dc:type
           rdf:resource="http://purl.org/dc/dcmitype/StillImage" />
        <dc:title></dc:title>
      </cc:Work>
    </rdf:RDF>
  </metadata>
  <defs
     id="defs10" />
  <sodipodi:namedview
     pagecolor="#676767"
     bordercolor="#666666"
     borderopacity="1"
     objecttolerance="10"
     gridtolerance="10"
     guidetolerance="10"
     inkscape:pageopacity="0"
     inkscape:pageshadow="2"
     inkscape:window-width="1366"
     inkscape:window-height="705"
     id="namedview8"
     showgrid="false"
     inkscape:zoom="0.86206897"
     inkscape:cx="174.79666"
     inkscape:cy="191.59116"
     inkscape:window-x="-8"
     inkscape:window-y="-8"
     inkscape:window-maximized="1"
     inkscape:current-layer="svg6" />
  <path
     id="path2"
     style="fill:#ffffff;stroke:#000000;stroke-opacity:1"
     d="M 37 0.5 C 16.8416 0.5 0.5 16.8416 0.5 37 L 0.5 456 C 0.5 476.158 16.8416 492.5 37 492.5 L 227 492.5 C 247.158 492.5 263.5 476.158 263.5 456 L 263.5 37 C 263.5 16.8416 247.158 0.5 227 0.5 L 37 0.5 z M 43 7.5 L 80.521484 7.5 C 86.125484 7.5 91.489725 9.7715419 95.390625 13.794922 C 99.479925 18.012622 105.10352 20.392578 110.97852 20.392578 L 154.69336 20.392578 C 160.44936 20.392578 165.94423 17.999909 169.86523 13.787109 C 173.59723 9.7776094 178.82864 7.5 184.30664 7.5 L 221 7.5 C 240.606 7.5 256.5 23.3939 256.5 43 L 256.5 451 C 256.5 470.606 240.606 486.5 221 486.5 L 43 486.5 C 23.3939 486.5 7.5 470.606 7.5 451 L 7.5 43 C 7.5 23.3939 23.3939 7.5 43 7.5 z " />
</svg>
