<?xml version="1.0" encoding="UTF-8" standalone="no"?>
<svg
   xmlns:dc="http://purl.org/dc/elements/1.1/"
   xmlns:cc="http://creativecommons.org/ns#"
   xmlns:rdf="http://www.w3.org/1999/02/22-rdf-syntax-ns#"
   xmlns:svg="http://www.w3.org/2000/svg"
   xmlns="http://www.w3.org/2000/svg"
   xmlns:sodipodi="http://sodipodi.sourceforge.net/DTD/sodipodi-0.dtd"
   xmlns:inkscape="http://www.inkscape.org/namespaces/inkscape"
   width="1488"
   height="45"
   viewBox="0 0 1488 44.999999"
   fill="none"
   version="1.1"
   id="svg24"
   sodipodi:docname="runline.svg"
   inkscape:version="1.0.2 (e86c870879, 2021-01-15, custom)">
  <metadata
     id="metadata30">
    <rdf:RDF>
      <cc:Work
         rdf:about="">
        <dc:format>image/svg+xml</dc:format>
        <dc:type
           rdf:resource="http://purl.org/dc/dcmitype/StillImage" />
        <dc:title></dc:title>
      </cc:Work>
    </rdf:RDF>
  </metadata>
  <defs
     id="defs28" />
  <sodipodi:namedview
     pagecolor="#ffffff"
     bordercolor="#666666"
     borderopacity="1"
     objecttolerance="10"
     gridtolerance="10"
     guidetolerance="10"
     inkscape:pageopacity="0"
     inkscape:pageshadow="2"
     inkscape:window-width="1366"
     inkscape:window-height="705"
     id="namedview26"
     showgrid="false"
     fit-margin-top="0"
     fit-margin-left="0"
     fit-margin-right="0"
     fit-margin-bottom="0"
     inkscape:zoom="0.39080882"
     inkscape:cx="737.64831"
     inkscape:cy="-111.42072"
     inkscape:window-x="-8"
     inkscape:window-y="-8"
     inkscape:window-maximized="1"
     inkscape:current-layer="svg24" />
  <path
     id="rect2"
     style="stroke:#ebebeb;stroke-width:0.999999"
     d="m 0,0.49999949 h 1488 m 0,44.00000251 H 0"
     sodipodi:nodetypes="cccc" />
  <path
     d="m 29.701729,14.380999 h 9.27 v 2.664 h -6.03 v 1.872 h 2.07 c 0.876,0 1.632,0.096 2.268,0.288 0.648,0.18 1.182,0.444 1.602,0.792 0.432,0.336 0.75,0.75 0.954,1.242 0.204,0.48 0.306,1.02 0.306,1.62 0,1.296 -0.42,2.31 -1.26,3.042 -0.828,0.72 -2.118,1.08 -3.87,1.08 h -5.31 z m 4.95,9.936 c 0.78,0 1.332,-0.126 1.656,-0.378 0.324,-0.264 0.486,-0.624 0.486,-1.08 0,-0.456 -0.162,-0.81 -0.486,-1.062 -0.324,-0.264 -0.876,-0.396 -1.656,-0.396 h -1.71 v 2.916 z m 7.4643,-9.936 h 9.18 v 2.484 h -5.94 v 2.466 h 5.4 v 2.34 h -5.4 v 2.826 h 5.94 v 2.484 h -9.18 z m 16.7421,12.834 c -0.864,0 -1.656,-0.114 -2.376,-0.342 -0.72,-0.24 -1.338,-0.618 -1.854,-1.134 -0.504,-0.516 -0.9,-1.182 -1.188,-1.998 -0.288,-0.816 -0.432,-1.812 -0.432,-2.988 v -0.342 c 0,-1.104 0.15,-2.052 0.45,-2.844 0.3,-0.792 0.714,-1.44 1.242,-1.944 0.528,-0.504 1.146,-0.876 1.854,-1.116 0.72,-0.24 1.488,-0.36 2.304,-0.36 0.732,0 1.416,0.084 2.052,0.252 0.648,0.168 1.212,0.432 1.692,0.792 0.492,0.36 0.888,0.828 1.188,1.404 0.312,0.576 0.498,1.278 0.558,2.106 h -3.348 c -0.06,-0.336 -0.156,-0.618 -0.288,-0.846 -0.132,-0.24 -0.294,-0.432 -0.486,-0.576 -0.192,-0.156 -0.408,-0.264 -0.648,-0.324 -0.228,-0.072 -0.468,-0.108 -0.72,-0.108 -0.36,0 -0.696,0.066 -1.008,0.198 -0.3,0.12 -0.564,0.324 -0.792,0.612 -0.216,0.276 -0.39,0.642 -0.522,1.098 -0.12,0.456 -0.18,1.008 -0.18,1.656 v 0.378 c 0,0.696 0.066,1.284 0.198,1.764 0.144,0.468 0.33,0.852 0.558,1.152 0.228,0.288 0.492,0.498 0.792,0.63 0.3,0.12 0.618,0.18 0.954,0.18 0.612,0 1.098,-0.144 1.458,-0.432 0.372,-0.3 0.6,-0.774 0.684,-1.422 h 3.348 c -0.048,0.84 -0.222,1.548 -0.522,2.124 -0.288,0.576 -0.678,1.044 -1.17,1.404 -0.48,0.36 -1.044,0.624 -1.692,0.792 -0.648,0.156 -1.35,0.234 -2.106,0.234 z m 7.5593,-12.834 h 10.98 v 12.6 h -3.24 v -9.936 h -4.5 v 9.936 h -3.24 z m 13.68,12.834 c -0.096,0 -0.234,-0.006 -0.414,-0.018 -0.168,0 -0.3,-0.012 -0.396,-0.036 v -2.844 c 0.06,0.012 0.15,0.018 0.27,0.018 0.288,0 0.534,-0.054 0.738,-0.162 0.216,-0.108 0.384,-0.366 0.504,-0.774 0.132,-0.408 0.228,-1.008 0.288,-1.8 0.06,-0.804 0.09,-1.89 0.09,-3.258 v -3.96 h 9.5404 v 12.6 h -3.24 v -9.954 h -3.276 v 1.674 c 0,1.872 -0.096,3.366 -0.288,4.482 -0.192,1.116 -0.468,1.974 -0.828,2.574 -0.348,0.6 -0.78,0.996 -1.2964,1.188 -0.504,0.18 -1.068,0.27 -1.692,0.27 z m 20.384401,-2.646 h -4.212001 l -0.864,2.412 h -3.06 l 4.59,-12.6 h 3.240001 l 4.59,12.6 h -3.42 z m -3.294001,-2.484 h 2.376 l -1.188,-3.744 z m 10.902001,-5.04 h -3.87 v -2.664 h 10.98 v 2.664 h -3.87 v 9.936 h -3.24 z m 8.917,-2.664 h 3.24 v 4.788 h 4.68 v -4.788 h 3.24 v 12.6 h -3.24 v -5.148 h -4.68 v 5.148 h -3.24 z m 13.856,0 h 3.24 v 4.176 h 1.53 c 1.752,0 3.042,0.378 3.87,1.134 0.84,0.756 1.26,1.782 1.26,3.078 0,1.296 -0.42,2.322 -1.26,3.078 -0.828,0.756 -2.118,1.134 -3.87,1.134 h -4.77 z m 4.41,9.936 c 0.756,0 1.302,-0.144 1.638,-0.432 0.336,-0.288 0.504,-0.66 0.504,-1.116 0,-0.456 -0.168,-0.828 -0.504,-1.116 -0.336,-0.288 -0.882,-0.432 -1.638,-0.432 h -1.17 v 3.096 z m 6.39,-9.936 h 3.24 v 12.6 h -3.24 z m 5.938,0 h 3.24 v 7.56 l 4.95,-7.56 h 2.97 v 12.6 h -3.24 v -7.56 l -4.95,7.56 h -2.97 z m 5.58,-0.72 c -1.272,0 -2.19,-0.258 -2.754,-0.774 -0.564,-0.516 -0.846,-1.278 -0.846,-2.286 h 2.628 c 0,0.492 0.072,0.828 0.216,1.008 0.156,0.168 0.408,0.252 0.756,0.252 0.348,0 0.594,-0.084 0.738,-0.252 0.156,-0.18 0.234,-0.516 0.234,-1.008 h 2.628 c 0,1.008 -0.282,1.77 -0.846,2.286 -0.564,0.516 -1.482,0.774 -2.754,0.774 z m 12.411,0.72 h 6.03 c 1.476,0 2.55,0.294 3.222,0.882 0.672,0.576 1.008,1.404 1.008,2.484 0,0.648 -0.168,1.206 -0.504,1.674 -0.336,0.456 -0.792,0.786 -1.368,0.99 0.744,0.168 1.332,0.51 1.764,1.026 0.432,0.504 0.648,1.164 0.648,1.98 0,1.104 -0.366,1.974 -1.098,2.61 -0.72,0.636 -1.884,0.954 -3.492,0.954 h -6.21 z m 5.49,10.116 c 0.78,0 1.32,-0.114 1.62,-0.342 0.3,-0.24 0.45,-0.606 0.45,-1.098 0,-0.492 -0.156,-0.858 -0.468,-1.098 -0.3,-0.24 -0.846,-0.36 -1.638,-0.36 h -2.214 v 2.898 z m -0.252,-5.094 c 0.696,0 1.164,-0.108 1.404,-0.324 0.252,-0.228 0.378,-0.546 0.378,-0.954 0,-0.42 -0.126,-0.732 -0.378,-0.936 -0.24,-0.216 -0.702,-0.324 -1.386,-0.324 h -2.016 v 2.538 z m 7.633,-5.022 h 9.18 v 2.484 h -5.94 v 2.466 h 5.4 v 2.34 h -5.4 v 2.826 h 5.94 v 2.484 h -9.18 z m 11.43,0 h 9.27 v 2.664 h -6.03 v 1.872 h 2.07 c 0.876,0 1.632,0.096 2.268,0.288 0.648,0.18 1.182,0.444 1.602,0.792 0.432,0.336 0.75,0.75 0.954,1.242 0.204,0.48 0.306,1.02 0.306,1.62 0,1.296 -0.42,2.31 -1.26,3.042 -0.828,0.72 -2.118,1.08 -3.87,1.08 h -5.31 z m 4.95,9.936 c 0.78,0 1.332,-0.126 1.656,-0.378 0.324,-0.264 0.486,-0.624 0.486,-1.08 0,-0.456 -0.162,-0.81 -0.486,-1.062 -0.324,-0.264 -0.876,-0.396 -1.656,-0.396 h -1.71 v 2.916 z m 7.465,-9.936 h 3.24 v 7.56 l 4.95,-7.56 h 2.97 v 12.6 h -3.24 v -7.56 l -4.95,7.56 h -2.97 z m 13.856,0 h 3.24 v 4.788 h 4.68 v -4.788 h 3.24 v 12.6 h -3.24 v -5.148 h -4.68 v 5.148 h -3.24 z m 20.911,10.188 h -4.212 l -0.864,2.412 h -3.06 l 4.59,-12.6 h 3.24 l 4.59,12.6 h -3.42 z m -3.294,-2.484 h 2.376 l -1.188,-3.744 z m 9.198,-7.704 h 5.13 c 1.752,0 3.042,0.384 3.87,1.152 0.84,0.756 1.26,1.806 1.26,3.15 0,1.344 -0.42,2.4 -1.26,3.168 -0.828,0.756 -2.118,1.134 -3.87,1.134 h -1.89 v 3.996 h -3.24 z m 4.77,5.94 c 0.828,0 1.41,-0.138 1.746,-0.414 0.336,-0.276 0.504,-0.684 0.504,-1.224 0,-0.54 -0.168,-0.948 -0.504,-1.224 -0.336,-0.276 -0.918,-0.414 -1.746,-0.414 h -1.53 v 3.276 z"
     fill="#2b2b2b"
     id="path4" />
  <path
     d="m 330.70183,14.380999 h 9.27 v 2.664 h -6.03 v 1.872 h 2.07 c 0.876,0 1.632,0.096 2.268,0.288 0.648,0.18 1.182,0.444 1.602,0.792 0.432,0.336 0.75,0.75 0.954,1.242 0.204,0.48 0.306,1.02 0.306,1.62 0,1.296 -0.42,2.31 -1.26,3.042 -0.828,0.72 -2.118,1.08 -3.87,1.08 h -5.31 z m 4.95,9.936 c 0.78,0 1.332,-0.126 1.656,-0.378 0.324,-0.264 0.486,-0.624 0.486,-1.08 0,-0.456 -0.162,-0.81 -0.486,-1.062 -0.324,-0.264 -0.876,-0.396 -1.656,-0.396 h -1.71 v 2.916 z m 7.464,-9.936 h 9.18 v 2.484 h -5.94 v 2.466 h 5.4 v 2.34 h -5.4 v 2.826 h 5.94 v 2.484 h -9.18 z m 16.742,12.834 c -0.864,0 -1.656,-0.114 -2.376,-0.342 -0.72,-0.24 -1.338,-0.618 -1.854,-1.134 -0.504,-0.516 -0.9,-1.182 -1.188,-1.998 -0.288,-0.816 -0.432,-1.812 -0.432,-2.988 v -0.342 c 0,-1.104 0.15,-2.052 0.45,-2.844 0.3,-0.792 0.714,-1.44 1.242,-1.944 0.528,-0.504 1.146,-0.876 1.854,-1.116 0.72,-0.24 1.488,-0.36 2.304,-0.36 0.732,0 1.416,0.084 2.052,0.252 0.648,0.168 1.212,0.432 1.692,0.792 0.492,0.36 0.888,0.828 1.188,1.404 0.312,0.576 0.498,1.278 0.558,2.106 h -3.348 c -0.06,-0.336 -0.156,-0.618 -0.288,-0.846 -0.132,-0.24 -0.294,-0.432 -0.486,-0.576 -0.192,-0.156 -0.408,-0.264 -0.648,-0.324 -0.228,-0.072 -0.468,-0.108 -0.72,-0.108 -0.36,0 -0.696,0.066 -1.008,0.198 -0.3,0.12 -0.564,0.324 -0.792,0.612 -0.216,0.276 -0.39,0.642 -0.522,1.098 -0.12,0.456 -0.18,1.008 -0.18,1.656 v 0.378 c 0,0.696 0.066,1.284 0.198,1.764 0.144,0.468 0.33,0.852 0.558,1.152 0.228,0.288 0.492,0.498 0.792,0.63 0.3,0.12 0.618,0.18 0.954,0.18 0.612,0 1.098,-0.144 1.458,-0.432 0.372,-0.3 0.6,-0.774 0.684,-1.422 h 3.348 c -0.048,0.84 -0.222,1.548 -0.522,2.124 -0.288,0.576 -0.678,1.044 -1.17,1.404 -0.48,0.36 -1.044,0.624 -1.692,0.792 -0.648,0.156 -1.35,0.234 -2.106,0.234 z m 7.56,-12.834 h 10.98 v 12.6 h -3.24 v -9.936 h -4.5 v 9.936 h -3.24 z m 13.68,12.834 c -0.096,0 -0.234,-0.006 -0.414,-0.018 -0.168,0 -0.3,-0.012 -0.396,-0.036 v -2.844 c 0.06,0.012 0.15,0.018 0.27,0.018 0.288,0 0.534,-0.054 0.738,-0.162 0.216,-0.108 0.384,-0.366 0.504,-0.774 0.132,-0.408 0.228,-1.008 0.288,-1.8 0.06,-0.804 0.09,-1.89 0.09,-3.258 v -3.96 h 9.54 v 12.6 h -3.24 v -9.954 h -3.276 v 1.674 c 0,1.872 -0.096,3.366 -0.288,4.482 -0.192,1.116 -0.468,1.974 -0.828,2.574 -0.348,0.6 -0.78,0.996 -1.296,1.188 -0.504,0.18 -1.068,0.27 -1.692,0.27 z m 20.384,-2.646 h -4.212 l -0.864,2.412 h -3.06 l 4.59,-12.6 h 3.24 l 4.59,12.6 h -3.42 z m -3.294,-2.484 h 2.376 l -1.188,-3.744 z m 10.902,-5.04 h -3.87 v -2.664 h 10.98 v 2.664 h -3.87 v 9.936 h -3.24 z m 8.917,-2.664 h 3.24 v 4.788 h 4.68 v -4.788 h 3.24 v 12.6 h -3.24 v -5.148 h -4.68 v 5.148 h -3.24 z m 13.856,0 h 3.24 v 4.176 h 1.53 c 1.752,0 3.042,0.378 3.87,1.134 0.84,0.756 1.26,1.782 1.26,3.078 0,1.296 -0.42,2.322 -1.26,3.078 -0.828,0.756 -2.118,1.134 -3.87,1.134 h -4.77 z m 4.41,9.936 c 0.756,0 1.302,-0.144 1.638,-0.432 0.336,-0.288 0.504,-0.66 0.504,-1.116 0,-0.456 -0.168,-0.828 -0.504,-1.116 -0.336,-0.288 -0.882,-0.432 -1.638,-0.432 h -1.17 v 3.096 z m 6.39,-9.936 h 3.24 v 12.6 h -3.24 z m 5.938,0 h 3.24 v 7.56 l 4.95,-7.56 h 2.97 v 12.6 h -3.24 v -7.56 l -4.95,7.56 h -2.97 z m 5.58,-0.72 c -1.272,0 -2.19,-0.258 -2.754,-0.774 -0.564,-0.516 -0.846,-1.278 -0.846,-2.286 h 2.628 c 0,0.492 0.072,0.828 0.216,1.008 0.156,0.168 0.408,0.252 0.756,0.252 0.348,0 0.594,-0.084 0.738,-0.252 0.156,-0.18 0.234,-0.516 0.234,-1.008 h 2.628 c 0,1.008 -0.282,1.77 -0.846,2.286 -0.564,0.516 -1.482,0.774 -2.754,0.774 z m 12.411,0.72 h 6.03 c 1.476,0 2.55,0.294 3.222,0.882 0.672,0.576 1.008,1.404 1.008,2.484 0,0.648 -0.168,1.206 -0.504,1.674 -0.336,0.456 -0.792,0.786 -1.368,0.99 0.744,0.168 1.332,0.51 1.764,1.026 0.432,0.504 0.648,1.164 0.648,1.98 0,1.104 -0.366,1.974 -1.098,2.61 -0.72,0.636 -1.884,0.954 -3.492,0.954 h -6.21 z m 5.49,10.116 c 0.78,0 1.32,-0.114 1.62,-0.342 0.3,-0.24 0.45,-0.606 0.45,-1.098 0,-0.492 -0.156,-0.858 -0.468,-1.098 -0.3,-0.24 -0.846,-0.36 -1.638,-0.36 h -2.214 v 2.898 z m -0.252,-5.094 c 0.696,0 1.164,-0.108 1.404,-0.324 0.252,-0.228 0.378,-0.546 0.378,-0.954 0,-0.42 -0.126,-0.732 -0.378,-0.936 -0.24,-0.216 -0.702,-0.324 -1.386,-0.324 h -2.016 v 2.538 z m 7.633,-5.022 h 9.18 v 2.484 h -5.94 v 2.466 h 5.4 v 2.34 h -5.4 v 2.826 h 5.94 v 2.484 h -9.18 z m 11.43,0 h 9.27 v 2.664 h -6.03 v 1.872 h 2.07 c 0.876,0 1.632,0.096 2.268,0.288 0.648,0.18 1.182,0.444 1.602,0.792 0.432,0.336 0.75,0.75 0.954,1.242 0.204,0.48 0.306,1.02 0.306,1.62 0,1.296 -0.42,2.31 -1.26,3.042 -0.828,0.72 -2.118,1.08 -3.87,1.08 h -5.31 z m 4.95,9.936 c 0.78,0 1.332,-0.126 1.656,-0.378 0.324,-0.264 0.486,-0.624 0.486,-1.08 0,-0.456 -0.162,-0.81 -0.486,-1.062 -0.324,-0.264 -0.876,-0.396 -1.656,-0.396 h -1.71 v 2.916 z m 7.465,-9.936 h 3.24 v 7.56 l 4.95,-7.56 h 2.97 v 12.6 h -3.24 v -7.56 l -4.95,7.56 h -2.97 z m 13.856,0 h 3.24 v 4.788 h 4.68 v -4.788 h 3.24 v 12.6 h -3.24 v -5.148 h -4.68 v 5.148 h -3.24 z m 20.911,10.188 h -4.212 l -0.864,2.412 h -3.06 l 4.59,-12.6 h 3.24 l 4.59,12.6 h -3.42 z m -3.294,-2.484 h 2.376 l -1.188,-3.744 z m 9.198,-7.704 h 5.13 c 1.752,0 3.042,0.384 3.87,1.152 0.84,0.756 1.26,1.806 1.26,3.15 0,1.344 -0.42,2.4 -1.26,3.168 -0.828,0.756 -2.118,1.134 -3.87,1.134 h -1.89 v 3.996 h -3.24 z m 4.77,5.94 c 0.828,0 1.41,-0.138 1.746,-0.414 0.336,-0.276 0.504,-0.684 0.504,-1.224 0,-0.54 -0.168,-0.948 -0.504,-1.224 -0.336,-0.276 -0.918,-0.414 -1.746,-0.414 h -1.53 v 3.276 z"
     fill="#2b2b2b"
     id="path6" />
  <path
     d="m 631.70183,14.380999 h 9.27 v 2.664 h -6.03 v 1.872 h 2.07 c 0.876,0 1.632,0.096 2.268,0.288 0.648,0.18 1.182,0.444 1.602,0.792 0.432,0.336 0.75,0.75 0.954,1.242 0.204,0.48 0.306,1.02 0.306,1.62 0,1.296 -0.42,2.31 -1.26,3.042 -0.828,0.72 -2.118,1.08 -3.87,1.08 h -5.31 z m 4.95,9.936 c 0.78,0 1.332,-0.126 1.656,-0.378 0.324,-0.264 0.486,-0.624 0.486,-1.08 0,-0.456 -0.162,-0.81 -0.486,-1.062 -0.324,-0.264 -0.876,-0.396 -1.656,-0.396 h -1.71 v 2.916 z m 7.464,-9.936 h 9.18 v 2.484 h -5.94 v 2.466 h 5.4 v 2.34 h -5.4 v 2.826 h 5.94 v 2.484 h -9.18 z m 16.742,12.834 c -0.864,0 -1.656,-0.114 -2.376,-0.342 -0.72,-0.24 -1.338,-0.618 -1.854,-1.134 -0.504,-0.516 -0.9,-1.182 -1.188,-1.998 -0.288,-0.816 -0.432,-1.812 -0.432,-2.988 v -0.342 c 0,-1.104 0.15,-2.052 0.45,-2.844 0.3,-0.792 0.714,-1.44 1.242,-1.944 0.528,-0.504 1.146,-0.876 1.854,-1.116 0.72,-0.24 1.488,-0.36 2.304,-0.36 0.732,0 1.416,0.084 2.052,0.252 0.648,0.168 1.212,0.432 1.692,0.792 0.492,0.36 0.888,0.828 1.188,1.404 0.312,0.576 0.498,1.278 0.558,2.106 h -3.348 c -0.06,-0.336 -0.156,-0.618 -0.288,-0.846 -0.132,-0.24 -0.294,-0.432 -0.486,-0.576 -0.192,-0.156 -0.408,-0.264 -0.648,-0.324 -0.228,-0.072 -0.468,-0.108 -0.72,-0.108 -0.36,0 -0.696,0.066 -1.008,0.198 -0.3,0.12 -0.564,0.324 -0.792,0.612 -0.216,0.276 -0.39,0.642 -0.522,1.098 -0.12,0.456 -0.18,1.008 -0.18,1.656 v 0.378 c 0,0.696 0.066,1.284 0.198,1.764 0.144,0.468 0.33,0.852 0.558,1.152 0.228,0.288 0.492,0.498 0.792,0.63 0.3,0.12 0.618,0.18 0.954,0.18 0.612,0 1.098,-0.144 1.458,-0.432 0.372,-0.3 0.6,-0.774 0.684,-1.422 h 3.348 c -0.048,0.84 -0.222,1.548 -0.522,2.124 -0.288,0.576 -0.678,1.044 -1.17,1.404 -0.48,0.36 -1.044,0.624 -1.692,0.792 -0.648,0.156 -1.35,0.234 -2.106,0.234 z m 7.56,-12.834 h 10.98 v 12.6 h -3.24 v -9.936 h -4.5 v 9.936 h -3.24 z m 13.68,12.834 c -0.096,0 -0.234,-0.006 -0.414,-0.018 -0.168,0 -0.3,-0.012 -0.396,-0.036 v -2.844 c 0.06,0.012 0.15,0.018 0.27,0.018 0.288,0 0.534,-0.054 0.738,-0.162 0.216,-0.108 0.384,-0.366 0.504,-0.774 0.132,-0.408 0.228,-1.008 0.288,-1.8 0.06,-0.804 0.09,-1.89 0.09,-3.258 v -3.96 h 9.54 v 12.6 h -3.24 v -9.954 h -3.276 v 1.674 c 0,1.872 -0.096,3.366 -0.288,4.482 -0.192,1.116 -0.468,1.974 -0.828,2.574 -0.348,0.6 -0.78,0.996 -1.296,1.188 -0.504,0.18 -1.068,0.27 -1.692,0.27 z m 20.384,-2.646 h -4.212 l -0.864,2.412 h -3.06 l 4.59,-12.6 h 3.24 l 4.59,12.6 h -3.42 z m -3.294,-2.484 h 2.376 l -1.188,-3.744 z m 10.902,-5.04 h -3.87 v -2.664 h 10.98 v 2.664 h -3.87 v 9.936 h -3.24 z m 8.917,-2.664 h 3.24 v 4.788 h 4.68 v -4.788 h 3.24 v 12.6 h -3.24 v -5.148 h -4.68 v 5.148 h -3.24 z m 13.856,0 h 3.24 v 4.176 h 1.53 c 1.752,0 3.042,0.378 3.87,1.134 0.84,0.756 1.26,1.782 1.26,3.078 0,1.296 -0.42,2.322 -1.26,3.078 -0.828,0.756 -2.118,1.134 -3.87,1.134 h -4.77 z m 4.41,9.936 c 0.756,0 1.302,-0.144 1.638,-0.432 0.336,-0.288 0.504,-0.66 0.504,-1.116 0,-0.456 -0.168,-0.828 -0.504,-1.116 -0.336,-0.288 -0.882,-0.432 -1.638,-0.432 h -1.17 v 3.096 z m 6.39,-9.936 h 3.24 v 12.6 h -3.24 z m 5.938,0 h 3.24 v 7.56 l 4.95,-7.56 h 2.97 v 12.6 h -3.24 v -7.56 l -4.95,7.56 h -2.97 z m 5.58,-0.72 c -1.272,0 -2.19,-0.258 -2.754,-0.774 -0.564,-0.516 -0.846,-1.278 -0.846,-2.286 h 2.628 c 0,0.492 0.072,0.828 0.216,1.008 0.156,0.168 0.408,0.252 0.756,0.252 0.348,0 0.594,-0.084 0.738,-0.252 0.156,-0.18 0.234,-0.516 0.234,-1.008 h 2.628 c 0,1.008 -0.282,1.77 -0.846,2.286 -0.564,0.516 -1.482,0.774 -2.754,0.774 z m 12.411,0.72 h 6.03 c 1.476,0 2.55,0.294 3.222,0.882 0.672,0.576 1.008,1.404 1.008,2.484 0,0.648 -0.168,1.206 -0.504,1.674 -0.336,0.456 -0.792,0.786 -1.368,0.99 0.744,0.168 1.332,0.51 1.764,1.026 0.432,0.504 0.648,1.164 0.648,1.98 0,1.104 -0.366,1.974 -1.098,2.61 -0.72,0.636 -1.884,0.954 -3.492,0.954 h -6.21 z m 5.49,10.116 c 0.78,0 1.32,-0.114 1.62,-0.342 0.3,-0.24 0.45,-0.606 0.45,-1.098 0,-0.492 -0.156,-0.858 -0.468,-1.098 -0.3,-0.24 -0.846,-0.36 -1.638,-0.36 h -2.214 v 2.898 z m -0.252,-5.094 c 0.696,0 1.164,-0.108 1.404,-0.324 0.252,-0.228 0.378,-0.546 0.378,-0.954 0,-0.42 -0.126,-0.732 -0.378,-0.936 -0.24,-0.216 -0.702,-0.324 -1.386,-0.324 h -2.016 v 2.538 z m 7.633,-5.022 h 9.18 v 2.484 h -5.94 v 2.466 h 5.4 v 2.34 h -5.4 v 2.826 h 5.94 v 2.484 h -9.18 z m 11.43,0 h 9.27 v 2.664 h -6.03 v 1.872 h 2.07 c 0.876,0 1.632,0.096 2.268,0.288 0.648,0.18 1.182,0.444 1.602,0.792 0.432,0.336 0.75,0.75 0.954,1.242 0.204,0.48 0.306,1.02 0.306,1.62 0,1.296 -0.42,2.31 -1.26,3.042 -0.828,0.72 -2.118,1.08 -3.87,1.08 h -5.31 z m 4.95,9.936 c 0.78,0 1.332,-0.126 1.656,-0.378 0.324,-0.264 0.486,-0.624 0.486,-1.08 0,-0.456 -0.162,-0.81 -0.486,-1.062 -0.324,-0.264 -0.876,-0.396 -1.656,-0.396 h -1.71 v 2.916 z m 7.465,-9.936 h 3.24 v 7.56 l 4.95,-7.56 h 2.97 v 12.6 h -3.24 v -7.56 l -4.95,7.56 h -2.97 z m 13.856,0 h 3.24 v 4.788 h 4.68 v -4.788 h 3.24 v 12.6 h -3.24 v -5.148 h -4.68 v 5.148 h -3.24 z m 20.911,10.188 h -4.212 l -0.864,2.412 h -3.06 l 4.59,-12.6 h 3.24 l 4.59,12.6 h -3.42 z m -3.294,-2.484 h 2.376 l -1.188,-3.744 z m 9.198,-7.704 h 5.13 c 1.752,0 3.042,0.384 3.87,1.152 0.84,0.756 1.26,1.806 1.26,3.15 0,1.344 -0.42,2.4 -1.26,3.168 -0.828,0.756 -2.118,1.134 -3.87,1.134 h -1.89 v 3.996 h -3.24 z m 4.77,5.94 c 0.828,0 1.41,-0.138 1.746,-0.414 0.336,-0.276 0.504,-0.684 0.504,-1.224 0,-0.54 -0.168,-0.948 -0.504,-1.224 -0.336,-0.276 -0.918,-0.414 -1.746,-0.414 h -1.53 v 3.276 z"
     fill="#2b2b2b"
     id="path8" />
  <path
     d="m 932.70183,14.380999 h 9.27 v 2.664 h -6.03 v 1.872 h 2.07 c 0.876,0 1.632,0.096 2.268,0.288 0.648,0.18 1.182,0.444 1.602,0.792 0.432,0.336 0.75,0.75 0.954,1.242 0.204,0.48 0.306,1.02 0.306,1.62 0,1.296 -0.42,2.31 -1.26,3.042 -0.828,0.72 -2.118,1.08 -3.87,1.08 h -5.31 z m 4.95,9.936 c 0.78,0 1.332,-0.126 1.656,-0.378 0.324,-0.264 0.486,-0.624 0.486,-1.08 0,-0.456 -0.162,-0.81 -0.486,-1.062 -0.324,-0.264 -0.876,-0.396 -1.656,-0.396 h -1.71 v 2.916 z m 7.464,-9.936 h 9.18 v 2.484 h -5.94 v 2.466 h 5.4 v 2.34 h -5.4 v 2.826 h 5.94 v 2.484 h -9.18 z m 16.742,12.834 c -0.864,0 -1.656,-0.114 -2.376,-0.342 -0.72,-0.24 -1.338,-0.618 -1.854,-1.134 -0.504,-0.516 -0.9,-1.182 -1.188,-1.998 -0.288,-0.816 -0.432,-1.812 -0.432,-2.988 v -0.342 c 0,-1.104 0.15,-2.052 0.45,-2.844 0.3,-0.792 0.714,-1.44 1.242,-1.944 0.528,-0.504 1.146,-0.876 1.854,-1.116 0.72,-0.24 1.488,-0.36 2.304,-0.36 0.732,0 1.416,0.084 2.052,0.252 0.648,0.168 1.212,0.432 1.692,0.792 0.492,0.36 0.888,0.828 1.188,1.404 0.312,0.576 0.498,1.278 0.558,2.106 h -3.348 c -0.06,-0.336 -0.156,-0.618 -0.288,-0.846 -0.132,-0.24 -0.294,-0.432 -0.486,-0.576 -0.192,-0.156 -0.408,-0.264 -0.648,-0.324 -0.228,-0.072 -0.468,-0.108 -0.72,-0.108 -0.36,0 -0.696,0.066 -1.008,0.198 -0.3,0.12 -0.564,0.324 -0.792,0.612 -0.216,0.276 -0.39,0.642 -0.522,1.098 -0.12,0.456 -0.18,1.008 -0.18,1.656 v 0.378 c 0,0.696 0.066,1.284 0.198,1.764 0.144,0.468 0.33,0.852 0.558,1.152 0.228,0.288 0.492,0.498 0.792,0.63 0.3,0.12 0.618,0.18 0.954,0.18 0.612,0 1.098,-0.144 1.458,-0.432 0.372,-0.3 0.6,-0.774 0.684,-1.422 h 3.348 c -0.048,0.84 -0.222,1.548 -0.522,2.124 -0.288,0.576 -0.678,1.044 -1.17,1.404 -0.48,0.36 -1.044,0.624 -1.692,0.792 -0.648,0.156 -1.35,0.234 -2.106,0.234 z m 7.56,-12.834 h 10.98 v 12.6 h -3.24 v -9.936 h -4.5 v 9.936 h -3.24 z m 13.681,12.834 c -0.1,0 -0.24,-0.006 -0.42,-0.018 -0.16,0 -0.3,-0.012 -0.39,-0.036 v -2.844 c 0.06,0.012 0.15,0.018 0.27,0.018 0.29,0 0.53,-0.054 0.74,-0.162 0.21,-0.108 0.38,-0.366 0.5,-0.774 0.13,-0.408 0.23,-1.008 0.29,-1.8 0.06,-0.804 0.09,-1.89 0.09,-3.258 v -3.96 h 9.54 v 12.6 h -3.24 v -9.954 h -3.28 v 1.674 c 0,1.872 -0.09,3.366 -0.29,4.482 -0.19,1.116 -0.46,1.974 -0.82,2.574 -0.35,0.6 -0.78,0.996 -1.3,1.188 -0.5,0.18 -1.07,0.27 -1.69,0.27 z m 20.37997,-2.646 h -4.20997 l -0.86,2.412 h -3.06 l 4.59,-12.6 h 3.23997 l 4.59,12.6 h -3.42 z m -3.29,-2.484 h 2.38 l -1.19,-3.744 z m 10.9,-5.04 h -3.87 v -2.664 h 10.98 v 2.664 h -3.87 v 9.936 h -3.24 z m 8.92,-2.664 h 3.24 v 4.788 h 4.68 v -4.788 h 3.24 v 12.6 h -3.24 v -5.148 h -4.68 v 5.148 h -3.24 z m 13.85,0 h 3.24 v 4.176 h 1.53 c 1.76,0 3.05,0.378 3.87,1.134 0.84,0.756 1.26,1.782 1.26,3.078 0,1.296 -0.42,2.322 -1.26,3.078 -0.82,0.756 -2.11,1.134 -3.87,1.134 h -4.77 z m 4.41,9.936 c 0.76,0 1.31,-0.144 1.64,-0.432 0.34,-0.288 0.51,-0.66 0.51,-1.116 0,-0.456 -0.17,-0.828 -0.51,-1.116 -0.33,-0.288 -0.88,-0.432 -1.64,-0.432 h -1.17 v 3.096 z m 6.39,-9.936 h 3.24 v 12.6 h -3.24 z m 5.94,0 h 3.24 v 7.56 l 4.95,-7.56 h 2.97 v 12.6 h -3.24 v -7.56 l -4.95,7.56 h -2.97 z m 5.58,-0.72 c -1.27,0 -2.19,-0.258 -2.75,-0.774 -0.57,-0.516 -0.85,-1.278 -0.85,-2.286 h 2.63 c 0,0.492 0.07,0.828 0.22,1.008 0.15,0.168 0.4,0.252 0.75,0.252 0.35,0 0.6,-0.084 0.74,-0.252 0.16,-0.18 0.23,-0.516 0.23,-1.008 h 2.63 c 0,1.008 -0.28,1.77 -0.84,2.286 -0.57,0.516 -1.49,0.774 -2.76,0.774 z m 12.41,0.72 h 6.03 c 1.48,0 2.55,0.294 3.23,0.882 0.67,0.576 1,1.404 1,2.484 0,0.648 -0.16,1.206 -0.5,1.674 -0.34,0.456 -0.79,0.786 -1.37,0.99 0.75,0.168 1.33,0.51 1.77,1.026 0.43,0.504 0.64,1.164 0.64,1.98 0,1.104 -0.36,1.974 -1.09,2.61 -0.72,0.636 -1.89,0.954 -3.5,0.954 h -6.21 z m 5.49,10.116 c 0.78,0 1.32,-0.114 1.62,-0.342 0.3,-0.24 0.45,-0.606 0.45,-1.098 0,-0.492 -0.15,-0.858 -0.46,-1.098 -0.3,-0.24 -0.85,-0.36 -1.64,-0.36 h -2.22 v 2.898 z m -0.25,-5.094 c 0.7,0 1.17,-0.108 1.41,-0.324 0.25,-0.228 0.37,-0.546 0.37,-0.954 0,-0.42 -0.12,-0.732 -0.37,-0.936 -0.24,-0.216 -0.71,-0.324 -1.39,-0.324 h -2.02 v 2.538 z m 7.63,-5.022 h 9.18 v 2.484 h -5.94 v 2.466 h 5.4 v 2.34 h -5.4 v 2.826 h 5.94 v 2.484 h -9.18 z m 11.43,0 h 9.27 v 2.664 h -6.03 v 1.872 h 2.07 c 0.88,0 1.64,0.096 2.27,0.288 0.65,0.18 1.18,0.444 1.6,0.792 0.44,0.336 0.75,0.75 0.96,1.242 0.2,0.48 0.3,1.02 0.3,1.62 0,1.296 -0.42,2.31 -1.26,3.042 -0.82,0.72 -2.11,1.08 -3.87,1.08 h -5.31 z m 4.95,9.936 c 0.78,0 1.34,-0.126 1.66,-0.378 0.32,-0.264 0.49,-0.624 0.49,-1.08 0,-0.456 -0.17,-0.81 -0.49,-1.062 -0.32,-0.264 -0.88,-0.396 -1.66,-0.396 h -1.71 v 2.916 z m 7.47,-9.936 h 3.24 v 7.56 l 4.95,-7.56 h 2.97 v 12.6 h -3.24 v -7.56 l -4.95,7.56 h -2.97 z m 13.85,0 h 3.24 v 4.788 h 4.68 v -4.788 h 3.24 v 12.6 h -3.24 v -5.148 h -4.68 v 5.148 h -3.24 z m 20.92,10.188 h -4.22 l -0.86,2.412 h -3.06 l 4.59,-12.6 h 3.24 l 4.59,12.6 h -3.42 z m -3.3,-2.484 h 2.38 l -1.19,-3.744 z m 9.2,-7.704 h 5.13 c 1.75,0 3.04,0.384 3.87,1.152 0.84,0.756 1.26,1.806 1.26,3.15 0,1.344 -0.42,2.4 -1.26,3.168 -0.83,0.756 -2.12,1.134 -3.87,1.134 h -1.89 v 3.996 h -3.24 z m 4.77,5.94 c 0.83,0 1.41,-0.138 1.75,-0.414 0.33,-0.276 0.5,-0.684 0.5,-1.224 0,-0.54 -0.17,-0.948 -0.5,-1.224 -0.34,-0.276 -0.92,-0.414 -1.75,-0.414 h -1.53 v 3.276 z"
     fill="#2b2b2b"
     id="path10" />
  <path
     d="m 1233.6988,14.380999 h 9.27 v 2.664 h -6.03 v 1.872 h 2.07 c 0.88,0 1.63,0.096 2.27,0.288 0.65,0.18 1.18,0.444 1.6,0.792 0.43,0.336 0.75,0.75 0.96,1.242 0.2,0.48 0.3,1.02 0.3,1.62 0,1.296 -0.42,2.31 -1.26,3.042 -0.83,0.72 -2.12,1.08 -3.87,1.08 h -5.31 z m 4.95,9.936 c 0.78,0 1.33,-0.126 1.66,-0.378 0.32,-0.264 0.48,-0.624 0.48,-1.08 0,-0.456 -0.16,-0.81 -0.48,-1.062 -0.33,-0.264 -0.88,-0.396 -1.66,-0.396 h -1.71 v 2.916 z m 7.47,-9.936 h 9.18 v 2.484 h -5.94 v 2.466 h 5.4 v 2.34 h -5.4 v 2.826 h 5.94 v 2.484 h -9.18 z m 16.74,12.834 c -0.86,0 -1.66,-0.114 -2.38,-0.342 -0.72,-0.24 -1.33,-0.618 -1.85,-1.134 -0.5,-0.516 -0.9,-1.182 -1.19,-1.998 -0.29,-0.816 -0.43,-1.812 -0.43,-2.988 v -0.342 c 0,-1.104 0.15,-2.052 0.45,-2.844 0.3,-0.792 0.71,-1.44 1.24,-1.944 0.53,-0.504 1.15,-0.876 1.86,-1.116 0.72,-0.24 1.48,-0.36 2.3,-0.36 0.73,0 1.42,0.084 2.05,0.252 0.65,0.168 1.21,0.432 1.69,0.792 0.5,0.36 0.89,0.828 1.19,1.404 0.31,0.576 0.5,1.278 0.56,2.106 h -3.35 c -0.06,-0.336 -0.15,-0.618 -0.29,-0.846 -0.13,-0.24 -0.29,-0.432 -0.48,-0.576 -0.19,-0.156 -0.41,-0.264 -0.65,-0.324 -0.23,-0.072 -0.47,-0.108 -0.72,-0.108 -0.36,0 -0.7,0.066 -1.01,0.198 -0.3,0.12 -0.56,0.324 -0.79,0.612 -0.22,0.276 -0.39,0.642 -0.52,1.098 -0.12,0.456 -0.18,1.008 -0.18,1.656 v 0.378 c 0,0.696 0.06,1.284 0.2,1.764 0.14,0.468 0.33,0.852 0.55,1.152 0.23,0.288 0.5,0.498 0.8,0.63 0.3,0.12 0.61,0.18 0.95,0.18 0.61,0 1.1,-0.144 1.46,-0.432 0.37,-0.3 0.6,-0.774 0.68,-1.422 h 3.35 c -0.05,0.84 -0.22,1.548 -0.52,2.124 -0.29,0.576 -0.68,1.044 -1.17,1.404 -0.48,0.36 -1.05,0.624 -1.69,0.792 -0.65,0.156 -1.35,0.234 -2.11,0.234 z m 7.56,-12.834 h 10.98 v 12.6 h -3.24 v -9.936 h -4.5 v 9.936 h -3.24 z m 13.68,12.834 c -0.1,0 -0.24,-0.006 -0.42,-0.018 -0.16,0 -0.3,-0.012 -0.39,-0.036 v -2.844 c 0.06,0.012 0.15,0.018 0.27,0.018 0.29,0 0.53,-0.054 0.74,-0.162 0.21,-0.108 0.38,-0.366 0.5,-0.774 0.13,-0.408 0.23,-1.008 0.29,-1.8 0.06,-0.804 0.09,-1.89 0.09,-3.258 v -3.96 h 9.54 v 12.6 h -3.24 v -9.954 h -3.28 v 1.674 c 0,1.872 -0.09,3.366 -0.29,4.482 -0.19,1.116 -0.46,1.974 -0.82,2.574 -0.35,0.6 -0.78,0.996 -1.3,1.188 -0.5,0.18 -1.07,0.27 -1.69,0.27 z m 20.38,-2.646 h -4.21 l -0.86,2.412 h -3.06 l 4.59,-12.6 h 3.24 l 4.59,12.6 h -3.42 z m -3.29,-2.484 h 2.38 l -1.19,-3.744 z m 10.9,-5.04 h -3.87 v -2.664 h 10.98 v 2.664 h -3.87 v 9.936 h -3.24 z m 8.92,-2.664 h 3.24 v 4.788 h 4.68 v -4.788 h 3.24 v 12.6 h -3.24 v -5.148 h -4.68 v 5.148 h -3.24 z m 13.85,0 h 3.24 v 4.176 h 1.53 c 1.76,0 3.05,0.378 3.87,1.134 0.84,0.756 1.26,1.782 1.26,3.078 0,1.296 -0.42,2.322 -1.26,3.078 -0.82,0.756 -2.11,1.134 -3.87,1.134 h -4.77 z m 4.41,9.936 c 0.76,0 1.31,-0.144 1.64,-0.432 0.34,-0.288 0.51,-0.66 0.51,-1.116 0,-0.456 -0.17,-0.828 -0.51,-1.116 -0.33,-0.288 -0.88,-0.432 -1.64,-0.432 h -1.17 v 3.096 z m 6.39,-9.936 h 3.24 v 12.6 h -3.24 z m 5.94,0 h 3.24 v 7.56 l 4.95,-7.56 h 2.97 v 12.6 h -3.24 v -7.56 l -4.95,7.56 h -2.97 z m 5.58,-0.72 c -1.27,0 -2.19,-0.258 -2.75,-0.774 -0.57,-0.516 -0.85,-1.278 -0.85,-2.286 h 2.63 c 0,0.492 0.07,0.828 0.22,1.008 0.15,0.168 0.4,0.252 0.75,0.252 0.35,0 0.6,-0.084 0.74,-0.252 0.16,-0.18 0.23,-0.516 0.23,-1.008 h 2.63 c 0,1.008 -0.28,1.77 -0.84,2.286 -0.57,0.516 -1.49,0.774 -2.76,0.774 z m 12.41,0.72 h 6.03 c 1.48,0 2.55,0.294 3.23,0.882 0.67,0.576 1,1.404 1,2.484 0,0.648 -0.16,1.206 -0.5,1.674 -0.34,0.456 -0.79,0.786 -1.37,0.99 0.75,0.168 1.33,0.51 1.77,1.026 0.43,0.504 0.64,1.164 0.64,1.98 0,1.104 -0.36,1.974 -1.09,2.61 -0.72,0.636 -1.89,0.954 -3.5,0.954 h -6.21 z m 5.49,10.116 c 0.78,0 1.32,-0.114 1.62,-0.342 0.3,-0.24 0.45,-0.606 0.45,-1.098 0,-0.492 -0.15,-0.858 -0.46,-1.098 -0.3,-0.24 -0.85,-0.36 -1.64,-0.36 h -2.22 v 2.898 z m -0.25,-5.094 c 0.7,0 1.17,-0.108 1.41,-0.324 0.25,-0.228 0.37,-0.546 0.37,-0.954 0,-0.42 -0.12,-0.732 -0.37,-0.936 -0.24,-0.216 -0.71,-0.324 -1.39,-0.324 h -2.02 v 2.538 z m 7.63,-5.022 h 9.18 v 2.484 h -5.94 v 2.466 h 5.4 v 2.34 h -5.4 v 2.826 h 5.94 v 2.484 h -9.18 z m 11.43,0 h 9.27 v 2.664 h -6.03 v 1.872 h 2.07 c 0.88,0 1.64,0.096 2.27,0.288 0.65,0.18 1.18,0.444 1.6,0.792 0.44,0.336 0.75,0.75 0.96,1.242 0.2,0.48 0.3,1.02 0.3,1.62 0,1.296 -0.42,2.31 -1.26,3.042 -0.82,0.72 -2.11,1.08 -3.87,1.08 h -5.31 z m 4.95,9.936 c 0.78,0 1.34,-0.126 1.66,-0.378 0.32,-0.264 0.49,-0.624 0.49,-1.08 0,-0.456 -0.17,-0.81 -0.49,-1.062 -0.32,-0.264 -0.88,-0.396 -1.66,-0.396 h -1.71 v 2.916 z m 7.47,-9.936 h 3.24 v 7.56 l 4.95,-7.56 h 2.97 v 12.6 h -3.24 v -7.56 l -4.95,7.56 h -2.97 z m 13.85,0 h 3.24 v 4.788 h 4.68 v -4.788 h 3.24 v 12.6 h -3.24 v -5.148 h -4.68 v 5.148 h -3.24 z m 20.92,10.188 h -4.22 l -0.86,2.412 h -3.06 l 4.59,-12.6 h 3.24 l 4.59,12.6 h -3.42 z m -3.3,-2.484 h 2.38 l -1.19,-3.744 z m 9.2,-7.704 h 5.13 c 1.75,0 3.04,0.384 3.87,1.152 0.84,0.756 1.26,1.806 1.26,3.15 0,1.344 -0.42,2.4 -1.26,3.168 -0.83,0.756 -2.12,1.134 -3.87,1.134 h -1.89 v 3.996 h -3.24 z m 4.77,5.94 c 0.83,0 1.41,-0.138 1.75,-0.414 0.33,-0.276 0.5,-0.684 0.5,-1.224 0,-0.54 -0.17,-0.948 -0.5,-1.224 -0.34,-0.276 -0.92,-0.414 -1.75,-0.414 h -1.53 v 3.276 z"
     fill="#2b2b2b"
     id="path12" />
  <circle
     cx="304.87686"
     cy="20.545"
     r="1.86779"
     fill="#2b2b2b"
     id="circle14" />
  <circle
     cx="600.61182"
     cy="20.545"
     r="1.86779"
     fill="#2b2b2b"
     id="circle16" />
  <circle
     cx="896.34778"
     cy="20.545"
     r="1.86779"
     fill="#2b2b2b"
     id="circle18" />
  <circle
     cx="1192.0789"
     cy="20.545"
     r="1.86779"
     fill="#2b2b2b"
     id="circle20" />
  <circle
     cx="9.1410217"
     cy="20.545"
     r="1.86779"
     fill="#2b2b2b"
     id="circle22" />
</svg>
