<svg width="40" height="40" viewBox="0 0 40 40" fill="none" xmlns="http://www.w3.org/2000/svg">
<circle cx="20" cy="20" r="20" fill="black"/>
<path fill-rule="evenodd" clip-rule="evenodd" d="M20.6867 25.8702C20.6867 25.8702 21.0709 25.8283 21.2677 25.6208C21.4478 25.4307 21.4415 25.0721 21.4415 25.0721C21.4415 25.0721 21.4176 23.3971 22.2098 23.1498C22.9907 22.9066 23.9932 24.7696 25.0572 25.4859C25.8609 26.0276 26.471 25.909 26.471 25.909L29.3142 25.8702C29.3142 25.8702 30.8009 25.7802 30.0961 24.6326C30.0378 24.5386 29.6848 23.7834 27.9827 22.2321C26.1993 20.6083 26.4387 20.8709 28.5855 18.0616C29.8931 16.3509 30.4157 15.3065 30.2522 14.86C30.0971 14.4328 29.1351 14.5462 29.1351 14.5462L25.9349 14.5656C25.9349 14.5656 25.6975 14.534 25.5215 14.6372C25.3498 14.7383 25.2384 14.9744 25.2384 14.9744C25.2384 14.9744 24.7324 16.2978 24.0567 17.424C22.6315 19.7989 22.062 19.9246 21.8288 19.7775C21.2864 19.4331 21.4217 18.3958 21.4217 17.659C21.4217 15.3566 21.7778 14.397 20.7294 14.1487C20.3817 14.0659 20.1256 14.0118 19.2355 14.0026C18.0934 13.9913 17.1273 14.0066 16.5797 14.2693C16.2153 14.444 15.9342 14.8344 16.106 14.8569C16.3173 14.8845 16.7962 14.9836 17.0502 15.3229C17.3782 15.7613 17.3667 16.7444 17.3667 16.7444C17.3667 16.7444 17.5552 19.4545 16.9263 19.7907C16.4953 20.0217 15.904 19.5506 14.6328 17.3953C13.9822 16.2917 13.4908 15.0715 13.4908 15.0715C13.4908 15.0715 13.396 14.8436 13.2263 14.721C13.0212 14.5728 12.7349 14.5268 12.7349 14.5268L9.69392 14.5462C9.69392 14.5462 9.23689 14.5585 9.06927 14.7537C8.9204 14.9264 9.05782 15.2851 9.05782 15.2851C9.05782 15.2851 11.4388 20.7534 14.1352 23.5095C16.6078 26.0357 19.4145 25.8702 19.4145 25.8702H20.6867Z" fill="white"/>
</svg>
