<svg width="110" height="89" viewBox="0 0 110 89" fill="none" xmlns="http://www.w3.org/2000/svg">
<path d="M101.637 17.871H91.6606L89.3686 7.51414C88.3898 3.08995 84.5415 0 80.0104 0H45.3755C40.8444 0 36.9961 3.08973 36.0171 7.51392L33.7251 17.871H31.3578V13.4519C31.3578 10.9617 29.3316 8.93548 26.8412 8.93548H12.2375C9.7471 8.93548 7.72093 10.9617 7.72093 13.4519V17.871H7.40211C3.32059 17.871 0 21.1916 0 25.2733V75.4073C0 79.4891 3.32059 82.8097 7.40233 82.8097H14.9727H41.7318C47.7746 86.724 54.9725 89 62.6928 89C70.413 89 77.6111 86.724 83.6537 82.8097H101.637C105.719 82.8097 109.039 79.4891 109.039 75.4073V25.2733C109.039 21.1916 105.719 17.871 101.637 17.871ZM40.1755 8.43416C40.7196 5.97608 42.8578 4.25914 45.3753 4.25914H80.0102C82.5277 4.25914 84.6659 5.97587 85.2098 8.43416L87.2982 17.871H83.6537C77.6109 13.9566 70.413 11.6806 62.6928 11.6806C54.9725 11.6806 47.7746 13.9566 41.7318 17.871H38.0871L40.1755 8.43416ZM11.9803 13.4519C11.9803 13.31 12.0957 13.1948 12.2375 13.1948H26.8409C26.9828 13.1948 27.0982 13.3103 27.0982 13.4519V17.871H11.9803V13.4519ZM17.1024 78.5501V55.4182C17.1024 54.242 16.1489 53.2885 14.9727 53.2885C13.7965 53.2885 12.843 54.242 12.843 55.4182V78.5503H7.40233C5.66941 78.5503 4.25935 77.1403 4.25935 75.4073V25.2733C4.25935 23.5402 5.66941 22.1303 7.40233 22.1303H9.85081H29.2279H35.4348H36.2884C28.7513 29.1893 24.033 39.2235 24.033 50.3402C24.033 61.4569 28.7513 71.4911 36.2884 78.5501H17.1024ZM82.356 78.5503C79.8175 80.3252 77.0295 81.7659 74.0558 82.8097C70.4967 84.0589 66.6731 84.7406 62.6928 84.7406C58.7124 84.7406 54.8886 84.0587 51.3297 82.8097C48.356 81.7659 45.5682 80.3252 43.0295 78.5503C34.1272 72.3263 28.2923 62.0027 28.2923 50.3404C28.2923 38.6781 34.1272 28.3545 43.0295 22.1305C45.568 20.3557 48.356 18.9149 51.3297 17.8712C54.8888 16.6219 58.7124 15.9402 62.6928 15.9402C66.6731 15.9402 70.4969 16.6221 74.0558 17.8712C77.0295 18.9149 79.8173 20.3557 82.356 22.1305C91.2583 28.3545 97.0932 38.6781 97.0932 50.3404C97.0932 62.0027 91.2583 72.3263 82.356 78.5503ZM104.78 75.4071C104.78 77.1403 103.37 78.5501 101.637 78.5501H89.0971C96.6342 71.4911 101.353 61.4569 101.353 50.3402C101.353 39.2235 96.6342 29.1893 89.0971 22.1303H89.9507H101.637C103.37 22.1303 104.78 23.5402 104.78 25.2733V75.4071Z" fill="#242229"/>
</svg>
