<svg width="109" height="115" viewBox="0 0 109 115" fill="none" xmlns="http://www.w3.org/2000/svg">
<path d="M13.0065 13.095L14.8644 18.3189C14.944 18.5426 15.1013 18.7196 15.3 18.8093L19.9411 20.9003C20.5967 21.1957 20.5967 22.2405 19.9411 22.5357L15.3 24.6267C15.1013 24.7161 14.9437 24.8934 14.8644 25.1171L13.0065 30.3409C12.7441 31.079 11.8158 31.079 11.5534 30.3409L9.69555 25.1171C9.61598 24.8934 9.45862 24.7161 9.25991 24.6267L4.61881 22.5357C3.96301 22.2402 3.96301 21.1955 4.61881 20.9003L9.25991 18.8093C9.45862 18.7196 9.61598 18.5424 9.69555 18.3189L11.5534 13.095C11.8158 12.357 12.7441 12.357 13.0065 13.095Z" fill="#242229"/>
<path d="M29.3201 0.410545L30.698 4.28544C30.757 4.45129 30.8739 4.58271 31.0212 4.64932L34.4641 6.20031C34.9505 6.41958 34.9505 7.19429 34.4641 7.41356L31.0212 8.96454C30.8737 9.03093 30.757 9.16235 30.698 9.32843L29.3201 13.2033C29.1254 13.7507 28.4369 13.7507 28.2423 13.2033L26.8643 9.32843C26.8053 9.16258 26.6886 9.03115 26.5411 8.96454L23.0982 7.41356C22.6119 7.19451 22.6119 6.41958 23.0982 6.20031L26.5411 4.64932C26.6886 4.58294 26.8053 4.45151 26.8643 4.28544L28.2423 0.410545C28.4367 -0.136848 29.1254 -0.136848 29.3201 0.410545Z" fill="#242229"/>
<path d="M6.14035 8.90654C6.29499 7.95265 5.64706 7.05402 4.69317 6.89938C3.73929 6.74475 2.84065 7.39268 2.68602 8.34656C2.53139 9.30045 3.17931 10.1991 4.1332 10.3537C5.08709 10.5083 5.98572 9.86043 6.14035 8.90654Z" fill="#242229"/>
<path d="M103.491 22.2738L104.869 26.1487C104.928 26.3146 105.045 26.446 105.193 26.5126L108.635 28.0636C109.121 28.2826 109.121 29.0578 108.635 29.2768L105.193 30.8278C105.045 30.8942 104.928 31.0256 104.869 31.1917L103.491 35.0666C103.297 35.614 102.608 35.614 102.414 35.0666L101.036 31.1917C100.977 31.0259 100.86 30.8944 100.712 30.8278L97.2695 29.2768C96.7831 29.0578 96.7831 28.2829 97.2695 28.0636L100.712 26.5126C100.86 26.4462 100.977 26.3148 101.036 26.1487L102.414 22.2738C102.608 21.7264 103.297 21.7264 103.491 22.2738Z" fill="#242229"/>
<path d="M94.2553 47.6122H85.8882L85.1783 43.9874C84.3654 39.8363 80.7055 36.8235 76.4755 36.8235H73.0961V32.4835H77.5474C81.4425 32.4835 84.6113 29.3144 84.6113 25.4194V14.2711C84.6113 10.3761 81.4422 7.20703 77.5474 7.20703H46.3317C42.4367 7.20703 39.2677 10.3758 39.2677 14.2711V25.4194C39.2677 29.3147 42.4367 32.4835 46.3317 32.4835H50.7828V36.8235H46.9059C42.6669 36.8235 39.0055 39.8441 38.1995 44.0055L37.5008 47.6122H28.9168C27.9705 46.5568 26.7568 45.7472 25.3837 45.2876V44.6499C25.3837 40.366 21.8986 36.8809 17.6149 36.8809H13.4121C9.12821 36.8809 5.64336 40.366 5.64336 44.6499V45.2874C2.36794 46.3835 0 49.4786 0 53.1181V106.184C0 110.737 3.7039 114.44 8.25672 114.44H22.5296H22.7706H94.2553C100.048 114.44 104.762 109.727 104.762 103.934V58.1184C104.762 52.3253 100.048 47.6122 94.2553 47.6122ZM43.791 25.4194V14.2711C43.791 12.8701 44.9309 11.7303 46.3317 11.7303H77.5472C78.9482 11.7303 80.0877 12.8701 80.0877 14.2711V25.4194C80.0877 26.8204 78.948 27.9601 77.5472 27.9601H46.3317C44.9309 27.9601 43.791 26.8204 43.791 25.4194ZM55.3062 32.4835H68.5728V36.8235H55.3062V32.4835ZM39.3665 52.1355C40.4499 52.1355 41.381 51.3675 41.5869 50.304L42.6401 44.8659C43.0351 42.8269 44.829 41.347 46.9059 41.347H76.4757C78.5479 41.347 80.3414 42.8231 80.7397 44.8571L81.8075 50.3087C82.0153 51.37 82.9454 52.1357 84.027 52.1357H94.2558C97.5549 52.1357 100.239 54.8197 100.239 58.1186V64.1661H81.4914C76.8494 58.5127 69.8088 54.9 61.9399 54.9C54.071 54.9 47.0304 58.5127 42.3884 64.1661H31.028V53.1185C31.028 52.7857 31.0058 52.4583 30.9674 52.1357H39.3665V52.1355ZM61.9395 59.4228C73.3909 59.4228 82.7073 68.7393 82.7073 80.1907C82.7073 91.6422 73.3909 100.959 61.9395 100.959C50.488 100.959 41.1716 91.6422 41.1716 80.1907C41.1716 68.7393 50.488 59.4228 61.9395 59.4228ZM13.4121 41.4045H17.6152C19.4049 41.4045 20.8608 42.8605 20.8608 44.6502V44.8614H10.1667V44.6502C10.1667 42.8605 11.6224 41.4045 13.4121 41.4045ZM4.52309 106.184V53.1181C4.52309 51.0593 6.1979 49.3845 8.2565 49.3845H22.7704C24.8289 49.3845 26.504 51.0593 26.504 53.1181V106.184C26.504 108.242 24.8289 109.917 22.7704 109.917H8.2565C6.1979 109.917 4.52309 108.242 4.52309 106.184ZM94.2553 109.917H30.1314C30.703 108.795 31.0275 107.527 31.0275 106.184V66.8798H40.4441C38.0395 70.7487 36.6483 75.31 36.6483 80.1907C36.6483 94.1362 47.9938 105.482 61.9395 105.482C75.8851 105.482 87.2307 94.1364 87.2307 80.1907C87.2307 75.31 85.8395 70.7485 83.4349 66.8798H100.238V103.934C100.238 107.233 97.5542 109.917 94.2553 109.917Z" fill="#242229"/>
<path d="M61.9394 95.2896C70.2648 95.2896 77.0382 88.5164 77.0382 80.1908C77.0382 71.8653 70.2648 65.092 61.9394 65.092C53.6141 65.092 46.8406 71.8653 46.8406 80.1908C46.8406 88.5164 53.6141 95.2896 61.9394 95.2896ZM61.9394 67.806C68.7686 67.806 74.3243 73.3617 74.3243 80.1908C74.3243 87.02 68.7686 92.5757 61.9394 92.5757C55.1103 92.5757 49.5546 87.02 49.5546 80.1908C49.5546 73.3617 55.1103 67.806 61.9394 67.806Z" fill="#242229"/>
<path d="M73.7229 17.7956C73.7229 16.5075 72.6747 15.4595 71.3866 15.4595H52.4919C51.2038 15.4595 50.1556 16.5075 50.1556 17.7956V21.8947C50.1556 23.183 51.2038 24.231 52.4919 24.231H71.3866C72.6747 24.231 73.7229 23.183 73.7229 21.8947V17.7956ZM71.7205 21.8947C71.7205 22.0789 71.5708 22.2286 71.3866 22.2286H52.4919C52.3077 22.2286 52.1579 22.0789 52.1579 21.8947V17.7956C52.1579 17.6116 52.3077 17.4618 52.4919 17.4618H71.3866C71.5708 17.4618 71.7205 17.6116 71.7205 17.7956V21.8947Z" fill="#242229"/>
</svg>
