<?xml version="1.0" encoding="UTF-8" standalone="no"?>
<svg
   xmlns:dc="http://purl.org/dc/elements/1.1/"
   xmlns:cc="http://creativecommons.org/ns#"
   xmlns:rdf="http://www.w3.org/1999/02/22-rdf-syntax-ns#"
   xmlns:svg="http://www.w3.org/2000/svg"
   xmlns="http://www.w3.org/2000/svg"
   xmlns:sodipodi="http://sodipodi.sourceforge.net/DTD/sodipodi-0.dtd"
   xmlns:inkscape="http://www.inkscape.org/namespaces/inkscape"
   width="33.733101mm"
   height="33.73418mm"
   viewBox="0 0 33.733101 33.73418"
   version="1.1"
   id="svg1194"
   inkscape:version="1.0.2 (e86c870879, 2021-01-15, custom)"
   sodipodi:docname="ak_logo.svg">
  <defs
     id="defs1188" />
  <sodipodi:namedview
     id="base"
     pagecolor="#000000"
     bordercolor="#666666"
     borderopacity="1.0"
     inkscape:pageopacity="0"
     inkscape:pageshadow="2"
     inkscape:zoom="0.35"
     inkscape:cx="63.747612"
     inkscape:cy="63.749504"
     inkscape:document-units="mm"
     inkscape:current-layer="layer1"
     inkscape:document-rotation="0"
     showgrid="false"
     fit-margin-top="0"
     fit-margin-left="0"
     fit-margin-right="0"
     fit-margin-bottom="0"
     inkscape:window-width="1267"
     inkscape:window-height="768"
     inkscape:window-x="61"
     inkscape:window-y="769"
     inkscape:window-maximized="0" />
  <metadata
     id="metadata1191">
    <rdf:RDF>
      <cc:Work
         rdf:about="">
        <dc:format>image/svg+xml</dc:format>
        <dc:type
           rdf:resource="http://purl.org/dc/dcmitype/StillImage" />
        <dc:title></dc:title>
      </cc:Work>
    </rdf:RDF>
  </metadata>
  <g
     inkscape:label="Layer 1"
     inkscape:groupmode="layer"
     id="layer1"
     transform="translate(-88.966778,-131.29961)">
    <g
       id="g1180"
       transform="matrix(1.9965542,0,0,1.9965542,-401.12842,2628.3021)"
       style="stroke-width:0.500863"
       inkscape:export-filename="D:\Dropbox\Work\alexkrasik.github.io\img\ak_logo.png"
       inkscape:export-xdpi="96"
       inkscape:export-ydpi="96">
      <path
         style="opacity:1;fill:#ffffff;fill-opacity:1;stroke:none;stroke-width:0.13252;stroke-linecap:round;stroke-linejoin:round;stroke-miterlimit:4;stroke-dasharray:none;stroke-dashoffset:100.006;stroke-opacity:1;paint-order:markers fill stroke"
         d="m 253.91864,-1250.655 a 8.4478626,8.4478626 0 0 0 -8.04499,5.8803 c 0.0472,-0.023 0.0919,-0.047 0.14263,-0.069 0.67179,-0.2929 1.49,-0.4393 2.45463,-0.4393 0.43063,0 0.90261,0.055 1.41593,0.1654 1.29191,-1.0749 2.61655,-1.8621 3.97392,-2.3616 0.65457,-0.2412 1.23334,-0.3618 1.73633,-0.3618 0.23426,0 0.40824,0.053 0.52193,0.1602 0.11713,0.1034 0.1757,0.236 0.1757,0.3979 0,0.1585 -0.0431,0.3566 -0.12919,0.5943 -0.0827,0.2377 -0.18776,0.503 -0.31523,0.7958 -0.12747,0.2894 -0.26527,0.6012 -0.41341,0.9354 -0.14469,0.3341 -0.28077,0.6752 -0.40824,1.0232 -0.29628,0.8096 -0.44442,1.4951 -0.44442,2.0567 0,0.4099 0.18087,0.6149 0.5426,0.6149 0.10335,0 0.21704,-0.026 0.34107,-0.078 0.0655,0.045 0.11885,0.1051 0.16019,0.1809 0.0413,0.072 0.062,0.1361 0.062,0.1912 0,0.032 -0.01,0.073 -0.0243,0.1209 0.002,0 0.004,-0.01 0.006,-0.011 0.23082,-0.4341 0.4582,-0.8613 0.68213,-1.2816 0.22738,-0.4203 0.43925,-0.8044 0.63562,-1.1524 0.44442,-0.782 0.76309,-1.2609 0.95601,-1.4366 0.11025,-0.1 0.267,-0.1 0.47026,0 0.0551,0.028 0.1068,0.062 0.15503,0.1033 -0.39274,0.534 -0.863,1.5004 -1.41077,2.8991 1.14722,-0.3032 2.22037,-0.7734 3.21944,-1.4108 0.60634,-0.3858 1.05765,-0.7717 1.35393,-1.1575 0.11229,-0.1437 0.19402,-0.2823 0.24494,-0.416 a 8.4478626,8.4478626 0 0 0 -8.05945,-5.9449 z m 1.4149,3.4034 c -0.62701,0 -1.34187,0.2343 -2.14457,0.7028 -0.77515,0.4548 -1.50206,1.0422 -2.18075,1.7622 0.54777,0.1964 0.88022,0.3738 0.99735,0.5323 0.13437,0.1791 0.11197,0.3583 -0.0672,0.5374 -0.51332,-0.248 -0.97324,-0.4358 -1.37977,-0.5633 -0.87849,1.0611 -1.39698,2.0895 -1.55545,3.0851 -0.0241,0.1619 -0.0362,0.3256 -0.0362,0.4909 0,0.162 0.0155,0.3256 0.0465,0.491 -0.34451,0.2549 -0.69935,0.4444 -1.06453,0.5684 -0.12747,0.045 -0.23082,0.067 -0.31006,0.067 -0.0792,0 -0.16192,-0.021 -0.24805,-0.062 -0.0827,-0.041 -0.15847,-0.1051 -0.22738,-0.1912 -0.16536,-0.193 -0.24804,-0.4496 -0.24804,-0.77 0,-0.3204 0.0568,-0.6442 0.17053,-0.9715 0.11713,-0.3273 0.27733,-0.658 0.48059,-0.9922 0.38241,-0.6305 0.93362,-1.2868 1.65365,-1.9689 -0.2825,-0.017 -0.56328,-0.026 -0.84233,-0.026 -0.27905,0 -0.57016,0.036 -0.87333,0.1085 -0.64079,0.1516 -1.02319,0.441 -1.14722,0.8682 -0.0241,0.076 -0.0362,0.1757 -0.0362,0.2997 0,0.1206 0.0413,0.2773 0.12402,0.4702 -0.0689,0.1275 -0.2291,0.1792 -0.48059,0.1551 -0.18359,-0.017 -0.33739,-0.058 -0.46509,-0.121 a 8.4478626,8.4478626 0 0 0 -0.0289,0.5711 8.4478626,8.4478626 0 0 0 8.44807,8.448 8.4478626,8.4478626 0 0 0 6.39392,-2.9331 c -0.23583,0.073 -0.46232,0.1137 -0.67748,0.1137 -0.38929,0 -0.69935,-0.045 -0.93017,-0.1344 -0.22738,-0.09 -0.41858,-0.2101 -0.57361,-0.3617 -0.15503,-0.1551 -0.27733,-0.3325 -0.3669,-0.5323 -0.0896,-0.2033 -0.1602,-0.4151 -0.21188,-0.6356 -0.0517,-0.2239 -0.0896,-0.4513 -0.11368,-0.6821 -0.0241,-0.2343 -0.0465,-0.4565 -0.0672,-0.6667 -0.0551,-0.5133 -0.13092,-0.8578 -0.22738,-1.0335 -0.17225,0.069 -0.32212,0.1206 -0.44958,0.155 -0.12058,0.3376 -0.23944,0.6684 -0.35657,0.9922 -0.11369,0.3239 -0.22566,0.6305 -0.3359,0.9199 -0.11024,0.2859 -0.21876,0.5512 -0.32556,0.7958 -0.10335,0.2446 -0.20498,0.4547 -0.30489,0.6304 -0.21015,0.3721 -0.39791,0.5581 -0.56328,0.5581 -0.37207,0 -0.78203,-0.079 -1.22989,-0.2377 -0.12058,-0.041 -0.20671,-0.083 -0.25839,-0.124 0.22049,-0.1964 0.4961,-0.5805 0.82683,-1.1524 0.33073,-0.5719 0.60978,-1.068 0.83716,-1.4883 0.14441,-0.2669 0.29086,-0.5414 0.43666,-0.8139 -0.0754,0.094 -0.16371,0.1863 -0.2682,0.2749 -0.11024,0.097 -0.23254,0.1826 -0.3669,0.2584 -0.50299,0.286 -1.04731,0.329 -1.63298,0.1292 -0.48576,-0.1619 -0.83199,-0.4961 -1.03869,-1.0025 -0.10336,-0.2618 -0.15503,-0.5598 -0.15503,-0.894 0,-0.3342 0.0517,-0.6477 0.15503,-0.9405 0.10335,-0.2963 0.23771,-0.5857 0.40307,-0.8682 0.16881,-0.2859 0.36001,-0.5615 0.57361,-0.8268 0.21704,-0.2653 0.43753,-0.5185 0.66146,-0.7596 0.22738,-0.2446 0.44786,-0.4737 0.66146,-0.6873 0.21704,-0.2136 0.40824,-0.4117 0.5736,-0.5943 0.37552,-0.4031 0.56328,-0.6804 0.56328,-0.832 0,-0.079 -0.0724,-0.1189 -0.21704,-0.1189 z m 6.90965,3.606 c -0.34592,0.3234 -0.87194,0.7129 -1.58491,1.1705 -0.55811,0.3583 -1.161,0.708 -1.80868,1.049 0.12403,0.124 0.23427,0.3187 0.33073,0.584 0.0999,0.2652 0.17742,0.4857 0.23255,0.6614 0.0586,0.1757 0.1223,0.3497 0.1912,0.5219 0.0689,0.1723 0.14469,0.3359 0.22737,0.491 0.0827,0.155 0.17915,0.2928 0.28939,0.4134 0.24116,0.2584 0.5271,0.3876 0.85783,0.3876 0.15746,0 0.33222,-0.049 0.52038,-0.1359 a 8.4478626,8.4478626 0 0 0 0.86713,-3.7047 8.4478626,8.4478626 0 0 0 -0.12299,-1.4382 z"
         id="path1175"
         inkscape:connector-curvature="0" />
    </g>
  </g>
</svg>
